CSLSans-Light.ufo
<glyph name="dollar" format="2">
  <advance width="578"/>
  <unicode hex="0024"/>
  <outline>
    <contour>
      <point x="270" y="-82" type="line"/>
      <point x="270" y="0" type="line"/>
      <point x="128" y="8"/>
      <point x="48" y="117" type="qcurve"/>
      <point x="91" y="154" type="line"/>
      <point x="154" y="64"/>
      <point x="270" y="51" type="qcurve"/>
      <point x="270" y="337" type="line"/>
      <point x="258" y="339" type="line" smooth="yes"/>
      <point x="108" y="365"/>
      <point x="77" y="458" type="qcurve" smooth="yes"/>
      <point x="67" y="488"/>
      <point x="67" y="523" type="qcurve" smooth="yes"/>
      <point x="67" y="606"/>
      <point x="179" y="692"/>
      <point x="270" y="698" type="qcurve"/>
      <point x="270" y="780" type="line"/>
      <point x="314" y="780" type="line"/>
      <point x="314" y="699" type="line"/>
      <point x="450" y="687"/>
      <point x="512" y="593" type="qcurve"/>
      <point x="468" y="560" type="line"/>
      <point x="418" y="635"/>
      <point x="314" y="647" type="qcurve"/>
      <point x="314" y="384" type="line"/>
      <point x="331" y="381" type="line" smooth="yes"/>
      <point x="436" y="363"/>
      <point x="479" y="314" type="qcurve"/>
      <point x="520" y="270"/>
      <point x="520" y="194" type="qcurve" smooth="yes"/>
      <point x="520" y="106"/>
      <point x="410" y="7"/>
      <point x="314" y="0" type="qcurve"/>
      <point x="314" y="-82" type="line"/>
    </contour>
    <contour>
      <point x="270" y="647" type="line"/>
      <point x="201" y="642"/>
      <point x="124" y="582"/>
      <point x="124" y="526" type="qcurve" smooth="yes"/>
      <point x="124" y="417"/>
      <point x="260" y="393" type="qcurve" smooth="yes"/>
      <point x="270" y="391" type="line"/>
    </contour>
    <contour>
      <point x="314" y="51" type="line"/>
      <point x="384" y="57"/>
      <point x="463" y="129"/>
      <point x="463" y="191" type="qcurve" smooth="yes"/>
      <point x="463" y="255"/>
      <point x="390" y="320"/>
      <point x="321" y="329" type="qcurve" smooth="yes"/>
      <point x="314" y="330" type="line"/>
    </contour>
  </outline>
</glyph>
<glyph name="ampersand" format="2">
  <advance width="687"/>
  <unicode hex="0026"/>
  <outline>
    <contour>
      <point x="280" y="-12" type="qcurve"/>
      <point x="356" y="-12"/>
      <point x="415" y="23" type="qcurve"/>
      <point x="467" y="55"/>
      <point x="492" y="95" type="qcurve"/>
      <point x="583" y="0" type="line"/>
      <point x="657" y="0" type="line"/>
      <point x="522" y="141" type="line"/>
      <point x="557" y="216"/>
      <point x="566" y="311" type="qcurve"/>
      <point x="644" y="311" type="line"/>
      <point x="644" y="361" type="line"/>
      <point x="519" y="361" type="line"/>
      <point x="516" y="259"/>
      <point x="486" y="179" type="qcurve"/>
      <point x="305" y="367" type="line"/>
      <point x="381" y="403"/>
      <point x="479" y="499"/>
      <point x="479" y="564" type="qcurve"/>
      <point x="479" y="629"/>
      <point x="388" y="710"/>
      <point x="314" y="710" type="qcurve"/>
      <point x="235" y="710"/>
      <point x="138" y="618"/>
      <point x="138" y="547" type="qcurve"/>
      <point x="138" y="499"/>
      <point x="184" y="418"/>
      <point x="224" y="375" type="qcurve"/>
      <point x="162" y="346"/>
      <point x="118" y="300" type="qcurve"/>
      <point x="71" y="247"/>
      <point x="71" y="175" type="qcurve"/>
      <point x="71" y="96"/>
      <point x="180" y="-12"/>
    </contour>
    <contour>
      <point x="273" y="400" type="qcurve"/>
      <point x="239" y="437"/>
      <point x="195" y="506"/>
      <point x="195" y="541" type="qcurve"/>
      <point x="195" y="555" type="line"/>
      <point x="195" y="600"/>
      <point x="258" y="662"/>
      <point x="311" y="662" type="qcurve"/>
      <point x="355" y="662"/>
      <point x="390" y="637" type="qcurve"/>
      <point x="423" y="611"/>
      <point x="423" y="564" type="qcurve"/>
      <point x="423" y="551" type="line"/>
      <point x="423" y="472"/>
    </contour>
    <contour>
      <point x="284" y="39" type="qcurve"/>
      <point x="215" y="39"/>
      <point x="131" y="109"/>
      <point x="131" y="169" type="qcurve"/>
      <point x="131" y="186" type="line"/>
      <point x="131" y="218"/>
      <point x="141" y="242" type="qcurve"/>
      <point x="165" y="299"/>
      <point x="255" y="342" type="qcurve"/>
      <point x="459" y="130" type="line"/>
      <point x="401" y="39"/>
    </contour>
  </outline>
</glyph>
<glyph name="quotesingle" format="2">
  <advance width="232"/>
  <unicode hex="0027"/>
  <outline>
    <contour>
      <point x="142" y="472" type="line"/>
      <point x="142" y="740" type="line"/>
      <point x="90" y="740" type="line"/>
      <point x="90" y="472" type="line"/>
    </contour>
  </outline>
</glyph>
<glyph name="parenleft" format="2">
  <advance width="334"/>
  <unicode hex="0028"/>
  <outline>
    <contour>
      <point x="330" y="-137" type="line"/>
      <point x="250" y="-66"/>
      <point x="146" y="160"/>
      <point x="146" y="278" type="qcurve"/>
      <point x="146" y="344" type="line"/>
      <point x="146" y="463"/>
      <point x="199" y="576" type="qcurve"/>
      <point x="249" y="686"/>
      <point x="330" y="760" type="qcurve"/>
      <point x="274" y="760" type="line"/>
      <point x="198" y="694"/>
      <point x="146" y="578" type="qcurve"/>
      <point x="92" y="453"/>
      <point x="92" y="312" type="qcurve"/>
      <point x="92" y="170"/>
      <point x="147" y="45" type="qcurve"/>
      <point x="199" y="-73"/>
      <point x="274" y="-137" type="qcurve"/>
    </contour>
  </outline>
</glyph>
<glyph name="parenright" format="2">
  <advance width="334"/>
  <unicode hex="0029"/>
  <outline>
    <contour>
      <point x="60" y="-137" type="line"/>
      <point x="135" y="-73"/>
      <point x="187" y="45" type="qcurve"/>
      <point x="242" y="170"/>
      <point x="242" y="312" type="qcurve"/>
      <point x="242" y="453"/>
      <point x="188" y="578" type="qcurve"/>
      <point x="136" y="694"/>
      <point x="60" y="760" type="qcurve"/>
      <point x="4" y="760" type="line"/>
      <point x="85" y="686"/>
      <point x="188" y="463"/>
      <point x="188" y="344" type="qcurve"/>
      <point x="188" y="278" type="line"/>
      <point x="188" y="160"/>
      <point x="84" y="-66"/>
      <point x="4" y="-137" type="qcurve"/>
    </contour>
  </outline>
</glyph>
<glyph name="asterisk" format="2">
  <advance width="416"/>
  <unicode hex="002A"/>
  <outline>
    <contour>
      <point x="208" y="532" type="line"/>
      <point x="122" y="407" type="line"/>
      <point x="82" y="436" type="line"/>
      <point x="174" y="557" type="line"/>
      <point x="29" y="598" type="line"/>
      <point x="44" y="647" type="line"/>
      <point x="187" y="596" type="line"/>
      <point x="183" y="747" type="line"/>
      <point x="233" y="747" type="line"/>
      <point x="229" y="596" type="line"/>
      <point x="371" y="647" type="line"/>
      <point x="387" y="598" type="line"/>
      <point x="242" y="557" type="line"/>
      <point x="334" y="436" type="line"/>
      <point x="294" y="407" type="line"/>
    </contour>
  </outline>
</glyph>
<glyph name="plus" format="2">
  <advance width="600"/>
  <unicode hex="002B"/>
  <outline>
    <contour>
      <point x="273" y="63" type="line"/>
      <point x="273" y="281" type="line"/>
      <point x="65" y="281" type="line"/>
      <point x="65" y="330" type="line"/>
      <point x="273" y="330" type="line"/>
      <point x="273" y="548" type="line"/>
      <point x="327" y="548" type="line"/>
      <point x="327" y="330" type="line"/>
      <point x="535" y="330" type="line"/>
      <point x="535" y="281" type="line"/>
      <point x="327" y="281" type="line"/>
      <point x="327" y="63" type="line"/>
    </contour>
  </outline>
</glyph>
<glyph name="comma" format="2">
  <advance width="260"/>
  <unicode hex="002C"/>
  <outline>
    <contour>
      <point x="92" y="-138" type="line"/>
      <point x="132" y="-103"/>
      <point x="178" y="-9"/>
      <point x="178" y="33" type="qcurve"/>
      <point x="178" y="46" type="line"/>
      <point x="178" y="66"/>
      <point x="155" y="92"/>
      <point x="130" y="92" type="qcurve"/>
      <point x="105" y="92"/>
      <point x="82" y="66"/>
      <point x="82" y="46" type="qcurve"/>
      <point x="82" y="34" type="line"/>
      <point x="82" y="-2"/>
      <point x="118" y="-7" type="qcurve"/>
      <point x="108" y="-72"/>
      <point x="44" y="-138" type="qcurve"/>
    </contour>
  </outline>
</glyph>
<glyph name="period" format="2">
  <advance width="260"/>
  <unicode hex="002E"/>
  <outline>
    <contour>
      <point x="130" y="-9" type="qcurve" smooth="yes"/>
      <point x="105" y="-9"/>
      <point x="82" y="16"/>
      <point x="82" y="36" type="qcurve" smooth="yes"/>
      <point x="82" y="47" type="line" smooth="yes"/>
      <point x="82" y="67"/>
      <point x="105" y="92"/>
      <point x="130" y="92" type="qcurve" smooth="yes"/>
      <point x="154" y="92"/>
      <point x="178" y="67"/>
      <point x="178" y="47" type="qcurve" smooth="yes"/>
      <point x="178" y="36" type="line" smooth="yes"/>
      <point x="178" y="-9"/>
    </contour>
  </outline>
</glyph>
<glyph name="slash" format="2">
  <advance width="356"/>
  <unicode hex="002F"/>
  <outline>
    <contour>
      <point x="11" y="-151" type="line"/>
      <point x="263" y="740" type="line"/>
      <point x="314" y="740" type="line"/>
      <point x="62" y="-151" type="line"/>
    </contour>
  </outline>
</glyph>
<glyph name="zero" format="2">
  <advance width="600"/>
  <unicode hex="0030"/>
  <outline>
    <contour>
      <point x="300" y="-12" type="qcurve"/>
      <point x="536" y="-12"/>
      <point x="536" y="349" type="qcurve"/>
      <point x="536" y="710"/>
      <point x="301" y="710" type="qcurve"/>
      <point x="65" y="710"/>
      <point x="64" y="349" type="qcurve"/>
      <point x="64" y="-12"/>
    </contour>
    <contour>
      <point x="300" y="40" type="qcurve"/>
      <point x="211" y="40"/>
      <point x="127" y="180"/>
      <point x="127" y="302" type="qcurve"/>
      <point x="127" y="396" type="line"/>
      <point x="127" y="518"/>
      <point x="211" y="658"/>
      <point x="300" y="658" type="qcurve"/>
      <point x="388" y="658"/>
      <point x="473" y="518"/>
      <point x="473" y="396" type="qcurve"/>
      <point x="473" y="302" type="line"/>
      <point x="473" y="180"/>
      <point x="388" y="40"/>
    </contour>
  </outline>
</glyph>
<glyph name="two" format="2">
  <advance width="600"/>
  <unicode hex="0032"/>
  <outline>
    <contour>
      <point x="528" y="0" type="line"/>
      <point x="528" y="53" type="line"/>
      <point x="145" y="53" type="line"/>
      <point x="360" y="257" type="line"/>
      <point x="423" y="315"/>
      <point x="499" y="435"/>
      <point x="499" y="511" type="qcurve"/>
      <point x="499" y="601"/>
      <point x="391" y="710"/>
      <point x="293" y="710" type="qcurve"/>
      <point x="204" y="710"/>
      <point x="147" y="662" type="qcurve"/>
      <point x="94" y="617"/>
      <point x="76" y="550" type="qcurve"/>
      <point x="130" y="530" type="line"/>
      <point x="146" y="587"/>
      <point x="221" y="656"/>
      <point x="291" y="656" type="qcurve"/>
      <point x="363" y="656"/>
      <point x="435" y="578"/>
      <point x="435" y="516" type="qcurve"/>
      <point x="435" y="497" type="line"/>
      <point x="435" y="402"/>
      <point x="324" y="295" type="qcurve"/>
      <point x="80" y="61" type="line"/>
      <point x="80" y="0" type="line"/>
    </contour>
  </outline>
</glyph>
<glyph name="four" format="2">
  <advance width="600"/>
  <unicode hex="0034"/>
  <outline>
    <contour>
      <point x="389" y="0" type="line"/>
      <point x="389" y="146" type="line"/>
      <point x="42" y="146" type="line"/>
      <point x="42" y="199" type="line"/>
      <point x="360" y="698" type="line"/>
      <point x="446" y="698" type="line"/>
      <point x="446" y="196" type="line"/>
      <point x="554" y="196" type="line"/>
      <point x="554" y="146" type="line"/>
      <point x="446" y="146" type="line"/>
      <point x="446" y="0" type="line"/>
    </contour>
    <contour>
      <point x="389" y="647" type="line"/>
      <point x="386" y="647" type="line"/>
      <point x="98" y="196" type="line"/>
      <point x="389" y="196" type="line"/>
    </contour>
  </outline>
</glyph>
<glyph name="seven" format="2">
  <advance width="600"/>
  <unicode hex="0037"/>
  <outline>
    <contour>
      <point x="244" y="0" type="line"/>
      <point x="180" y="0" type="line"/>
      <point x="460" y="646" type="line"/>
      <point x="72" y="646" type="line"/>
      <point x="72" y="698" type="line"/>
      <point x="521" y="698" type="line"/>
      <point x="521" y="645" type="line"/>
    </contour>
  </outline>
</glyph>
<glyph name="colon" format="2">
  <advance width="280"/>
  <unicode hex="003A"/>
  <outline>
    <contour>
      <point x="140" y="411" type="qcurve" smooth="yes"/>
      <point x="115" y="411"/>
      <point x="92" y="436"/>
      <point x="92" y="456" type="qcurve" smooth="yes"/>
      <point x="92" y="467" type="line" smooth="yes"/>
      <point x="92" y="487"/>
      <point x="115" y="512"/>
      <point x="140" y="512" type="qcurve" smooth="yes"/>
      <point x="164" y="512"/>
      <point x="188" y="487"/>
      <point x="188" y="467" type="qcurve" smooth="yes"/>
      <point x="188" y="456" type="line" smooth="yes"/>
      <point x="188" y="411"/>
    </contour>
    <contour>
      <point x="140" y="-9" type="qcurve" smooth="yes"/>
      <point x="115" y="-9"/>
      <point x="92" y="16"/>
      <point x="92" y="36" type="qcurve" smooth="yes"/>
      <point x="92" y="47" type="line" smooth="yes"/>
      <point x="92" y="67"/>
      <point x="115" y="92"/>
      <point x="140" y="92" type="qcurve" smooth="yes"/>
      <point x="164" y="92"/>
      <point x="188" y="67"/>
      <point x="188" y="47" type="qcurve" smooth="yes"/>
      <point x="188" y="36" type="line" smooth="yes"/>
      <point x="188" y="-9"/>
    </contour>
  </outline>
</glyph>
<glyph name="semicolon" format="2">
  <advance width="280"/>
  <unicode hex="003B"/>
  <outline>
    <contour>
      <point x="102" y="-138" type="line"/>
      <point x="142" y="-103"/>
      <point x="188" y="-9"/>
      <point x="188" y="33" type="qcurve"/>
      <point x="188" y="46" type="line"/>
      <point x="188" y="66"/>
      <point x="165" y="92"/>
      <point x="140" y="92" type="qcurve"/>
      <point x="115" y="92"/>
      <point x="92" y="66"/>
      <point x="92" y="46" type="qcurve"/>
      <point x="92" y="34" type="line"/>
      <point x="92" y="-2"/>
      <point x="128" y="-7" type="qcurve"/>
      <point x="118" y="-72"/>
      <point x="54" y="-138" type="qcurve"/>
    </contour>
    <contour>
      <point x="139" y="411" type="qcurve"/>
      <point x="187" y="411"/>
      <point x="187" y="456" type="qcurve"/>
      <point x="187" y="467" type="line"/>
      <point x="187" y="487"/>
      <point x="163" y="512"/>
      <point x="139" y="512" type="qcurve"/>
      <point x="114" y="512"/>
      <point x="91" y="487"/>
      <point x="91" y="467" type="qcurve"/>
      <point x="91" y="456" type="line"/>
      <point x="91" y="436"/>
      <point x="114" y="411"/>
    </contour>
  </outline>
</glyph>
<glyph name="equal" format="2">
  <advance width="600"/>
  <unicode hex="003D"/>
  <outline>
    <contour>
      <point x="535" y="377" type="line"/>
      <point x="535" y="426" type="line"/>
      <point x="65" y="426" type="line"/>
      <point x="65" y="377" type="line"/>
    </contour>
    <contour>
      <point x="535" y="186" type="line"/>
      <point x="535" y="235" type="line"/>
      <point x="65" y="235" type="line"/>
      <point x="65" y="186" type="line"/>
    </contour>
  </outline>
</glyph>
<glyph name="greater" format="2">
  <advance width="600"/>
  <unicode hex="003E"/>
  <outline>
    <contour>
      <point x="88" y="8" type="line"/>
      <point x="512" y="260" type="line"/>
      <point x="512" y="316" type="line"/>
      <point x="88" y="568" type="line"/>
      <point x="88" y="508" type="line"/>
      <point x="457" y="291" type="line"/>
      <point x="457" y="285" type="line"/>
      <point x="88" y="68" type="line"/>
    </contour>
  </outline>
</glyph>
<glyph name="question" format="2">
  <advance width="469"/>
  <unicode hex="003F"/>
  <outline>
    <contour>
      <point x="186" y="196" type="line"/>
      <point x="186" y="363" type="line"/>
      <point x="274" y="367"/>
      <point x="371" y="446"/>
      <point x="371" y="513" type="qcurve" smooth="yes"/>
      <point x="371" y="532" type="line" smooth="yes"/>
      <point x="371" y="589"/>
      <point x="299" y="658"/>
      <point x="236" y="658" type="qcurve" smooth="yes"/>
      <point x="113" y="658"/>
      <point x="81" y="533" type="qcurve"/>
      <point x="28" y="552" type="line"/>
      <point x="48" y="621"/>
      <point x="150" y="710"/>
      <point x="238" y="710" type="qcurve" smooth="yes"/>
      <point x="329" y="710"/>
      <point x="433" y="610"/>
      <point x="433" y="525" type="qcurve" smooth="yes"/>
      <point x="433" y="434"/>
      <point x="322" y="333"/>
      <point x="242" y="321" type="qcurve"/>
      <point x="242" y="196" type="line"/>
    </contour>
    <contour>
      <point x="214" y="-9" type="qcurve"/>
      <point x="167" y="-6"/>
      <point x="167" y="36" type="qcurve" smooth="yes"/>
      <point x="167" y="49" type="line" smooth="yes"/>
      <point x="167" y="92"/>
      <point x="214" y="92" type="qcurve"/>
      <point x="262" y="89"/>
      <point x="262" y="47" type="qcurve" smooth="yes"/>
      <point x="262" y="33" type="line" smooth="yes"/>
      <point x="262" y="-9"/>
    </contour>
  </outline>
</glyph>
<glyph name="at" format="2">
  <advance width="887"/>
  <unicode hex="0040"/>
  <outline>
    <contour>
      <point x="678" y="-121" type="line"/>
      <point x="678" y="-77" type="line"/>
      <point x="445" y="-77" type="line"/>
      <point x="301" y="-77"/>
      <point x="116" y="116"/>
      <point x="116" y="267" type="qcurve"/>
      <point x="116" y="323" type="line"/>
      <point x="116" y="469"/>
      <point x="305" y="665"/>
      <point x="450" y="665" type="qcurve"/>
      <point x="587" y="665"/>
      <point x="771" y="494"/>
      <point x="771" y="354" type="qcurve"/>
      <point x="771" y="308" type="line"/>
      <point x="771" y="217"/>
      <point x="716" y="113"/>
      <point x="666" y="113" type="qcurve"/>
      <point x="604" y="113"/>
      <point x="604" y="183" type="qcurve"/>
      <point x="604" y="498" type="line"/>
      <point x="554" y="498" type="line"/>
      <point x="554" y="432" type="line"/>
      <point x="550" y="432" type="line"/>
      <point x="516" y="509"/>
      <point x="428" y="509" type="qcurve"/>
      <point x="355" y="509"/>
      <point x="255" y="398"/>
      <point x="255" y="288" type="qcurve"/>
      <point x="255" y="179"/>
      <point x="355" y="69"/>
      <point x="428" y="69" type="qcurve"/>
      <point x="517" y="69"/>
      <point x="557" y="152" type="qcurve"/>
      <point x="560" y="152" type="line"/>
      <point x="565" y="115"/>
      <point x="614" y="69"/>
      <point x="658" y="69" type="qcurve"/>
      <point x="741" y="69"/>
      <point x="783" y="145" type="qcurve"/>
      <point x="820" y="220"/>
      <point x="820" y="326" type="qcurve"/>
      <point x="820" y="425"/>
      <point x="760" y="569"/>
      <point x="656" y="664"/>
      <point x="523" y="709"/>
      <point x="451" y="709" type="qcurve"/>
      <point x="282" y="709"/>
      <point x="67" y="481"/>
      <point x="67" y="293" type="qcurve"/>
      <point x="67" y="104"/>
      <point x="278" y="-121"/>
      <point x="444" y="-121" type="qcurve"/>
    </contour>
    <contour>
      <point x="437" y="117" type="qcurve"/>
      <point x="375" y="117"/>
      <point x="315" y="193"/>
      <point x="315" y="256" type="qcurve"/>
      <point x="315" y="320" type="line"/>
      <point x="315" y="386"/>
      <point x="375" y="461"/>
      <point x="437" y="461" type="qcurve"/>
      <point x="491" y="461"/>
      <point x="554" y="403"/>
      <point x="554" y="357" type="qcurve"/>
      <point x="554" y="224" type="line"/>
      <point x="554" y="174"/>
      <point x="491" y="117"/>
    </contour>
  </outline>
</glyph>
<glyph name="A" format="2">
  <advance width="625"/>
  <unicode hex="0041"/>
  <outline>
    <contour>
      <point x="536" y="0" type="line"/>
      <point x="460" y="217" type="line"/>
      <point x="163" y="217" type="line"/>
      <point x="87" y="0" type="line"/>
      <point x="27" y="0" type="line"/>
      <point x="274" y="698" type="line"/>
      <point x="351" y="698" type="line"/>
      <point x="599" y="0" type="line"/>
    </contour>
    <contour>
      <point x="313" y="641" type="line"/>
      <point x="309" y="641" type="line"/>
      <point x="178" y="269" type="line"/>
      <point x="444" y="269" type="line"/>
    </contour>
  </outline>
</glyph>
<glyph name="D" format="2">
  <advance width="666"/>
  <unicode hex="0044"/>
  <outline>
    <contour>
      <point x="321" y="0" type="line"/>
      <point x="456" y="0"/>
      <point x="603" y="174"/>
      <point x="603" y="349" type="qcurve"/>
      <point x="603" y="524"/>
      <point x="456" y="698"/>
      <point x="321" y="698" type="qcurve"/>
      <point x="99" y="698" type="line"/>
      <point x="99" y="0" type="line"/>
    </contour>
    <contour>
      <point x="322" y="53" type="qcurve"/>
      <point x="159" y="53" type="line"/>
      <point x="159" y="645" type="line"/>
      <point x="322" y="645" type="line"/>
      <point x="425" y="645"/>
      <point x="539" y="512"/>
      <point x="539" y="395" type="qcurve"/>
      <point x="539" y="303" type="line"/>
      <point x="539" y="186"/>
      <point x="425" y="53"/>
    </contour>
  </outline>
</glyph>
<glyph name="F" format="2">
  <advance width="550"/>
  <unicode hex="0046"/>
  <outline>
    <contour>
      <point x="159" y="0" type="line"/>
      <point x="159" y="328" type="line"/>
      <point x="475" y="328" type="line"/>
      <point x="475" y="381" type="line"/>
      <point x="159" y="381" type="line"/>
      <point x="159" y="645" type="line"/>
      <point x="498" y="645" type="line"/>
      <point x="498" y="698" type="line"/>
      <point x="99" y="698" type="line"/>
      <point x="99" y="0" type="line"/>
    </contour>
  </outline>
</glyph>
<glyph name="G" format="2">
  <advance width="665"/>
  <unicode hex="0047"/>
  <outline>
    <contour>
      <point x="55" y="349" type="qcurve"/>
      <point x="55" y="470"/>
      <point x="122" y="631"/>
      <point x="249" y="710"/>
      <point x="338" y="710" type="qcurve"/>
      <point x="384" y="710"/>
      <point x="461" y="688"/>
      <point x="522" y="648"/>
      <point x="568" y="593"/>
      <point x="583" y="559" type="qcurve"/>
      <point x="530" y="527" type="line"/>
      <point x="514" y="566"/>
      <point x="461" y="622"/>
      <point x="386" y="653"/>
      <point x="338" y="653" type="qcurve"/>
      <point x="272" y="653"/>
      <point x="176" y="592"/>
      <point x="124" y="478"/>
      <point x="124" y="395" type="qcurve"/>
      <point x="124" y="303" type="line"/>
      <point x="124" y="241"/>
      <point x="154" y="145"/>
      <point x="211" y="79"/>
      <point x="291" y="45"/>
      <point x="342" y="45" type="qcurve"/>
      <point x="400" y="45"/>
      <point x="487" y="88"/>
      <point x="535" y="169"/>
      <point x="535" y="225" type="qcurve"/>
      <point x="535" y="291" type="line"/>
      <point x="334" y="291" type="line"/>
      <point x="334" y="350" type="line"/>
      <point x="599" y="350" type="line"/>
      <point x="599" y="239" type="line"/>
      <point x="599" y="169"/>
      <point x="553" y="74"/>
      <point x="475" y="14"/>
      <point x="382" y="-12"/>
      <point x="333" y="-12" type="qcurve"/>
      <point x="286" y="-12"/>
      <point x="201" y="14"/>
      <point x="132" y="68"/>
      <point x="82" y="154"/>
      <point x="55" y="273"/>
    </contour>
  </outline>
</glyph>
<glyph name="H" format="2">
  <advance width="701"/>
  <unicode hex="0048"/>
  <outline>
    <contour>
      <point x="602" y="0" type="line"/>
      <point x="602" y="698" type="line"/>
      <point x="542" y="698" type="line"/>
      <point x="542" y="381" type="line"/>
      <point x="159" y="381" type="line"/>
      <point x="159" y="698" type="line"/>
      <point x="99" y="698" type="line"/>
      <point x="99" y="0" type="line"/>
      <point x="159" y="0" type="line"/>
      <point x="159" y="328" type="line"/>
      <point x="542" y="328" type="line"/>
      <point x="542" y="0" type="line"/>
    </contour>
  </outline>
</glyph>
<glyph name="M" format="2">
  <advance width="804"/>
  <unicode hex="004D"/>
  <outline>
    <contour>
      <point x="647" y="0" type="line"/>
      <point x="647" y="621" type="line"/>
      <point x="643" y="621" type="line"/>
      <point x="402" y="194" type="line"/>
      <point x="161" y="621" type="line"/>
      <point x="157" y="621" type="line"/>
      <point x="157" y="0" type="line"/>
      <point x="99" y="0" type="line"/>
      <point x="99" y="698" type="line"/>
      <point x="181" y="698" type="line"/>
      <point x="402" y="305" type="line"/>
      <point x="405" y="305" type="line"/>
      <point x="626" y="698" type="line"/>
      <point x="705" y="698" type="line"/>
      <point x="705" y="0" type="line"/>
    </contour>
  </outline>
</glyph>
<glyph name="Q" format="2">
  <advance width="697"/>
  <unicode hex="0051"/>
  <outline>
    <contour>
      <point x="349" y="-12" type="qcurve" smooth="yes"/>
      <point x="215" y="-12"/>
      <point x="63" y="171"/>
      <point x="63" y="349" type="qcurve" smooth="yes"/>
      <point x="63" y="526"/>
      <point x="213" y="710"/>
      <point x="349" y="710" type="qcurve" smooth="yes"/>
      <point x="414" y="710"/>
      <point x="520" y="664"/>
      <point x="595" y="573"/>
      <point x="635" y="438"/>
      <point x="635" y="349" type="qcurve" smooth="yes"/>
      <point x="635" y="174"/>
      <point x="486" y="-12"/>
    </contour>
    <contour>
      <point x="349" y="42" type="qcurve" smooth="yes"/>
      <point x="398" y="42"/>
      <point x="480" y="78"/>
      <point x="538" y="146"/>
      <point x="570" y="243"/>
      <point x="570" y="305" type="qcurve" smooth="yes"/>
      <point x="570" y="375" type="line" smooth="yes"/>
      <point x="570" y="438"/>
      <point x="543" y="542"/>
      <point x="488" y="616"/>
      <point x="405" y="656"/>
      <point x="349" y="656" type="qcurve" smooth="yes"/>
      <point x="299" y="656"/>
      <point x="218" y="620"/>
      <point x="160" y="553"/>
      <point x="128" y="455"/>
      <point x="128" y="393" type="qcurve" smooth="yes"/>
      <point x="128" y="323" type="line" smooth="yes"/>
      <point x="128" y="264"/>
      <point x="151" y="161"/>
      <point x="204" y="85"/>
      <point x="288" y="42"/>
    </contour>
    <contour>
      <point x="646" y="-90" type="line"/>
      <point x="597" y="-90"/>
      <point x="525" y="-69"/>
      <point x="476" y="-31"/>
      <point x="446" y="23"/>
      <point x="439" y="56" type="qcurve"/>
      <point x="493" y="70" type="line"/>
      <point x="500" y="19"/>
      <point x="577" y="-36"/>
      <point x="647" y="-36" type="qcurve"/>
    </contour>
  </outline>
</glyph>
<glyph name="R" format="2">
  <advance width="636"/>
  <unicode hex="0052"/>
  <outline>
    <contour>
      <point x="578" y="0" type="line"/>
      <point x="406" y="313" type="line"/>
      <point x="481" y="323"/>
      <point x="560" y="423"/>
      <point x="560" y="504" type="qcurve"/>
      <point x="560" y="596"/>
      <point x="463" y="698"/>
      <point x="373" y="698" type="qcurve"/>
      <point x="99" y="698" type="line"/>
      <point x="99" y="0" type="line"/>
      <point x="159" y="0" type="line"/>
      <point x="159" y="309" type="line"/>
      <point x="344" y="309" type="line"/>
      <point x="511" y="0" type="line"/>
    </contour>
    <contour>
      <point x="373" y="360" type="qcurve"/>
      <point x="159" y="360" type="line"/>
      <point x="159" y="645" type="line"/>
      <point x="373" y="645" type="line"/>
      <point x="433" y="645"/>
      <point x="496" y="578"/>
      <point x="496" y="527" type="qcurve"/>
      <point x="496" y="479" type="line"/>
      <point x="496" y="427"/>
      <point x="433" y="360"/>
    </contour>
  </outline>
</glyph>
<glyph name="V" format="2">
  <advance width="594"/>
  <unicode hex="0056"/>
  <outline>
    <contour>
      <point x="258" y="0" type="line"/>
      <point x="24" y="698" type="line"/>
      <point x="89" y="698" type="line"/>
      <point x="295" y="61" type="line"/>
      <point x="299" y="61" type="line"/>
      <point x="507" y="698" type="line"/>
      <point x="570" y="698" type="line"/>
      <point x="334" y="0" type="line"/>
    </contour>
  </outline>
</glyph>
<glyph name="W" format="2">
  <advance width="884"/>
  <unicode hex="0057"/>
  <outline>
    <contour>
      <point x="678" y="0" type="line"/>
      <point x="860" y="698" type="line"/>
      <point x="798" y="698" type="line"/>
      <point x="644" y="74" type="line"/>
      <point x="641" y="74" type="line"/>
      <point x="478" y="698" type="line"/>
      <point x="405" y="698" type="line"/>
      <point x="240" y="74" type="line"/>
      <point x="237" y="74" type="line"/>
      <point x="88" y="698" type="line"/>
      <point x="24" y="698" type="line"/>
      <point x="200" y="0" type="line"/>
      <point x="270" y="0" type="line"/>
      <point x="439" y="631" type="line"/>
      <point x="441" y="631" type="line"/>
      <point x="608" y="0" type="line"/>
    </contour>
  </outline>
</glyph>
<glyph name="Z" format="2">
  <advance width="570"/>
  <unicode hex="005A"/>
  <outline>
    <contour>
      <point x="37" y="0" type="line"/>
      <point x="37" y="55" type="line"/>
      <point x="456" y="645" type="line"/>
      <point x="59" y="645" type="line"/>
      <point x="59" y="698" type="line"/>
      <point x="521" y="698" type="line"/>
      <point x="521" y="643" type="line"/>
      <point x="101" y="53" type="line"/>
      <point x="537" y="53" type="line"/>
      <point x="537" y="0" type="line"/>
    </contour>
  </outline>
</glyph>
<glyph name="bracketleft" format="2">
  <advance width="311"/>
  <unicode hex="005B"/>
  <outline>
    <contour>
      <point x="99" y="-138" type="line"/>
      <point x="99" y="760" type="line"/>
      <point x="247" y="760" type="line"/>
      <point x="247" y="715" type="line"/>
      <point x="149" y="715" type="line"/>
      <point x="149" y="-93" type="line"/>
      <point x="247" y="-93" type="line"/>
      <point x="247" y="-138" type="line"/>
    </contour>
  </outline>
</glyph>
<glyph name="backslash" format="2">
  <advance width="356"/>
  <unicode hex="005C"/>
  <outline>
    <contour>
      <point x="341" y="-151" type="line"/>
      <point x="92" y="740" type="line"/>
      <point x="40" y="740" type="line"/>
      <point x="289" y="-151" type="line"/>
    </contour>
  </outline>
</glyph>
<glyph name="bracketright" format="2">
  <advance width="311"/>
  <unicode hex="005D"/>
  <outline>
    <contour>
      <point x="212" y="-138" type="line"/>
      <point x="212" y="760" type="line"/>
      <point x="64" y="760" type="line"/>
      <point x="64" y="715" type="line"/>
      <point x="162" y="715" type="line"/>
      <point x="162" y="-93" type="line"/>
      <point x="64" y="-93" type="line"/>
      <point x="64" y="-138" type="line"/>
    </contour>
  </outline>
</glyph>
<glyph name="asciicircum" format="2">
  <advance width="600"/>
  <unicode hex="005E"/>
  <outline>
    <contour>
      <point x="499" y="306" type="line"/>
      <point x="543" y="330" type="line"/>
      <point x="331" y="698" type="line"/>
      <point x="269" y="698" type="line"/>
      <point x="57" y="330" type="line"/>
      <point x="101" y="306" type="line"/>
      <point x="298" y="644" type="line"/>
      <point x="302" y="644" type="line"/>
    </contour>
  </outline>
</glyph>
<glyph name="underscore" format="2">
  <advance width="567"/>
  <unicode hex="005F"/>
  <outline>
    <contour>
      <point x="537" y="-156" type="line"/>
      <point x="537" y="-106" type="line"/>
      <point x="30" y="-106" type="line"/>
      <point x="30" y="-156" type="line"/>
    </contour>
  </outline>
</glyph>
<glyph name="grave" format="2">
  <advance width="600"/>
  <unicode hex="0060"/>
  <outline>
    <contour>
      <point x="302" y="586" type="line"/>
      <point x="340" y="604" type="line"/>
      <point x="245" y="768" type="line"/>
      <point x="193" y="742" type="line"/>
    </contour>
  </outline>
</glyph>
<glyph name="b" format="2">
  <advance width="574"/>
  <unicode hex="0062"/>
  <outline>
    <contour>
      <point x="309" y="-12" type="qcurve"/>
      <point x="408" y="-12"/>
      <point x="520" y="128"/>
      <point x="520" y="256" type="qcurve"/>
      <point x="520" y="384"/>
      <point x="408" y="524"/>
      <point x="309" y="524" type="qcurve"/>
      <point x="250" y="524"/>
      <point x="172" y="473"/>
      <point x="153" y="430" type="qcurve"/>
      <point x="150" y="430" type="line"/>
      <point x="150" y="740" type="line"/>
      <point x="93" y="740" type="line"/>
      <point x="93" y="0" type="line"/>
      <point x="150" y="0" type="line"/>
      <point x="150" y="82" type="line"/>
      <point x="153" y="82" type="line"/>
      <point x="198" y="-12"/>
    </contour>
    <contour>
      <point x="296" y="39" type="qcurve"/>
      <point x="236" y="39"/>
      <point x="150" y="102"/>
      <point x="150" y="156" type="qcurve"/>
      <point x="150" y="359" type="line"/>
      <point x="150" y="409"/>
      <point x="236" y="473"/>
      <point x="296" y="473" type="qcurve"/>
      <point x="373" y="473"/>
      <point x="459" y="375"/>
      <point x="459" y="292" type="qcurve"/>
      <point x="459" y="220" type="line"/>
      <point x="459" y="137"/>
      <point x="373" y="39"/>
    </contour>
  </outline>
</glyph>
<glyph name="d" format="2">
  <advance width="574"/>
  <unicode hex="0064"/>
  <outline>
    <contour>
      <point x="265" y="-12" type="qcurve" smooth="yes"/>
      <point x="166" y="-12"/>
      <point x="54" y="128"/>
      <point x="54" y="256" type="qcurve" smooth="yes"/>
      <point x="54" y="384"/>
      <point x="166" y="524"/>
      <point x="265" y="524" type="qcurve" smooth="yes"/>
      <point x="324" y="524"/>
      <point x="402" y="473"/>
      <point x="421" y="430" type="qcurve"/>
      <point x="424" y="430" type="line"/>
      <point x="424" y="740" type="line"/>
      <point x="481" y="740" type="line"/>
      <point x="481" y="0" type="line"/>
      <point x="424" y="0" type="line"/>
      <point x="424" y="82" type="line"/>
      <point x="421" y="82" type="line"/>
      <point x="377" y="-12"/>
    </contour>
    <contour>
      <point x="278" y="39" type="qcurve" smooth="yes"/>
      <point x="338" y="39"/>
      <point x="424" y="102"/>
      <point x="424" y="156" type="qcurve" smooth="yes"/>
      <point x="424" y="359" type="line" smooth="yes"/>
      <point x="424" y="409"/>
      <point x="338" y="473"/>
      <point x="278" y="473" type="qcurve" smooth="yes"/>
      <point x="201" y="473"/>
      <point x="115" y="375"/>
      <point x="115" y="292" type="qcurve" smooth="yes"/>
      <point x="115" y="220" type="line" smooth="yes"/>
      <point x="115" y="137"/>
      <point x="201" y="39"/>
    </contour>
  </outline>
</glyph>
<glyph name="g" format="2">
  <advance width="529"/>
  <unicode hex="0067"/>
  <outline>
    <contour>
      <point x="267" y="-212" type="qcurve" smooth="yes"/>
      <point x="46" y="-212"/>
      <point x="46" y="-84" type="qcurve" smooth="yes"/>
      <point x="46" y="-1"/>
      <point x="134" y="24" type="qcurve"/>
      <point x="134" y="32" type="line"/>
      <point x="86" y="51"/>
      <point x="86" y="102" type="qcurve" smooth="yes"/>
      <point x="86" y="140"/>
      <point x="136" y="180"/>
      <point x="173" y="190" type="qcurve"/>
      <point x="173" y="194" type="line"/>
      <point x="128" y="214"/>
      <point x="78" y="294"/>
      <point x="78" y="350" type="qcurve" smooth="yes"/>
      <point x="78" y="429"/>
      <point x="180" y="524"/>
      <point x="264" y="524" type="qcurve" smooth="yes"/>
      <point x="307" y="524"/>
      <point x="340" y="512" type="qcurve"/>
      <point x="503" y="512" type="line"/>
      <point x="503" y="466" type="line"/>
      <point x="403" y="466" type="line"/>
      <point x="452" y="423"/>
      <point x="452" y="350" type="qcurve" smooth="yes"/>
      <point x="452" y="273"/>
      <point x="350" y="175"/>
      <point x="265" y="175" type="qcurve" smooth="yes"/>
      <point x="251" y="175"/>
      <point x="212" y="181" type="qcurve"/>
      <point x="136" y="160"/>
      <point x="136" y="115" type="qcurve" smooth="yes"/>
      <point x="136" y="69"/>
      <point x="218" y="69" type="qcurve" smooth="yes"/>
      <point x="337" y="69" type="line" smooth="yes"/>
      <point x="513" y="69"/>
      <point x="513" y="-60" type="qcurve" smooth="yes"/>
      <point x="513" y="-212"/>
    </contour>
    <contour>
      <point x="265" y="221" type="qcurve" smooth="yes"/>
      <point x="324" y="221"/>
      <point x="391" y="280"/>
      <point x="391" y="334" type="qcurve" smooth="yes"/>
      <point x="391" y="366" type="line" smooth="yes"/>
      <point x="391" y="419"/>
      <point x="324" y="478"/>
      <point x="265" y="478" type="qcurve" smooth="yes"/>
      <point x="205" y="478"/>
      <point x="139" y="419"/>
      <point x="139" y="366" type="qcurve" smooth="yes"/>
      <point x="139" y="334" type="line" smooth="yes"/>
      <point x="139" y="280"/>
      <point x="206" y="221"/>
    </contour>
    <contour>
      <point x="297" y="-165" type="line" smooth="yes"/>
      <point x="372" y="-165"/>
      <point x="458" y="-116"/>
      <point x="458" y="-64" type="qcurve" smooth="yes"/>
      <point x="458" y="-27"/>
      <point x="405" y="16"/>
      <point x="337" y="16" type="qcurve" smooth="yes"/>
      <point x="171" y="16" type="line"/>
      <point x="100" y="-8"/>
      <point x="100" y="-72" type="qcurve" smooth="yes"/>
      <point x="100" y="-112"/>
      <point x="166" y="-165"/>
      <point x="233" y="-165" type="qcurve" smooth="yes"/>
    </contour>
  </outline>
</glyph>
<glyph name="l" format="2">
  <advance width="264"/>
  <unicode hex="006C"/>
  <outline>
    <contour>
      <point x="229" y="0" type="line"/>
      <point x="229" y="50" type="line"/>
      <point x="150" y="50" type="line"/>
      <point x="150" y="740" type="line"/>
      <point x="93" y="740" type="line"/>
      <point x="93" y="62" type="line"/>
      <point x="93" y="34"/>
      <point x="125" y="0"/>
      <point x="156" y="0" type="qcurve"/>
    </contour>
  </outline>
</glyph>
<glyph name="m" format="2">
  <advance width="876"/>
  <unicode hex="006D"/>
  <outline>
    <contour>
      <point x="790" y="0" type="line"/>
      <point x="790" y="329" type="line"/>
      <point x="790" y="423"/>
      <point x="702" y="524"/>
      <point x="620" y="524" type="qcurve"/>
      <point x="552" y="524"/>
      <point x="473" y="462"/>
      <point x="459" y="416" type="qcurve"/>
      <point x="456" y="416" type="line"/>
      <point x="437" y="472"/>
      <point x="353" y="524"/>
      <point x="298" y="524" type="qcurve"/>
      <point x="239" y="524"/>
      <point x="169" y="470"/>
      <point x="153" y="431" type="qcurve"/>
      <point x="150" y="431" type="line"/>
      <point x="150" y="512" type="line"/>
      <point x="93" y="512" type="line"/>
      <point x="93" y="0" type="line"/>
      <point x="150" y="0" type="line"/>
      <point x="150" y="360" type="line"/>
      <point x="150" y="416"/>
      <point x="233" y="473"/>
      <point x="285" y="473" type="qcurve"/>
      <point x="413" y="473"/>
      <point x="413" y="319" type="qcurve"/>
      <point x="413" y="0" type="line"/>
      <point x="470" y="0" type="line"/>
      <point x="470" y="359" type="line"/>
      <point x="470" y="415"/>
      <point x="550" y="473"/>
      <point x="604" y="473" type="qcurve"/>
      <point x="733" y="473"/>
      <point x="733" y="319" type="qcurve"/>
      <point x="733" y="0" type="line"/>
    </contour>
  </outline>
</glyph>
<glyph name="r" format="2">
  <advance width="357"/>
  <unicode hex="0072"/>
  <outline>
    <contour>
      <point x="150" y="0" type="line"/>
      <point x="150" y="350" type="line"/>
      <point x="150" y="400"/>
      <point x="232" y="456"/>
      <point x="296" y="456" type="qcurve"/>
      <point x="341" y="456" type="line"/>
      <point x="341" y="512" type="line"/>
      <point x="307" y="512" type="line"/>
      <point x="190" y="512"/>
      <point x="154" y="420" type="qcurve"/>
      <point x="150" y="420" type="line"/>
      <point x="150" y="512" type="line"/>
      <point x="93" y="512" type="line"/>
      <point x="93" y="0" type="line"/>
    </contour>
  </outline>
</glyph>
<glyph name="t" format="2">
  <advance width="335"/>
  <unicode hex="0074"/>
  <outline>
    <contour>
      <point x="283" y="0" type="line"/>
      <point x="283" y="50" type="line"/>
      <point x="175" y="50" type="line"/>
      <point x="175" y="462" type="line"/>
      <point x="291" y="462" type="line"/>
      <point x="291" y="512" type="line"/>
      <point x="175" y="512" type="line"/>
      <point x="175" y="655" type="line"/>
      <point x="123" y="655" type="line"/>
      <point x="123" y="551" type="line"/>
      <point x="123" y="529"/>
      <point x="108" y="512"/>
      <point x="87" y="512" type="qcurve"/>
      <point x="29" y="512" type="line"/>
      <point x="29" y="462" type="line"/>
      <point x="118" y="462" type="line"/>
      <point x="118" y="63" type="line"/>
      <point x="118" y="34"/>
      <point x="150" y="0"/>
      <point x="181" y="0" type="qcurve"/>
    </contour>
  </outline>
</glyph>
<glyph name="v" format="2">
  <advance width="476"/>
  <unicode hex="0076"/>
  <outline>
    <contour>
      <point x="271" y="0" type="line"/>
      <point x="456" y="512" type="line"/>
      <point x="398" y="512" type="line"/>
      <point x="242" y="61" type="line"/>
      <point x="238" y="61" type="line"/>
      <point x="81" y="512" type="line"/>
      <point x="21" y="512" type="line"/>
      <point x="206" y="0" type="line"/>
    </contour>
  </outline>
</glyph>
<glyph name="w" format="2">
  <advance width="752"/>
  <unicode hex="0077"/>
  <outline>
    <contour>
      <point x="505" y="0" type="line"/>
      <point x="376" y="431" type="line"/>
      <point x="374" y="431" type="line"/>
      <point x="246" y="0" type="line"/>
      <point x="177" y="0" type="line"/>
      <point x="33" y="512" type="line"/>
      <point x="89" y="512" type="line"/>
      <point x="212" y="51" type="line"/>
      <point x="214" y="51" type="line"/>
      <point x="350" y="512" type="line"/>
      <point x="403" y="512" type="line"/>
      <point x="540" y="51" type="line"/>
      <point x="542" y="51" type="line"/>
      <point x="664" y="512" type="line"/>
      <point x="719" y="512" type="line"/>
      <point x="575" y="0" type="line"/>
    </contour>
  </outline>
</glyph>
<glyph name="braceleft" format="2">
  <advance width="332"/>
  <unicode hex="007B"/>
  <outline>
    <contour>
      <point x="179" y="-138" type="line" smooth="yes"/>
      <point x="150" y="-138"/>
      <point x="120" y="-104"/>
      <point x="120" y="-78" type="qcurve" smooth="yes"/>
      <point x="120" y="191" type="line" smooth="yes"/>
      <point x="120" y="235"/>
      <point x="67" y="278"/>
      <point x="23" y="278" type="qcurve"/>
      <point x="23" y="344" type="line"/>
      <point x="67" y="344"/>
      <point x="120" y="387"/>
      <point x="120" y="431" type="qcurve" smooth="yes"/>
      <point x="120" y="700" type="line" smooth="yes"/>
      <point x="120" y="726"/>
      <point x="150" y="760"/>
      <point x="179" y="760" type="qcurve" smooth="yes"/>
      <point x="269" y="760" type="line"/>
      <point x="269" y="715" type="line"/>
      <point x="170" y="715" type="line"/>
      <point x="170" y="437" type="line" smooth="yes"/>
      <point x="170" y="389"/>
      <point x="117" y="325"/>
      <point x="74" y="319" type="qcurve"/>
      <point x="74" y="303" type="line"/>
      <point x="117" y="297"/>
      <point x="170" y="233"/>
      <point x="170" y="185" type="qcurve" smooth="yes"/>
      <point x="170" y="-93" type="line"/>
      <point x="269" y="-93" type="line"/>
      <point x="269" y="-138" type="line"/>
    </contour>
  </outline>
</glyph>
<glyph name="braceright" format="2">
  <advance width="332"/>
  <unicode hex="007D"/>
  <outline>
    <contour>
      <point x="153" y="-138" type="line"/>
      <point x="182" y="-138"/>
      <point x="212" y="-104"/>
      <point x="212" y="-78" type="qcurve"/>
      <point x="212" y="191" type="line"/>
      <point x="212" y="235"/>
      <point x="265" y="278"/>
      <point x="309" y="278" type="qcurve"/>
      <point x="309" y="344" type="line"/>
      <point x="265" y="344"/>
      <point x="212" y="387"/>
      <point x="212" y="431" type="qcurve"/>
      <point x="212" y="700" type="line"/>
      <point x="212" y="726"/>
      <point x="182" y="760"/>
      <point x="153" y="760" type="qcurve"/>
      <point x="63" y="760" type="line"/>
      <point x="63" y="715" type="line"/>
      <point x="162" y="715" type="line"/>
      <point x="162" y="437" type="line"/>
      <point x="162" y="389"/>
      <point x="214" y="325"/>
      <point x="259" y="319" type="qcurve"/>
      <point x="259" y="303" type="line"/>
      <point x="214" y="297"/>
      <point x="162" y="233"/>
      <point x="162" y="185" type="qcurve"/>
      <point x="162" y="-93" type="line"/>
      <point x="63" y="-93" type="line"/>
      <point x="63" y="-138" type="line"/>
    </contour>
  </outline>
</glyph>
<glyph name="asciitilde" format="2">
  <advance width="600"/>
  <unicode hex="007E"/>
  <outline>
    <contour>
      <point x="421" y="245" type="qcurve"/>
      <point x="462" y="245"/>
      <point x="516" y="272"/>
      <point x="537" y="297" type="qcurve"/>
      <point x="512" y="329" type="line"/>
      <point x="489" y="310"/>
      <point x="450" y="293"/>
      <point x="424" y="293" type="qcurve"/>
      <point x="396" y="293"/>
      <point x="345" y="311"/>
      <point x="313" y="326" type="qcurve"/>
      <point x="261" y="349"/>
      <point x="241" y="356" type="qcurve"/>
      <point x="213" y="365"/>
      <point x="179" y="365" type="qcurve"/>
      <point x="138" y="365"/>
      <point x="84" y="338"/>
      <point x="63" y="313" type="qcurve"/>
      <point x="88" y="281" type="line"/>
      <point x="111" y="300"/>
      <point x="150" y="317"/>
      <point x="176" y="317" type="qcurve"/>
      <point x="204" y="317"/>
      <point x="255" y="299"/>
      <point x="287" y="284" type="qcurve"/>
      <point x="339" y="261"/>
      <point x="359" y="254" type="qcurve"/>
      <point x="387" y="245"/>
    </contour>
  </outline>
</glyph>
<glyph name="exclamdown" format="2">
  <advance width="272"/>
  <unicode hex="00A1"/>
  <outline>
    <contour>
      <point x="136" y="420" type="qcurve" smooth="yes"/>
      <point x="111" y="420"/>
      <point x="88" y="445"/>
      <point x="88" y="465" type="qcurve" smooth="yes"/>
      <point x="88" y="476" type="line" smooth="yes"/>
      <point x="88" y="496"/>
      <point x="111" y="521"/>
      <point x="136" y="521" type="qcurve" smooth="yes"/>
      <point x="160" y="521"/>
      <point x="184" y="496"/>
      <point x="184" y="476" type="qcurve" smooth="yes"/>
      <point x="184" y="465" type="line" smooth="yes"/>
      <point x="184" y="420"/>
    </contour>
    <contour>
      <point x="104" y="-185" type="line"/>
      <point x="104" y="49" type="line"/>
      <point x="121" y="331" type="line"/>
      <point x="150" y="331" type="line"/>
      <point x="166" y="49" type="line"/>
      <point x="166" y="-185" type="line"/>
    </contour>
  </outline>
</glyph>
<glyph name="cent" format="2">
  <advance width="497"/>
  <unicode hex="00A2"/>
  <outline>
    <contour>
      <point x="292" y="-114" type="line"/>
      <point x="292" y="-11" type="line"/>
      <point x="417" y="-1"/>
      <point x="463" y="99" type="qcurve"/>
      <point x="421" y="127" type="line"/>
      <point x="382" y="47"/>
      <point x="291" y="39" type="qcurve"/>
      <point x="291" y="473" type="line"/>
      <point x="375" y="466"/>
      <point x="409" y="388" type="qcurve"/>
      <point x="455" y="411" type="line"/>
      <point x="413" y="512"/>
      <point x="292" y="523" type="qcurve"/>
      <point x="292" y="626" type="line"/>
      <point x="242" y="626" type="line"/>
      <point x="242" y="522" type="line"/>
      <point x="151" y="512"/>
      <point x="52" y="374"/>
      <point x="52" y="256" type="qcurve"/>
      <point x="52" y="138"/>
      <point x="151" y="0"/>
      <point x="242" y="-10" type="qcurve"/>
      <point x="242" y="-114" type="line"/>
    </contour>
    <contour>
      <point x="243" y="42" type="line"/>
      <point x="180" y="51"/>
      <point x="113" y="147"/>
      <point x="113" y="220" type="qcurve"/>
      <point x="113" y="292" type="line"/>
      <point x="113" y="366"/>
      <point x="180" y="461"/>
      <point x="243" y="471" type="qcurve"/>
    </contour>
  </outline>
</glyph>
<glyph name="sterling" format="2">
  <advance width="589"/>
  <unicode hex="00A3"/>
  <outline>
    <contour>
      <point x="520" y="0" type="line"/>
      <point x="520" y="54" type="line"/>
      <point x="140" y="54" type="line"/>
      <point x="140" y="57" type="line"/>
      <point x="177" y="84"/>
      <point x="222" y="178"/>
      <point x="222" y="236" type="qcurve"/>
      <point x="222" y="271"/>
      <point x="215" y="296" type="qcurve"/>
      <point x="419" y="296" type="line"/>
      <point x="419" y="346" type="line"/>
      <point x="202" y="346" type="line"/>
      <point x="194" y="368" type="line"/>
      <point x="183" y="399"/>
      <point x="166" y="462"/>
      <point x="166" y="498" type="qcurve"/>
      <point x="166" y="576"/>
      <point x="252" y="657"/>
      <point x="324" y="657" type="qcurve"/>
      <point x="437" y="657"/>
      <point x="488" y="562" type="qcurve"/>
      <point x="534" y="594" type="line"/>
      <point x="466" y="710"/>
      <point x="326" y="710" type="qcurve"/>
      <point x="224" y="710"/>
      <point x="105" y="598"/>
      <point x="105" y="503" type="qcurve"/>
      <point x="105" y="465"/>
      <point x="122" y="401"/>
      <point x="134" y="370" type="qcurve"/>
      <point x="142" y="346" type="line"/>
      <point x="64" y="346" type="line"/>
      <point x="64" y="296" type="line"/>
      <point x="156" y="296" type="line"/>
      <point x="164" y="266"/>
      <point x="164" y="230" type="qcurve"/>
      <point x="164" y="179"/>
      <point x="124" y="95"/>
      <point x="82" y="71" type="qcurve"/>
      <point x="82" y="0" type="line"/>
    </contour>
  </outline>
</glyph>
<glyph name="yen" format="2">
  <advance width="595"/>
  <unicode hex="00A5"/>
  <outline>
    <contour>
      <point x="327" y="0" type="line"/>
      <point x="327" y="154" type="line"/>
      <point x="512" y="154" type="line"/>
      <point x="512" y="202" type="line"/>
      <point x="327" y="202" type="line"/>
      <point x="327" y="315" type="line"/>
      <point x="512" y="315" type="line"/>
      <point x="512" y="363" type="line"/>
      <point x="356" y="363" type="line"/>
      <point x="556" y="698" type="line"/>
      <point x="490" y="698" type="line"/>
      <point x="302" y="369" type="line"/>
      <point x="298" y="369" type="line"/>
      <point x="107" y="698" type="line"/>
      <point x="39" y="698" type="line"/>
      <point x="239" y="363" type="line"/>
      <point x="83" y="363" type="line"/>
      <point x="83" y="315" type="line"/>
      <point x="268" y="315" type="line"/>
      <point x="268" y="202" type="line"/>
      <point x="83" y="202" type="line"/>
      <point x="83" y="154" type="line"/>
      <point x="268" y="154" type="line"/>
      <point x="268" y="0" type="line"/>
    </contour>
  </outline>
</glyph>
<glyph name="section" format="2">
  <advance width="578"/>
  <unicode hex="00A7"/>
  <outline>
    <contour>
      <point x="359" y="138" type="qcurve"/>
      <point x="341" y="146"/>
      <point x="322" y="152" type="qcurve"/>
      <point x="258" y="170" type="line"/>
      <point x="196" y="187"/>
      <point x="136" y="245"/>
      <point x="136" y="294" type="qcurve"/>
      <point x="136" y="373"/>
      <point x="218" y="417" type="qcurve"/>
      <point x="236" y="409"/>
      <point x="255" y="404" type="qcurve"/>
      <point x="319" y="385" type="line"/>
      <point x="382" y="368"/>
      <point x="442" y="310"/>
      <point x="442" y="261" type="qcurve"/>
      <point x="442" y="184"/>
    </contour>
    <contour>
      <point x="274" y="-155" type="qcurve"/>
      <point x="357" y="-155"/>
      <point x="462" y="-75"/>
      <point x="462" y="-3" type="qcurve"/>
      <point x="462" y="81"/>
      <point x="388" y="124" type="qcurve"/>
      <point x="388" y="129" type="line"/>
      <point x="440" y="149"/>
      <point x="498" y="223"/>
      <point x="498" y="275" type="qcurve"/>
      <point x="498" y="332"/>
      <point x="423" y="406"/>
      <point x="347" y="430" type="qcurve"/>
      <point x="283" y="450" type="line"/>
      <point x="233" y="464"/>
      <point x="171" y="513"/>
      <point x="171" y="559" type="qcurve"/>
      <point x="171" y="655"/>
      <point x="302" y="660" type="qcurve"/>
      <point x="381" y="660"/>
      <point x="432" y="614" type="qcurve"/>
      <point x="465" y="654" type="line"/>
      <point x="404" y="710"/>
      <point x="303" y="710" type="qcurve"/>
      <point x="221" y="710"/>
      <point x="115" y="631"/>
      <point x="115" y="559" type="qcurve"/>
      <point x="115" y="479"/>
      <point x="189" y="432" type="qcurve"/>
      <point x="189" y="426" type="line"/>
      <point x="138" y="406"/>
      <point x="80" y="332"/>
      <point x="80" y="281" type="qcurve"/>
      <point x="80" y="223"/>
      <point x="154" y="149"/>
      <point x="229" y="126" type="qcurve"/>
      <point x="294" y="106" type="line"/>
      <point x="344" y="92"/>
      <point x="406" y="42"/>
      <point x="406" y="-4" type="qcurve"/>
      <point x="406" y="-100"/>
      <point x="275" y="-105" type="qcurve"/>
      <point x="198" y="-105"/>
      <point x="145" y="-59" type="qcurve"/>
      <point x="112" y="-99" type="line"/>
      <point x="174" y="-155"/>
    </contour>
  </outline>
</glyph>
<glyph name="dieresis" format="2">
  <advance width="600"/>
  <unicode hex="00A8"/>
  <outline>
    <contour>
      <point x="208" y="627" type="qcurve"/>
      <point x="228" y="627"/>
      <point x="247" y="647"/>
      <point x="247" y="663" type="qcurve"/>
      <point x="247" y="673" type="line"/>
      <point x="247" y="689"/>
      <point x="228" y="709"/>
      <point x="208" y="709" type="qcurve"/>
      <point x="169" y="709"/>
      <point x="169" y="673" type="qcurve"/>
      <point x="169" y="663" type="line"/>
      <point x="169" y="627"/>
    </contour>
    <contour>
      <point x="392" y="627" type="qcurve"/>
      <point x="431" y="627"/>
      <point x="431" y="663" type="qcurve"/>
      <point x="431" y="673" type="line"/>
      <point x="431" y="709"/>
      <point x="392" y="709" type="qcurve"/>
      <point x="372" y="709"/>
      <point x="353" y="689"/>
      <point x="353" y="673" type="qcurve"/>
      <point x="353" y="663" type="line"/>
      <point x="353" y="647"/>
      <point x="372" y="627"/>
    </contour>
  </outline>
</glyph>
<glyph name="copyright" format="2">
  <advance width="748"/>
  <unicode hex="00A9"/>
  <outline>
    <contour>
      <point x="374" y="-11" type="qcurve"/>
      <point x="514" y="-11"/>
      <point x="609" y="86" type="qcurve"/>
      <point x="703" y="186"/>
      <point x="703" y="349" type="qcurve"/>
      <point x="703" y="512"/>
      <point x="609" y="612" type="qcurve"/>
      <point x="514" y="709"/>
      <point x="374" y="709" type="qcurve"/>
      <point x="232" y="709"/>
      <point x="45" y="512"/>
      <point x="45" y="349" type="qcurve"/>
      <point x="45" y="186"/>
      <point x="232" y="-11"/>
    </contour>
    <contour>
      <point x="374" y="32" type="qcurve"/>
      <point x="250" y="32"/>
      <point x="95" y="198"/>
      <point x="95" y="322" type="qcurve"/>
      <point x="95" y="376" type="line"/>
      <point x="95" y="501"/>
      <point x="250" y="666"/>
      <point x="374" y="666" type="qcurve"/>
      <point x="499" y="666"/>
      <point x="653" y="501"/>
      <point x="653" y="376" type="qcurve"/>
      <point x="653" y="322" type="line"/>
      <point x="653" y="198"/>
      <point x="499" y="32"/>
    </contour>
    <contour>
      <point x="377" y="153" type="qcurve"/>
      <point x="428" y="153"/>
      <point x="496" y="201"/>
      <point x="513" y="238" type="qcurve"/>
      <point x="473" y="261" type="line"/>
      <point x="442" y="198"/>
      <point x="378" y="198" type="qcurve"/>
      <point x="278" y="198"/>
      <point x="273" y="324" type="qcurve"/>
      <point x="273" y="371" type="line"/>
      <point x="273" y="431"/>
      <point x="328" y="498"/>
      <point x="378" y="498" type="qcurve"/>
      <point x="446" y="498"/>
      <point x="466" y="437" type="qcurve"/>
      <point x="507" y="458" type="line"/>
      <point x="492" y="497"/>
      <point x="428" y="543"/>
      <point x="378" y="543" type="qcurve"/>
      <point x="303" y="543"/>
      <point x="219" y="440"/>
      <point x="219" y="348" type="qcurve"/>
      <point x="219" y="256"/>
      <point x="303" y="153"/>
    </contour>
  </outline>
</glyph>
<glyph name="ordfeminine" format="2">
  <advance width="361"/>
  <unicode hex="00AA"/>
  <outline>
    <contour>
      <point x="149" y="356" type="qcurve" smooth="yes"/>
      <point x="96" y="356"/>
      <point x="40" y="408"/>
      <point x="40" y="450" type="qcurve" smooth="yes"/>
      <point x="40" y="550"/>
      <point x="177" y="550" type="qcurve" smooth="yes"/>
      <point x="261" y="550" type="line"/>
      <point x="261" y="589" type="line" smooth="yes"/>
      <point x="261" y="671"/>
      <point x="181" y="671" type="qcurve" smooth="yes"/>
      <point x="110" y="671"/>
      <point x="83" y="617" type="qcurve"/>
      <point x="51" y="641" type="line"/>
      <point x="65" y="670"/>
      <point x="128" y="710"/>
      <point x="179" y="710" type="qcurve" smooth="yes"/>
      <point x="239" y="710"/>
      <point x="307" y="649"/>
      <point x="307" y="592" type="qcurve" smooth="yes"/>
      <point x="307" y="363" type="line"/>
      <point x="264" y="363" type="line"/>
      <point x="264" y="414" type="line"/>
      <point x="260" y="414" type="line"/>
      <point x="232" y="356"/>
    </contour>
    <contour>
      <point x="158" y="393" type="qcurve"/>
      <point x="199" y="393"/>
      <point x="261" y="430"/>
      <point x="261" y="466" type="qcurve" smooth="yes"/>
      <point x="261" y="515" type="line"/>
      <point x="179" y="515" type="line" smooth="yes"/>
      <point x="88" y="515"/>
      <point x="87" y="460" type="qcurve"/>
      <point x="87" y="449" type="line" smooth="yes"/>
      <point x="87" y="394"/>
    </contour>
  </outline>
</glyph>
<glyph name="logicalnot" format="2">
  <advance width="600"/>
  <unicode hex="00AC"/>
  <outline>
    <contour>
      <point x="529" y="88" type="line"/>
      <point x="529" y="330" type="line"/>
      <point x="65" y="330" type="line"/>
      <point x="65" y="281" type="line"/>
      <point x="478" y="281" type="line"/>
      <point x="478" y="88" type="line"/>
    </contour>
  </outline>
</glyph>
<glyph name="macron" format="2">
  <advance width="600"/>
  <unicode hex="00AF"/>
  <outline>
    <contour>
      <point x="436" y="645" type="line"/>
      <point x="436" y="694" type="line"/>
      <point x="164" y="694" type="line"/>
      <point x="164" y="645" type="line"/>
    </contour>
  </outline>
</glyph>
<glyph name="degree" format="2">
  <advance width="466"/>
  <unicode hex="00B0"/>
  <outline>
    <contour>
      <point x="233" y="370" type="qcurve"/>
      <point x="305" y="370"/>
      <point x="399" y="468"/>
      <point x="399" y="540" type="qcurve"/>
      <point x="399" y="612"/>
      <point x="305" y="710"/>
      <point x="233" y="710" type="qcurve"/>
      <point x="161" y="710"/>
      <point x="67" y="612"/>
      <point x="67" y="540" type="qcurve"/>
      <point x="67" y="468"/>
      <point x="161" y="370"/>
    </contour>
    <contour>
      <point x="233" y="416" type="qcurve"/>
      <point x="182" y="416"/>
      <point x="118" y="488"/>
      <point x="118" y="540" type="qcurve"/>
      <point x="118" y="590"/>
      <point x="179" y="664"/>
      <point x="233" y="664" type="qcurve"/>
      <point x="287" y="664"/>
      <point x="348" y="590"/>
      <point x="348" y="540" type="qcurve"/>
      <point x="348" y="488"/>
      <point x="284" y="416"/>
    </contour>
  </outline>
</glyph>
<glyph name="threesuperior" format="2">
  <advance width="346"/>
  <unicode hex="00B3"/>
  <outline>
    <contour>
      <point x="161" y="323" type="qcurve"/>
      <point x="224" y="323"/>
      <point x="297" y="382"/>
      <point x="297" y="431" type="qcurve"/>
      <point x="297" y="470"/>
      <point x="252" y="515"/>
      <point x="215" y="521" type="qcurve"/>
      <point x="215" y="524" type="line"/>
      <point x="248" y="531"/>
      <point x="290" y="573"/>
      <point x="290" y="609" type="qcurve"/>
      <point x="290" y="699"/>
      <point x="167" y="704" type="qcurve"/>
      <point x="83" y="704"/>
      <point x="44" y="646" type="qcurve"/>
      <point x="76" y="621" type="line"/>
      <point x="91" y="643"/>
      <point x="133" y="667"/>
      <point x="166" y="667" type="qcurve"/>
      <point x="242" y="667"/>
      <point x="242" y="602" type="qcurve"/>
      <point x="242" y="539"/>
      <point x="157" y="539" type="qcurve"/>
      <point x="114" y="539" type="line"/>
      <point x="114" y="502" type="line"/>
      <point x="162" y="502" type="line"/>
      <point x="249" y="502"/>
      <point x="249" y="441" type="qcurve"/>
      <point x="249" y="431" type="line"/>
      <point x="249" y="398"/>
      <point x="204" y="360"/>
      <point x="161" y="360" type="qcurve"/>
      <point x="123" y="360"/>
      <point x="80" y="388"/>
      <point x="65" y="410" type="qcurve"/>
      <point x="31" y="385" type="line"/>
      <point x="74" y="323"/>
    </contour>
  </outline>
</glyph>
<glyph name="uni00B5" format="2">
  <advance width="570"/>
  <unicode hex="00B5"/>
  <outline>
    <contour>
      <point x="93" y="-200" type="line"/>
      <point x="93" y="512" type="line"/>
      <point x="150" y="512" type="line"/>
      <point x="150" y="194" type="line" smooth="yes"/>
      <point x="150" y="39"/>
      <point x="282" y="39" type="qcurve" smooth="yes"/>
      <point x="336" y="39"/>
      <point x="420" y="96"/>
      <point x="420" y="154" type="qcurve" smooth="yes"/>
      <point x="420" y="512" type="line"/>
      <point x="477" y="512" type="line"/>
      <point x="477" y="0" type="line"/>
      <point x="420" y="0" type="line"/>
      <point x="420" y="81" type="line"/>
      <point x="417" y="81" type="line"/>
      <point x="404" y="43"/>
      <point x="368" y="17" type="qcurve" smooth="yes"/>
      <point x="328" y="-12"/>
      <point x="269" y="-12" type="qcurve" smooth="yes"/>
      <point x="178" y="-12"/>
      <point x="147" y="55" type="qcurve"/>
      <point x="144" y="55" type="line"/>
      <point x="150" y="-45" type="line"/>
      <point x="150" y="-200" type="line"/>
    </contour>
  </outline>
</glyph>
<glyph name="paragraph" format="2">
  <advance width="628"/>
  <unicode hex="00B6"/>
  <outline>
    <contour>
      <point x="472" y="-149" type="line"/>
      <point x="472" y="650" type="line"/>
      <point x="540" y="650" type="line"/>
      <point x="540" y="698" type="line"/>
      <point x="248" y="698" type="line"/>
      <point x="166" y="698"/>
      <point x="110" y="643" type="qcurve"/>
      <point x="52" y="589"/>
      <point x="52" y="505" type="qcurve"/>
      <point x="52" y="421"/>
      <point x="110" y="367" type="qcurve"/>
      <point x="166" y="312"/>
      <point x="248" y="312" type="qcurve"/>
      <point x="248" y="-149" type="line"/>
      <point x="301" y="-149" type="line"/>
      <point x="301" y="650" type="line"/>
      <point x="419" y="650" type="line"/>
      <point x="419" y="-149" type="line"/>
    </contour>
  </outline>
</glyph>
<glyph name="periodcentered" format="2">
  <advance width="316"/>
  <unicode hex="00B7"/>
  <outline>
    <contour>
      <point x="158" y="255" type="qcurve" smooth="yes"/>
      <point x="133" y="255"/>
      <point x="110" y="280"/>
      <point x="110" y="300" type="qcurve" smooth="yes"/>
      <point x="110" y="311" type="line" smooth="yes"/>
      <point x="110" y="331"/>
      <point x="133" y="356"/>
      <point x="158" y="356" type="qcurve" smooth="yes"/>
      <point x="182" y="356"/>
      <point x="206" y="331"/>
      <point x="206" y="311" type="qcurve" smooth="yes"/>
      <point x="206" y="300" type="line" smooth="yes"/>
      <point x="206" y="255"/>
    </contour>
  </outline>
</glyph>
<glyph name="cedilla" format="2">
  <advance width="600"/>
  <unicode hex="00B8"/>
  <outline>
    <contour>
      <point x="311" y="-205" type="qcurve" smooth="yes"/>
      <point x="275" y="-205"/>
      <point x="229" y="-183"/>
      <point x="219" y="-168" type="qcurve"/>
      <point x="247" y="-137" type="line"/>
      <point x="269" y="-165"/>
      <point x="311" y="-165" type="qcurve" smooth="yes"/>
      <point x="333" y="-165"/>
      <point x="361" y="-146"/>
      <point x="361" y="-126" type="qcurve" smooth="yes"/>
      <point x="361" y="-109"/>
      <point x="335" y="-88"/>
      <point x="296" y="-83" type="qcurve"/>
      <point x="265" y="-80" type="line"/>
      <point x="284" y="13" type="line"/>
      <point x="322" y="13" type="line"/>
      <point x="305" y="-66" type="line"/>
      <point x="307" y="-68" type="line"/>
      <point x="327" y="-63"/>
      <point x="343" y="-63" type="qcurve" smooth="yes"/>
      <point x="372" y="-63"/>
      <point x="411" y="-96"/>
      <point x="411" y="-127" type="qcurve" smooth="yes"/>
      <point x="411" y="-164"/>
      <point x="353" y="-205"/>
    </contour>
  </outline>
</glyph>
<glyph name="ordmasculine" format="2">
  <advance width="386"/>
  <unicode hex="00BA"/>
  <outline>
    <contour>
      <point x="193" y="356" type="qcurve" smooth="yes"/>
      <point x="123" y="356"/>
      <point x="45" y="451"/>
      <point x="45" y="534" type="qcurve" smooth="yes"/>
      <point x="45" y="615"/>
      <point x="123" y="710"/>
      <point x="193" y="710" type="qcurve" smooth="yes"/>
      <point x="263" y="710"/>
      <point x="341" y="615"/>
      <point x="341" y="534" type="qcurve" smooth="yes"/>
      <point x="341" y="451"/>
      <point x="263" y="356"/>
    </contour>
    <contour>
      <point x="193" y="395" type="qcurve" smooth="yes"/>
      <point x="242" y="395"/>
      <point x="292" y="460"/>
      <point x="292" y="508" type="qcurve" smooth="yes"/>
      <point x="292" y="559" type="line" smooth="yes"/>
      <point x="292" y="607"/>
      <point x="242" y="671"/>
      <point x="193" y="671" type="qcurve" smooth="yes"/>
      <point x="144" y="671"/>
      <point x="94" y="607"/>
      <point x="94" y="559" type="qcurve" smooth="yes"/>
      <point x="94" y="508" type="line" smooth="yes"/>
      <point x="94" y="460"/>
      <point x="144" y="395"/>
    </contour>
  </outline>
</glyph>
<glyph name="guillemetright" format="2">
  <advance width="497"/>
  <unicode hex="00BB"/>
  <outline>
    <contour>
      <point x="69" y="90" type="line"/>
      <point x="264" y="261" type="line"/>
      <point x="264" y="315" type="line"/>
      <point x="69" y="486" type="line"/>
      <point x="51" y="447" type="line"/>
      <point x="207" y="288" type="line"/>
      <point x="51" y="129" type="line"/>
    </contour>
    <contour>
      <point x="267" y="90" type="line"/>
      <point x="462" y="261" type="line"/>
      <point x="462" y="315" type="line"/>
      <point x="267" y="486" type="line"/>
      <point x="249" y="447" type="line"/>
      <point x="405" y="288" type="line"/>
      <point x="249" y="129" type="line"/>
    </contour>
  </outline>
</glyph>
<glyph name="onequarter" format="2">
  <advance width="801"/>
  <unicode hex="00BC"/>
  <outline>
    <contour>
      <point x="183" y="0" type="line"/>
      <point x="654" y="698" type="line"/>
      <point x="605" y="698" type="line"/>
      <point x="134" y="0" type="line"/>
    </contour>
    <contour>
      <point x="717" y="0" type="line"/>
      <point x="717" y="79" type="line"/>
      <point x="777" y="79" type="line"/>
      <point x="777" y="115" type="line"/>
      <point x="717" y="115" type="line"/>
      <point x="717" y="369" type="line"/>
      <point x="655" y="369" type="line"/>
      <point x="475" y="118" type="line"/>
      <point x="475" y="79" type="line"/>
      <point x="673" y="79" type="line"/>
      <point x="673" y="0" type="line"/>
    </contour>
    <contour>
      <point x="673" y="115" type="line"/>
      <point x="516" y="115" type="line"/>
      <point x="670" y="327" type="line"/>
      <point x="673" y="327" type="line"/>
    </contour>
    <contour>
      <point x="220" y="329" type="line"/>
      <point x="174" y="329" type="line"/>
      <point x="174" y="658" type="line"/>
      <point x="94" y="617" type="line"/>
      <point x="94" y="659" type="line"/>
      <point x="169" y="698" type="line"/>
      <point x="220" y="698" type="line"/>
    </contour>
  </outline>
</glyph>
<glyph name="onehalf" format="2">
  <advance width="815"/>
  <unicode hex="00BD"/>
  <outline>
    <contour>
      <point x="220" y="329" type="line"/>
      <point x="174" y="329" type="line"/>
      <point x="174" y="658" type="line"/>
      <point x="94" y="617" type="line"/>
      <point x="94" y="659" type="line"/>
      <point x="169" y="698" type="line"/>
      <point x="220" y="698" type="line"/>
    </contour>
    <contour>
      <point x="183" y="0" type="line"/>
      <point x="134" y="0" type="line"/>
      <point x="605" y="698" type="line"/>
      <point x="654" y="698" type="line"/>
    </contour>
    <contour>
      <point x="776" y="0" type="line"/>
      <point x="510" y="0" type="line"/>
      <point x="510" y="43" type="line"/>
      <point x="643" y="151" type="line"/>
      <point x="714" y="207"/>
      <point x="714" y="261" type="qcurve"/>
      <point x="714" y="269" type="line"/>
      <point x="714" y="299"/>
      <point x="675" y="337"/>
      <point x="637" y="337" type="qcurve"/>
      <point x="598" y="337"/>
      <point x="556" y="301"/>
      <point x="545" y="271" type="qcurve"/>
      <point x="506" y="285" type="line"/>
      <point x="518" y="322"/>
      <point x="582" y="375"/>
      <point x="640" y="375" type="qcurve"/>
      <point x="700" y="375"/>
      <point x="763" y="314"/>
      <point x="763" y="268" type="qcurve"/>
      <point x="763" y="226"/>
      <point x="713" y="159"/>
      <point x="668" y="124" type="qcurve"/>
      <point x="559" y="37" type="line"/>
      <point x="776" y="37" type="line"/>
    </contour>
  </outline>
</glyph>
<glyph name="threequarters" format="2">
  <advance width="829"/>
  <unicode hex="00BE"/>
  <outline>
    <contour>
      <point x="161" y="323" type="qcurve"/>
      <point x="224" y="323"/>
      <point x="297" y="382"/>
      <point x="297" y="431" type="qcurve"/>
      <point x="297" y="470"/>
      <point x="252" y="515"/>
      <point x="215" y="521" type="qcurve"/>
      <point x="215" y="524" type="line"/>
      <point x="248" y="531"/>
      <point x="290" y="573"/>
      <point x="290" y="609" type="qcurve"/>
      <point x="290" y="699"/>
      <point x="167" y="704" type="qcurve"/>
      <point x="83" y="704"/>
      <point x="44" y="646" type="qcurve"/>
      <point x="76" y="621" type="line"/>
      <point x="91" y="643"/>
      <point x="133" y="667"/>
      <point x="166" y="667" type="qcurve"/>
      <point x="242" y="667"/>
      <point x="242" y="602" type="qcurve"/>
      <point x="242" y="539"/>
      <point x="157" y="539" type="qcurve"/>
      <point x="114" y="539" type="line"/>
      <point x="114" y="502" type="line"/>
      <point x="162" y="502" type="line"/>
      <point x="249" y="502"/>
      <point x="249" y="441" type="qcurve"/>
      <point x="249" y="431" type="line"/>
      <point x="249" y="398"/>
      <point x="204" y="360"/>
      <point x="161" y="360" type="qcurve"/>
      <point x="123" y="360"/>
      <point x="80" y="388"/>
      <point x="65" y="410" type="qcurve"/>
      <point x="31" y="385" type="line"/>
      <point x="74" y="323"/>
    </contour>
    <contour>
      <point x="211" y="0" type="line"/>
      <point x="682" y="698" type="line"/>
      <point x="633" y="698" type="line"/>
      <point x="162" y="0" type="line"/>
    </contour>
    <contour>
      <point x="745" y="0" type="line"/>
      <point x="745" y="79" type="line"/>
      <point x="805" y="79" type="line"/>
      <point x="805" y="115" type="line"/>
      <point x="745" y="115" type="line"/>
      <point x="745" y="369" type="line"/>
      <point x="683" y="369" type="line"/>
      <point x="503" y="118" type="line"/>
      <point x="503" y="79" type="line"/>
      <point x="701" y="79" type="line"/>
      <point x="701" y="0" type="line"/>
    </contour>
    <contour>
      <point x="701" y="115" type="line"/>
      <point x="544" y="115" type="line"/>
      <point x="698" y="327" type="line"/>
      <point x="701" y="327" type="line"/>
    </contour>
  </outline>
</glyph>
<glyph name="questiondown" format="2">
  <advance width="463"/>
  <unicode hex="00BF"/>
  <outline>
    <contour>
      <point x="231" y="-198" type="qcurve"/>
      <point x="320" y="-198"/>
      <point x="422" y="-109"/>
      <point x="440" y="-40" type="qcurve"/>
      <point x="387" y="-21" type="line"/>
      <point x="373" y="-79"/>
      <point x="297" y="-146"/>
      <point x="233" y="-146" type="qcurve"/>
      <point x="170" y="-146"/>
      <point x="98" y="-77"/>
      <point x="98" y="-20" type="qcurve"/>
      <point x="98" y="-1" type="line"/>
      <point x="98" y="66"/>
      <point x="194" y="145"/>
      <point x="282" y="149" type="qcurve"/>
      <point x="282" y="316" type="line"/>
      <point x="227" y="316" type="line"/>
      <point x="227" y="190" type="line"/>
      <point x="147" y="178"/>
      <point x="36" y="79"/>
      <point x="36" y="-13" type="qcurve"/>
      <point x="36" y="-98"/>
      <point x="140" y="-198"/>
    </contour>
    <contour>
      <point x="256" y="420" type="qcurve"/>
      <point x="304" y="420"/>
      <point x="304" y="465" type="qcurve"/>
      <point x="304" y="476" type="line"/>
      <point x="304" y="496"/>
      <point x="280" y="521"/>
      <point x="256" y="521" type="qcurve"/>
      <point x="231" y="521"/>
      <point x="208" y="496"/>
      <point x="208" y="476" type="qcurve"/>
      <point x="208" y="465" type="line"/>
      <point x="208" y="445"/>
      <point x="231" y="420"/>
    </contour>
  </outline>
</glyph>
<glyph name="Agrave" format="2">
  <advance width="625"/>
  <unicode hex="00C0"/>
  <outline>
    <contour>
      <point x="599" y="0" type="line"/>
      <point x="351" y="698" type="line"/>
      <point x="274" y="698" type="line"/>
      <point x="27" y="0" type="line"/>
      <point x="87" y="0" type="line"/>
      <point x="163" y="217" type="line"/>
      <point x="460" y="217" type="line"/>
      <point x="536" y="0" type="line"/>
    </contour>
    <contour>
      <point x="444" y="269" type="line"/>
      <point x="178" y="269" type="line"/>
      <point x="309" y="641" type="line"/>
      <point x="313" y="641" type="line"/>
    </contour>
    <contour>
      <point x="315" y="760" type="line"/>
      <point x="353" y="778" type="line"/>
      <point x="258" y="942" type="line"/>
      <point x="206" y="916" type="line"/>
    </contour>
  </outline>
</glyph>
<glyph name="AE" format="2">
  <advance width="888"/>
  <unicode hex="00C6"/>
  <outline>
    <contour>
      <point x="413" y="0" type="line"/>
      <point x="413" y="216" type="line"/>
      <point x="178" y="216" type="line"/>
      <point x="65" y="0" type="line"/>
      <point x="3" y="0" type="line"/>
      <point x="370" y="698" type="line"/>
      <point x="822" y="698" type="line"/>
      <point x="822" y="645" type="line"/>
      <point x="473" y="645" type="line"/>
      <point x="473" y="381" type="line"/>
      <point x="805" y="381" type="line"/>
      <point x="805" y="328" type="line"/>
      <point x="473" y="328" type="line"/>
      <point x="473" y="53" type="line"/>
      <point x="822" y="53" type="line"/>
      <point x="822" y="0" type="line"/>
    </contour>
    <contour>
      <point x="413" y="645" type="line"/>
      <point x="401" y="645" type="line"/>
      <point x="203" y="269" type="line"/>
      <point x="413" y="269" type="line"/>
    </contour>
  </outline>
</glyph>
<glyph name="Ccedilla" format="2">
  <advance width="617"/>
  <unicode hex="00C7"/>
  <outline>
    <contour>
      <point x="347" y="-205" type="qcurve" smooth="yes"/>
      <point x="311" y="-205"/>
      <point x="265" y="-183"/>
      <point x="255" y="-168" type="qcurve"/>
      <point x="283" y="-137" type="line"/>
      <point x="305" y="-165"/>
      <point x="347" y="-165" type="qcurve" smooth="yes"/>
      <point x="369" y="-165"/>
      <point x="398" y="-146"/>
      <point x="398" y="-126" type="qcurve" smooth="yes"/>
      <point x="398" y="-109"/>
      <point x="371" y="-88"/>
      <point x="332" y="-83" type="qcurve"/>
      <point x="301" y="-80" type="line"/>
      <point x="315" y="-11" type="line"/>
      <point x="194" y="-5"/>
      <point x="63" y="175"/>
      <point x="63" y="347" type="qcurve" smooth="yes"/>
      <point x="63" y="524"/>
      <point x="205" y="710"/>
      <point x="335" y="710" type="qcurve" smooth="yes"/>
      <point x="419" y="710"/>
      <point x="534" y="631"/>
      <point x="566" y="561" type="qcurve"/>
      <point x="517" y="532" type="line"/>
      <point x="494" y="590"/>
      <point x="401" y="656"/>
      <point x="335" y="656" type="qcurve" smooth="yes"/>
      <point x="237" y="656"/>
      <point x="127" y="516"/>
      <point x="127" y="386" type="qcurve" smooth="yes"/>
      <point x="127" y="307" type="line" smooth="yes"/>
      <point x="127" y="178"/>
      <point x="237" y="42"/>
      <point x="335" y="42" type="qcurve" smooth="yes"/>
      <point x="405" y="42"/>
      <point x="499" y="112"/>
      <point x="522" y="173" type="qcurve"/>
      <point x="571" y="144" type="line"/>
      <point x="511" y="2"/>
      <point x="353" y="-11" type="qcurve"/>
      <point x="341" y="-66" type="line"/>
      <point x="343" y="-68" type="line"/>
      <point x="363" y="-63"/>
      <point x="379" y="-63" type="qcurve" smooth="yes"/>
      <point x="408" y="-63"/>
      <point x="447" y="-96"/>
      <point x="447" y="-127" type="qcurve" smooth="yes"/>
      <point x="447" y="-164"/>
      <point x="389" y="-205"/>
    </contour>
  </outline>
</glyph>
<glyph name="Ecircumflex" format="2">
  <advance width="574"/>
  <unicode hex="00CA"/>
  <outline>
    <contour>
      <point x="507" y="0" type="line"/>
      <point x="507" y="53" type="line"/>
      <point x="159" y="53" type="line"/>
      <point x="159" y="328" type="line"/>
      <point x="490" y="328" type="line"/>
      <point x="490" y="381" type="line"/>
      <point x="159" y="381" type="line"/>
      <point x="159" y="645" type="line"/>
      <point x="507" y="645" type="line"/>
      <point x="507" y="698" type="line"/>
      <point x="99" y="698" type="line"/>
      <point x="99" y="0" type="line"/>
    </contour>
    <contour>
      <point x="423" y="768" type="line"/>
      <point x="455" y="791" type="line"/>
      <point x="337" y="930" type="line"/>
      <point x="267" y="930" type="line"/>
      <point x="149" y="791" type="line"/>
      <point x="181" y="768" type="line"/>
      <point x="302" y="888" type="line"/>
    </contour>
  </outline>
</glyph>
<glyph name="Igrave" format="2">
  <advance width="278"/>
  <unicode hex="00CC"/>
  <outline>
    <contour>
      <point x="141" y="760" type="line"/>
      <point x="179" y="778" type="line"/>
      <point x="84" y="942" type="line"/>
      <point x="32" y="916" type="line"/>
    </contour>
    <contour>
      <point x="169" y="0" type="line"/>
      <point x="169" y="698" type="line"/>
      <point x="109" y="698" type="line"/>
      <point x="109" y="0" type="line"/>
    </contour>
  </outline>
</glyph>
<glyph name="Icircumflex" format="2">
  <advance width="278"/>
  <unicode hex="00CE"/>
  <outline>
    <contour>
      <point x="139" y="888" type="line"/>
      <point x="18" y="768" type="line"/>
      <point x="-14" y="791" type="line"/>
      <point x="104" y="930" type="line"/>
      <point x="174" y="930" type="line"/>
      <point x="292" y="791" type="line"/>
      <point x="260" y="768" type="line"/>
    </contour>
    <contour>
      <point x="109" y="0" type="line"/>
      <point x="109" y="698" type="line"/>
      <point x="169" y="698" type="line"/>
      <point x="169" y="0" type="line"/>
    </contour>
  </outline>
</glyph>
<glyph name="Ograve" format="2">
  <advance width="697"/>
  <unicode hex="00D2"/>
  <outline>
    <contour>
      <point x="349" y="-12" type="qcurve"/>
      <point x="482" y="-12"/>
      <point x="634" y="172"/>
      <point x="634" y="349" type="qcurve"/>
      <point x="634" y="526"/>
      <point x="482" y="710"/>
      <point x="349" y="710" type="qcurve"/>
      <point x="215" y="710"/>
      <point x="63" y="527"/>
      <point x="63" y="349" type="qcurve"/>
      <point x="63" y="171"/>
      <point x="215" y="-12"/>
    </contour>
    <contour>
      <point x="349" y="42" type="qcurve"/>
      <point x="249" y="42"/>
      <point x="127" y="181"/>
      <point x="127" y="305" type="qcurve"/>
      <point x="127" y="393" type="line"/>
      <point x="127" y="518"/>
      <point x="249" y="656"/>
      <point x="349" y="656" type="qcurve"/>
      <point x="450" y="656"/>
      <point x="570" y="518"/>
      <point x="570" y="393" type="qcurve"/>
      <point x="570" y="305" type="line"/>
      <point x="570" y="181"/>
      <point x="450" y="42"/>
    </contour>
    <contour>
      <point x="351" y="760" type="line"/>
      <point x="389" y="778" type="line"/>
      <point x="294" y="942" type="line"/>
      <point x="242" y="916" type="line"/>
    </contour>
  </outline>
</glyph>
<glyph name="Oacute" format="2">
  <advance width="697"/>
  <unicode hex="00D3"/>
  <outline>
    <contour>
      <point x="349" y="-12" type="qcurve"/>
      <point x="482" y="-12"/>
      <point x="634" y="172"/>
      <point x="634" y="349" type="qcurve"/>
      <point x="634" y="526"/>
      <point x="482" y="710"/>
      <point x="349" y="710" type="qcurve"/>
      <point x="215" y="710"/>
      <point x="63" y="527"/>
      <point x="63" y="349" type="qcurve"/>
      <point x="63" y="171"/>
      <point x="215" y="-12"/>
    </contour>
    <contour>
      <point x="349" y="42" type="qcurve"/>
      <point x="249" y="42"/>
      <point x="127" y="181"/>
      <point x="127" y="305" type="qcurve"/>
      <point x="127" y="393" type="line"/>
      <point x="127" y="518"/>
      <point x="249" y="656"/>
      <point x="349" y="656" type="qcurve"/>
      <point x="450" y="656"/>
      <point x="570" y="518"/>
      <point x="570" y="393" type="qcurve"/>
      <point x="570" y="305" type="line"/>
      <point x="570" y="181"/>
      <point x="450" y="42"/>
    </contour>
    <contour>
      <point x="346" y="760" type="line"/>
      <point x="456" y="916" type="line"/>
      <point x="404" y="942" type="line"/>
      <point x="309" y="778" type="line"/>
    </contour>
  </outline>
</glyph>
<glyph name="Otilde" format="2">
  <advance width="697"/>
  <unicode hex="00D5"/>
  <outline>
    <contour>
      <point x="349" y="-12" type="qcurve"/>
      <point x="482" y="-12"/>
      <point x="634" y="172"/>
      <point x="634" y="349" type="qcurve"/>
      <point x="634" y="526"/>
      <point x="482" y="710"/>
      <point x="349" y="710" type="qcurve"/>
      <point x="215" y="710"/>
      <point x="63" y="527"/>
      <point x="63" y="349" type="qcurve"/>
      <point x="63" y="171"/>
      <point x="215" y="-12"/>
    </contour>
    <contour>
      <point x="349" y="42" type="qcurve"/>
      <point x="249" y="42"/>
      <point x="127" y="181"/>
      <point x="127" y="305" type="qcurve"/>
      <point x="127" y="393" type="line"/>
      <point x="127" y="518"/>
      <point x="249" y="656"/>
      <point x="349" y="656" type="qcurve"/>
      <point x="450" y="656"/>
      <point x="570" y="518"/>
      <point x="570" y="393" type="qcurve"/>
      <point x="570" y="305" type="line"/>
      <point x="570" y="181"/>
      <point x="450" y="42"/>
    </contour>
    <contour>
      <point x="421" y="792" type="qcurve"/>
      <point x="474" y="792"/>
      <point x="510" y="840" type="qcurve"/>
      <point x="485" y="869" type="line"/>
      <point x="459" y="840"/>
      <point x="424" y="840" type="qcurve"/>
      <point x="396" y="840"/>
      <point x="356" y="864" type="qcurve"/>
      <point x="335" y="876"/>
      <point x="299" y="892"/>
      <point x="277" y="892" type="qcurve"/>
      <point x="224" y="892"/>
      <point x="188" y="844" type="qcurve"/>
      <point x="213" y="815" type="line"/>
      <point x="240" y="844"/>
      <point x="274" y="844" type="qcurve"/>
      <point x="303" y="844"/>
      <point x="342" y="820" type="qcurve"/>
      <point x="363" y="808"/>
      <point x="399" y="792"/>
    </contour>
  </outline>
</glyph>
<glyph name="Odieresis" format="2">
  <advance width="697"/>
  <unicode hex="00D6"/>
  <outline>
    <contour>
      <point x="257" y="800" type="qcurve" smooth="yes"/>
      <point x="236" y="800"/>
      <point x="217" y="821"/>
      <point x="217" y="837" type="qcurve" smooth="yes"/>
      <point x="217" y="847" type="line" smooth="yes"/>
      <point x="217" y="863"/>
      <point x="236" y="884"/>
      <point x="257" y="884" type="qcurve" smooth="yes"/>
      <point x="277" y="884"/>
      <point x="296" y="863"/>
      <point x="296" y="847" type="qcurve" smooth="yes"/>
      <point x="296" y="837" type="line" smooth="yes"/>
      <point x="296" y="821"/>
      <point x="277" y="800"/>
    </contour>
    <contour>
      <point x="441" y="800" type="qcurve" smooth="yes"/>
      <point x="421" y="800"/>
      <point x="402" y="821"/>
      <point x="402" y="837" type="qcurve" smooth="yes"/>
      <point x="402" y="847" type="line" smooth="yes"/>
      <point x="402" y="863"/>
      <point x="421" y="884"/>
      <point x="441" y="884" type="qcurve" smooth="yes"/>
      <point x="462" y="884"/>
      <point x="481" y="863"/>
      <point x="481" y="847" type="qcurve" smooth="yes"/>
      <point x="481" y="837" type="line" smooth="yes"/>
      <point x="481" y="821"/>
      <point x="462" y="800"/>
    </contour>
    <contour>
      <point x="349" y="-12" type="qcurve" smooth="yes"/>
      <point x="215" y="-12"/>
      <point x="63" y="171"/>
      <point x="63" y="349" type="qcurve" smooth="yes"/>
      <point x="63" y="527"/>
      <point x="215" y="710"/>
      <point x="349" y="710" type="qcurve" smooth="yes"/>
      <point x="482" y="710"/>
      <point x="634" y="526"/>
      <point x="634" y="349" type="qcurve" smooth="yes"/>
      <point x="634" y="172"/>
      <point x="482" y="-12"/>
    </contour>
    <contour>
      <point x="349" y="42" type="qcurve" smooth="yes"/>
      <point x="450" y="42"/>
      <point x="570" y="181"/>
      <point x="570" y="305" type="qcurve" smooth="yes"/>
      <point x="570" y="393" type="line" smooth="yes"/>
      <point x="570" y="518"/>
      <point x="450" y="656"/>
      <point x="349" y="656" type="qcurve" smooth="yes"/>
      <point x="249" y="656"/>
      <point x="127" y="518"/>
      <point x="127" y="393" type="qcurve" smooth="yes"/>
      <point x="127" y="305" type="line" smooth="yes"/>
      <point x="127" y="181"/>
      <point x="249" y="42"/>
    </contour>
  </outline>
</glyph>
<glyph name="multiply" format="2">
  <advance width="600"/>
  <unicode hex="00D7"/>
  <outline>
    <contour>
      <point x="468" y="100" type="line"/>
      <point x="503" y="135" type="line"/>
      <point x="335" y="305" type="line"/>
      <point x="503" y="475" type="line"/>
      <point x="468" y="510" type="line"/>
      <point x="300" y="340" type="line"/>
      <point x="132" y="510" type="line"/>
      <point x="97" y="475" type="line"/>
      <point x="265" y="305" type="line"/>
      <point x="97" y="135" type="line"/>
      <point x="132" y="100" type="line"/>
      <point x="300" y="270" type="line"/>
    </contour>
  </outline>
</glyph>
<glyph name="Ucircumflex" format="2">
  <advance width="668"/>
  <unicode hex="00DB"/>
  <outline>
    <contour>
      <point x="332" y="888" type="line"/>
      <point x="211" y="768" type="line"/>
      <point x="179" y="791" type="line"/>
      <point x="297" y="930" type="line"/>
      <point x="367" y="930" type="line"/>
      <point x="485" y="791" type="line"/>
      <point x="453" y="768" type="line"/>
    </contour>
    <contour>
      <point x="332" y="-12" type="qcurve" smooth="yes"/>
      <point x="199" y="-12"/>
      <point x="93" y="126"/>
      <point x="93" y="280" type="qcurve" smooth="yes"/>
      <point x="93" y="698" type="line"/>
      <point x="153" y="698" type="line"/>
      <point x="153" y="267" type="line" smooth="yes"/>
      <point x="153" y="152"/>
      <point x="232" y="42"/>
      <point x="334" y="42" type="qcurve" smooth="yes"/>
      <point x="436" y="42"/>
      <point x="515" y="152"/>
      <point x="515" y="267" type="qcurve" smooth="yes"/>
      <point x="515" y="698" type="line"/>
      <point x="575" y="698" type="line"/>
      <point x="575" y="280" type="line" smooth="yes"/>
      <point x="575" y="126"/>
      <point x="466" y="-12"/>
    </contour>
  </outline>
</glyph>
<glyph name="Thorn" format="2">
  <advance width="601"/>
  <unicode hex="00DE"/>
  <outline>
    <contour>
      <point x="159" y="0" type="line"/>
      <point x="159" y="159" type="line"/>
      <point x="373" y="159" type="line"/>
      <point x="464" y="159"/>
      <point x="560" y="264"/>
      <point x="560" y="354" type="qcurve"/>
      <point x="560" y="444"/>
      <point x="464" y="549"/>
      <point x="373" y="549" type="qcurve"/>
      <point x="159" y="549" type="line"/>
      <point x="159" y="698" type="line"/>
      <point x="99" y="698" type="line"/>
      <point x="99" y="0" type="line"/>
    </contour>
    <contour>
      <point x="373" y="212" type="qcurve"/>
      <point x="159" y="212" type="line"/>
      <point x="159" y="496" type="line"/>
      <point x="373" y="496" type="line"/>
      <point x="433" y="496"/>
      <point x="496" y="429"/>
      <point x="496" y="377" type="qcurve"/>
      <point x="496" y="331" type="line"/>
      <point x="496" y="279"/>
      <point x="433" y="212"/>
    </contour>
  </outline>
</glyph>
<glyph name="germandbls" format="2">
  <advance width="642"/>
  <unicode hex="00DF"/>
  <outline>
    <contour>
      <point x="433" y="-12" type="qcurve" smooth="yes"/>
      <point x="309" y="-12"/>
      <point x="250" y="76" type="qcurve"/>
      <point x="290" y="109" type="line"/>
      <point x="342" y="37"/>
      <point x="436" y="37" type="qcurve"/>
      <point x="551" y="40"/>
      <point x="551" y="134" type="qcurve" smooth="yes"/>
      <point x="551" y="214"/>
      <point x="466" y="229" type="qcurve"/>
      <point x="430" y="237" type="line" smooth="yes"/>
      <point x="369" y="250"/>
      <point x="293" y="310"/>
      <point x="293" y="376" type="qcurve" smooth="yes"/>
      <point x="293" y="445"/>
      <point x="395" y="515"/>
      <point x="481" y="516" type="qcurve"/>
      <point x="481" y="525" type="line" smooth="yes"/>
      <point x="481" y="703"/>
      <point x="329" y="703" type="qcurve"/>
      <point x="178" y="701"/>
      <point x="178" y="525" type="qcurve" smooth="yes"/>
      <point x="178" y="0" type="line"/>
      <point x="121" y="0" type="line"/>
      <point x="121" y="462" type="line"/>
      <point x="33" y="462" type="line"/>
      <point x="33" y="512" type="line"/>
      <point x="121" y="512" type="line"/>
      <point x="121" y="521" type="line" smooth="yes"/>
      <point x="121" y="625"/>
      <point x="229" y="752"/>
      <point x="329" y="752" type="qcurve" smooth="yes"/>
      <point x="427" y="752"/>
      <point x="483" y="689" type="qcurve"/>
      <point x="537" y="625"/>
      <point x="537" y="521" type="qcurve" smooth="yes"/>
      <point x="537" y="471" type="line"/>
      <point x="502" y="471" type="line" smooth="yes"/>
      <point x="432" y="471"/>
      <point x="348" y="428"/>
      <point x="348" y="379" type="qcurve" smooth="yes"/>
      <point x="348" y="337"/>
      <point x="393" y="298"/>
      <point x="438" y="288" type="qcurve" smooth="yes"/>
      <point x="473" y="280" type="line" smooth="yes"/>
      <point x="540" y="264"/>
      <point x="606" y="200"/>
      <point x="606" y="140" type="qcurve" smooth="yes"/>
      <point x="606" y="68"/>
      <point x="514" y="-12"/>
    </contour>
  </outline>
</glyph>
<glyph name="atilde" format="2">
  <advance width="520"/>
  <unicode hex="00E3"/>
  <outline>
    <contour>
      <point x="324" y="618" type="qcurve" smooth="yes"/>
      <point x="301" y="618"/>
      <point x="265" y="634"/>
      <point x="222" y="660"/>
      <point x="191" y="671"/>
      <point x="177" y="671" type="qcurve" smooth="yes"/>
      <point x="160" y="671"/>
      <point x="131" y="655"/>
      <point x="116" y="641" type="qcurve"/>
      <point x="91" y="670" type="line"/>
      <point x="127" y="718"/>
      <point x="180" y="718" type="qcurve" smooth="yes"/>
      <point x="203" y="718"/>
      <point x="239" y="702"/>
      <point x="282" y="676"/>
      <point x="313" y="665"/>
      <point x="327" y="665" type="qcurve" smooth="yes"/>
      <point x="344" y="665"/>
      <point x="373" y="681"/>
      <point x="388" y="695" type="qcurve"/>
      <point x="413" y="666" type="line"/>
      <point x="377" y="618"/>
    </contour>
    <contour>
      <point x="220" y="-12" type="qcurve" smooth="yes"/>
      <point x="139" y="-12"/>
      <point x="51" y="67"/>
      <point x="51" y="139" type="qcurve" smooth="yes"/>
      <point x="51" y="287"/>
      <point x="259" y="287" type="qcurve" smooth="yes"/>
      <point x="377" y="287" type="line"/>
      <point x="377" y="347" type="line" smooth="yes"/>
      <point x="377" y="474"/>
      <point x="248" y="474" type="qcurve"/>
      <point x="246" y="474" type="line"/>
      <point x="150" y="474"/>
      <point x="106" y="391" type="qcurve"/>
      <point x="70" y="421" type="line"/>
      <point x="117" y="524"/>
      <point x="248" y="524" type="qcurve" smooth="yes"/>
      <point x="428" y="524"/>
      <point x="434" y="353" type="qcurve"/>
      <point x="434" y="0" type="line"/>
      <point x="380" y="0" type="line"/>
      <point x="380" y="81" type="line"/>
      <point x="375" y="81" type="line"/>
      <point x="358" y="38"/>
      <point x="280" y="-12"/>
    </contour>
    <contour>
      <point x="228" y="37" type="qcurve" smooth="yes"/>
      <point x="290" y="37"/>
      <point x="377" y="97"/>
      <point x="377" y="149" type="qcurve" smooth="yes"/>
      <point x="377" y="244" type="line"/>
      <point x="257" y="244" type="line" smooth="yes"/>
      <point x="111" y="244"/>
      <point x="111" y="152" type="qcurve" smooth="yes"/>
      <point x="111" y="128" type="line" smooth="yes"/>
      <point x="111" y="83"/>
      <point x="175" y="37"/>
    </contour>
  </outline>
</glyph>
<glyph name="aring" format="2">
  <advance width="520"/>
  <unicode hex="00E5"/>
  <outline>
    <contour>
      <point x="252" y="581" type="qcurve" smooth="yes"/>
      <point x="206" y="581"/>
      <point x="146" y="640"/>
      <point x="146" y="687" type="qcurve" smooth="yes"/>
      <point x="146" y="733"/>
      <point x="206" y="792"/>
      <point x="252" y="792" type="qcurve" smooth="yes"/>
      <point x="298" y="792"/>
      <point x="358" y="733"/>
      <point x="358" y="687" type="qcurve" smooth="yes"/>
      <point x="358" y="640"/>
      <point x="298" y="581"/>
    </contour>
    <contour>
      <point x="252" y="618" type="qcurve"/>
      <point x="315" y="623"/>
      <point x="315" y="678" type="qcurve" smooth="yes"/>
      <point x="315" y="695" type="line"/>
      <point x="311" y="755"/>
      <point x="252" y="755" type="qcurve"/>
      <point x="189" y="754"/>
      <point x="189" y="695" type="qcurve" smooth="yes"/>
      <point x="189" y="678" type="line"/>
      <point x="194" y="618"/>
    </contour>
    <contour>
      <point x="220" y="-12" type="qcurve" smooth="yes"/>
      <point x="139" y="-12"/>
      <point x="51" y="67"/>
      <point x="51" y="139" type="qcurve" smooth="yes"/>
      <point x="51" y="287"/>
      <point x="259" y="287" type="qcurve" smooth="yes"/>
      <point x="377" y="287" type="line"/>
      <point x="377" y="347" type="line" smooth="yes"/>
      <point x="377" y="474"/>
      <point x="248" y="474" type="qcurve"/>
      <point x="246" y="474" type="line"/>
      <point x="150" y="474"/>
      <point x="106" y="391" type="qcurve"/>
      <point x="70" y="421" type="line"/>
      <point x="117" y="524"/>
      <point x="248" y="524" type="qcurve" smooth="yes"/>
      <point x="428" y="524"/>
      <point x="434" y="353" type="qcurve"/>
      <point x="434" y="0" type="line"/>
      <point x="380" y="0" type="line"/>
      <point x="380" y="81" type="line"/>
      <point x="375" y="81" type="line"/>
      <point x="358" y="38"/>
      <point x="280" y="-12"/>
    </contour>
    <contour>
      <point x="228" y="37" type="qcurve" smooth="yes"/>
      <point x="290" y="37"/>
      <point x="377" y="97"/>
      <point x="377" y="149" type="qcurve" smooth="yes"/>
      <point x="377" y="244" type="line"/>
      <point x="257" y="244" type="line" smooth="yes"/>
      <point x="111" y="244"/>
      <point x="111" y="152" type="qcurve" smooth="yes"/>
      <point x="111" y="128" type="line" smooth="yes"/>
      <point x="111" y="83"/>
      <point x="175" y="37"/>
    </contour>
  </outline>
</glyph>
<glyph name="ccedilla" format="2">
  <advance width="496"/>
  <unicode hex="00E7"/>
  <outline>
    <contour>
      <point x="284" y="-205" type="qcurve"/>
      <point x="326" y="-205"/>
      <point x="384" y="-164"/>
      <point x="384" y="-127" type="qcurve"/>
      <point x="384" y="-96"/>
      <point x="345" y="-63"/>
      <point x="316" y="-63" type="qcurve"/>
      <point x="300" y="-63"/>
      <point x="280" y="-68" type="qcurve"/>
      <point x="278" y="-66" type="line"/>
      <point x="290" y="-11" type="line"/>
      <point x="417" y="0"/>
      <point x="462" y="100" type="qcurve"/>
      <point x="420" y="128" type="line"/>
      <point x="375" y="39"/>
      <point x="273" y="39" type="qcurve"/>
      <point x="195" y="39"/>
      <point x="113" y="139"/>
      <point x="113" y="220" type="qcurve"/>
      <point x="113" y="292" type="line"/>
      <point x="113" y="373"/>
      <point x="195" y="473"/>
      <point x="273" y="473" type="qcurve"/>
      <point x="371" y="473"/>
      <point x="407" y="387" type="qcurve"/>
      <point x="455" y="412" type="line"/>
      <point x="405" y="524"/>
      <point x="273" y="524" type="qcurve"/>
      <point x="167" y="524"/>
      <point x="52" y="384"/>
      <point x="52" y="256" type="qcurve"/>
      <point x="52" y="135"/>
      <point x="155" y="-3"/>
      <point x="252" y="-11" type="qcurve"/>
      <point x="238" y="-80" type="line"/>
      <point x="269" y="-83" type="line"/>
      <point x="308" y="-88"/>
      <point x="335" y="-109"/>
      <point x="335" y="-126" type="qcurve"/>
      <point x="335" y="-146"/>
      <point x="306" y="-165"/>
      <point x="284" y="-165" type="qcurve"/>
      <point x="242" y="-165"/>
      <point x="220" y="-137" type="qcurve"/>
      <point x="192" y="-168" type="line"/>
      <point x="202" y="-183"/>
      <point x="248" y="-205"/>
    </contour>
  </outline>
</glyph>
<glyph name="eacute" format="2">
  <advance width="543"/>
  <unicode hex="00E9"/>
  <outline>
    <contour>
      <point x="276" y="-12" type="qcurve"/>
      <point x="349" y="-12"/>
      <point x="452" y="55"/>
      <point x="476" y="113" type="qcurve"/>
      <point x="434" y="141" type="line"/>
      <point x="392" y="38"/>
      <point x="279" y="38" type="qcurve"/>
      <point x="201" y="38"/>
      <point x="112" y="141"/>
      <point x="112" y="220" type="qcurve"/>
      <point x="112" y="245" type="line"/>
      <point x="491" y="245" type="line"/>
      <point x="491" y="272" type="line"/>
      <point x="491" y="385"/>
      <point x="373" y="524"/>
      <point x="275" y="524" type="qcurve"/>
      <point x="173" y="524"/>
      <point x="52" y="382"/>
      <point x="52" y="256" type="qcurve"/>
      <point x="52" y="130"/>
      <point x="174" y="-12"/>
    </contour>
    <contour>
      <point x="429" y="289" type="line"/>
      <point x="112" y="289" type="line"/>
      <point x="112" y="374"/>
      <point x="202" y="476"/>
      <point x="275" y="476" type="qcurve"/>
      <point x="343" y="476"/>
      <point x="387" y="427" type="qcurve"/>
      <point x="429" y="377"/>
      <point x="429" y="297" type="qcurve"/>
    </contour>
    <contour>
      <point x="273" y="586" type="line"/>
      <point x="383" y="742" type="line"/>
      <point x="331" y="768" type="line"/>
      <point x="236" y="604" type="line"/>
    </contour>
  </outline>
</glyph>
<glyph name="iacute" format="2">
  <advance width="243"/>
  <unicode hex="00ED"/>
  <outline>
    <contour>
      <point x="150" y="0" type="line"/>
      <point x="150" y="512" type="line"/>
      <point x="93" y="512" type="line"/>
      <point x="93" y="0" type="line"/>
    </contour>
    <contour>
      <point x="119" y="586" type="line"/>
      <point x="229" y="742" type="line"/>
      <point x="177" y="768" type="line"/>
      <point x="82" y="604" type="line"/>
    </contour>
  </outline>
</glyph>
<glyph name="icircumflex" format="2">
  <advance width="243"/>
  <unicode hex="00EE"/>
  <outline>
    <contour>
      <point x="150" y="0" type="line"/>
      <point x="150" y="512" type="line"/>
      <point x="93" y="512" type="line"/>
      <point x="93" y="0" type="line"/>
    </contour>
    <contour>
      <point x="243" y="594" type="line"/>
      <point x="275" y="617" type="line"/>
      <point x="157" y="756" type="line"/>
      <point x="87" y="756" type="line"/>
      <point x="-31" y="617" type="line"/>
      <point x="1" y="594" type="line"/>
      <point x="122" y="715" type="line"/>
    </contour>
  </outline>
</glyph>
<glyph name="idieresis" format="2">
  <advance width="243"/>
  <unicode hex="00EF"/>
  <outline>
    <contour>
      <point x="150" y="0" type="line"/>
      <point x="150" y="512" type="line"/>
      <point x="93" y="512" type="line"/>
      <point x="93" y="0" type="line"/>
    </contour>
    <contour>
      <point x="30" y="627" type="qcurve"/>
      <point x="50" y="627"/>
      <point x="69" y="647"/>
      <point x="69" y="663" type="qcurve"/>
      <point x="69" y="673" type="line"/>
      <point x="69" y="689"/>
      <point x="50" y="709"/>
      <point x="30" y="709" type="qcurve"/>
      <point x="-9" y="709"/>
      <point x="-9" y="673" type="qcurve"/>
      <point x="-9" y="663" type="line"/>
      <point x="-9" y="627"/>
    </contour>
    <contour>
      <point x="214" y="627" type="qcurve"/>
      <point x="253" y="627"/>
      <point x="253" y="663" type="qcurve"/>
      <point x="253" y="673" type="line"/>
      <point x="253" y="709"/>
      <point x="214" y="709" type="qcurve"/>
      <point x="194" y="709"/>
      <point x="175" y="689"/>
      <point x="175" y="673" type="qcurve"/>
      <point x="175" y="663" type="line"/>
      <point x="175" y="647"/>
      <point x="194" y="627"/>
    </contour>
  </outline>
</glyph>
<glyph name="odieresis" format="2">
  <advance width="550"/>
  <unicode hex="00F6"/>
  <outline>
    <contour>
      <point x="275" y="-12" type="qcurve"/>
      <point x="377" y="-12"/>
      <point x="498" y="130"/>
      <point x="498" y="256" type="qcurve"/>
      <point x="498" y="382"/>
      <point x="377" y="524"/>
      <point x="275" y="524" type="qcurve"/>
      <point x="173" y="524"/>
      <point x="52" y="382"/>
      <point x="52" y="256" type="qcurve"/>
      <point x="52" y="130"/>
      <point x="173" y="-12"/>
    </contour>
    <contour>
      <point x="275" y="39" type="qcurve"/>
      <point x="200" y="39"/>
      <point x="113" y="134"/>
      <point x="113" y="224" type="qcurve"/>
      <point x="113" y="288" type="line"/>
      <point x="113" y="379"/>
      <point x="200" y="473"/>
      <point x="275" y="473" type="qcurve"/>
      <point x="350" y="473"/>
      <point x="437" y="378"/>
      <point x="437" y="288" type="qcurve"/>
      <point x="437" y="224" type="line"/>
      <point x="437" y="133"/>
      <point x="350" y="39"/>
    </contour>
    <contour>
      <point x="184" y="627" type="qcurve"/>
      <point x="204" y="627"/>
      <point x="223" y="647"/>
      <point x="223" y="663" type="qcurve"/>
      <point x="223" y="673" type="line"/>
      <point x="223" y="689"/>
      <point x="204" y="709"/>
      <point x="184" y="709" type="qcurve"/>
      <point x="145" y="709"/>
      <point x="145" y="673" type="qcurve"/>
      <point x="145" y="663" type="line"/>
      <point x="145" y="627"/>
    </contour>
    <contour>
      <point x="368" y="627" type="qcurve"/>
      <point x="407" y="627"/>
      <point x="407" y="663" type="qcurve"/>
      <point x="407" y="673" type="line"/>
      <point x="407" y="709"/>
      <point x="368" y="709" type="qcurve"/>
      <point x="348" y="709"/>
      <point x="329" y="689"/>
      <point x="329" y="673" type="qcurve"/>
      <point x="329" y="663" type="line"/>
      <point x="329" y="647"/>
      <point x="348" y="627"/>
    </contour>
  </outline>
</glyph>
<glyph name="oslash" format="2">
  <advance width="556"/>
  <unicode hex="00F8"/>
  <outline>
    <contour>
      <point x="69" y="-35" type="line"/>
      <point x="131" y="43" type="line"/>
      <point x="190" y="-12"/>
      <point x="278" y="-12" type="qcurve"/>
      <point x="380" y="-12"/>
      <point x="501" y="130"/>
      <point x="501" y="256" type="qcurve"/>
      <point x="501" y="370"/>
      <point x="451" y="439" type="qcurve"/>
      <point x="521" y="526" type="line"/>
      <point x="489" y="551" type="line"/>
      <point x="424" y="470" type="line"/>
      <point x="365" y="524"/>
      <point x="278" y="524" type="qcurve"/>
      <point x="176" y="524"/>
      <point x="55" y="382"/>
      <point x="55" y="256" type="qcurve"/>
      <point x="55" y="142"/>
      <point x="104" y="74" type="qcurve"/>
      <point x="36" y="-10" type="line"/>
    </contour>
    <contour>
      <point x="278" y="39" type="qcurve"/>
      <point x="206" y="39"/>
      <point x="164" y="83" type="qcurve"/>
      <point x="416" y="396" type="line"/>
      <point x="440" y="354"/>
      <point x="440" y="288" type="qcurve"/>
      <point x="440" y="224" type="line"/>
      <point x="440" y="133"/>
      <point x="353" y="39"/>
    </contour>
    <contour>
      <point x="139" y="117" type="line"/>
      <point x="116" y="161"/>
      <point x="116" y="224" type="qcurve"/>
      <point x="116" y="288" type="line"/>
      <point x="116" y="379"/>
      <point x="203" y="473"/>
      <point x="278" y="473" type="qcurve"/>
      <point x="350" y="473"/>
      <point x="391" y="430" type="qcurve"/>
    </contour>
  </outline>
</glyph>
<glyph name="ucircumflex" format="2">
  <advance width="563"/>
  <unicode hex="00FB"/>
  <outline>
    <contour>
      <point x="260" y="-12" type="qcurve"/>
      <point x="320" y="-12"/>
      <point x="360" y="17" type="qcurve"/>
      <point x="396" y="43"/>
      <point x="409" y="81" type="qcurve"/>
      <point x="413" y="81" type="line"/>
      <point x="413" y="0" type="line"/>
      <point x="470" y="0" type="line"/>
      <point x="470" y="512" type="line"/>
      <point x="413" y="512" type="line"/>
      <point x="413" y="153" type="line"/>
      <point x="413" y="95"/>
      <point x="329" y="39"/>
      <point x="275" y="39" type="qcurve"/>
      <point x="143" y="39"/>
      <point x="143" y="194" type="qcurve"/>
      <point x="143" y="512" type="line"/>
      <point x="86" y="512" type="line"/>
      <point x="86" y="183" type="line"/>
      <point x="86" y="89"/>
      <point x="178" y="-12"/>
    </contour>
    <contour>
      <point x="400" y="594" type="line"/>
      <point x="432" y="617" type="line"/>
      <point x="314" y="756" type="line"/>
      <point x="244" y="756" type="line"/>
      <point x="126" y="617" type="line"/>
      <point x="158" y="594" type="line"/>
      <point x="279" y="715" type="line"/>
    </contour>
  </outline>
</glyph>
<glyph name="udieresis" format="2">
  <advance width="563"/>
  <unicode hex="00FC"/>
  <outline>
    <contour>
      <point x="187" y="627" type="qcurve" smooth="yes"/>
      <point x="148" y="627"/>
      <point x="148" y="663" type="qcurve" smooth="yes"/>
      <point x="148" y="673" type="line" smooth="yes"/>
      <point x="148" y="709"/>
      <point x="187" y="709" type="qcurve" smooth="yes"/>
      <point x="207" y="709"/>
      <point x="226" y="689"/>
      <point x="226" y="673" type="qcurve" smooth="yes"/>
      <point x="226" y="663" type="line" smooth="yes"/>
      <point x="226" y="647"/>
      <point x="207" y="627"/>
    </contour>
    <contour>
      <point x="371" y="627" type="qcurve" smooth="yes"/>
      <point x="351" y="627"/>
      <point x="332" y="647"/>
      <point x="332" y="663" type="qcurve" smooth="yes"/>
      <point x="332" y="673" type="line" smooth="yes"/>
      <point x="332" y="689"/>
      <point x="351" y="709"/>
      <point x="371" y="709" type="qcurve" smooth="yes"/>
      <point x="410" y="709"/>
      <point x="410" y="673" type="qcurve" smooth="yes"/>
      <point x="410" y="663" type="line" smooth="yes"/>
      <point x="410" y="627"/>
    </contour>
    <contour>
      <point x="260" y="-12" type="qcurve" smooth="yes"/>
      <point x="178" y="-12"/>
      <point x="86" y="89"/>
      <point x="86" y="183" type="qcurve" smooth="yes"/>
      <point x="86" y="512" type="line"/>
      <point x="143" y="512" type="line"/>
      <point x="143" y="194" type="line" smooth="yes"/>
      <point x="143" y="39"/>
      <point x="275" y="39" type="qcurve" smooth="yes"/>
      <point x="329" y="39"/>
      <point x="413" y="95"/>
      <point x="413" y="153" type="qcurve" smooth="yes"/>
      <point x="413" y="512" type="line"/>
      <point x="470" y="512" type="line"/>
      <point x="470" y="0" type="line"/>
      <point x="413" y="0" type="line"/>
      <point x="413" y="81" type="line"/>
      <point x="409" y="81" type="line"/>
      <point x="396" y="43"/>
      <point x="360" y="17" type="qcurve" smooth="yes"/>
      <point x="320" y="-12"/>
    </contour>
  </outline>
</glyph>
<glyph name="Amacron" format="2">
  <advance width="625"/>
  <unicode hex="0100"/>
  <outline>
    <contour>
      <point x="599" y="0" type="line"/>
      <point x="351" y="698" type="line"/>
      <point x="274" y="698" type="line"/>
      <point x="27" y="0" type="line"/>
      <point x="87" y="0" type="line"/>
      <point x="163" y="217" type="line"/>
      <point x="460" y="217" type="line"/>
      <point x="536" y="0" type="line"/>
    </contour>
    <contour>
      <point x="444" y="269" type="line"/>
      <point x="178" y="269" type="line"/>
      <point x="309" y="641" type="line"/>
      <point x="313" y="641" type="line"/>
    </contour>
    <contour>
      <point x="449" y="819" type="line"/>
      <point x="449" y="868" type="line"/>
      <point x="177" y="868" type="line"/>
      <point x="177" y="819" type="line"/>
    </contour>
  </outline>
</glyph>
<glyph name="Aogonek" format="2">
  <advance width="625"/>
  <unicode hex="0104"/>
  <outline>
    <contour>
      <point x="538" y="-205" type="qcurve"/>
      <point x="598" y="-205"/>
      <point x="621" y="-169" type="qcurve"/>
      <point x="591" y="-141" type="line"/>
      <point x="574" y="-165"/>
      <point x="538" y="-165" type="qcurve"/>
      <point x="496" y="-165"/>
      <point x="496" y="-127" type="qcurve"/>
      <point x="496" y="-103"/>
      <point x="540" y="-48"/>
      <point x="599" y="0" type="qcurve"/>
      <point x="351" y="698" type="line"/>
      <point x="274" y="698" type="line"/>
      <point x="27" y="0" type="line"/>
      <point x="87" y="0" type="line"/>
      <point x="163" y="217" type="line"/>
      <point x="460" y="217" type="line"/>
      <point x="536" y="0" type="line"/>
      <point x="552" y="0" type="line"/>
      <point x="553" y="-2" type="line"/>
      <point x="503" y="-34"/>
      <point x="449" y="-97"/>
      <point x="449" y="-132" type="qcurve"/>
      <point x="449" y="-169"/>
      <point x="500" y="-205"/>
    </contour>
    <contour>
      <point x="445" y="269" type="line"/>
      <point x="178" y="269" type="line"/>
      <point x="309" y="641" type="line"/>
      <point x="313" y="641" type="line"/>
    </contour>
  </outline>
</glyph>
<glyph name="cacute" format="2">
  <advance width="497"/>
  <unicode hex="0107"/>
  <outline>
    <contour>
      <point x="273" y="-12" type="qcurve"/>
      <point x="409" y="-12"/>
      <point x="462" y="100" type="qcurve"/>
      <point x="420" y="128" type="line"/>
      <point x="375" y="39"/>
      <point x="273" y="39" type="qcurve"/>
      <point x="195" y="39"/>
      <point x="113" y="139"/>
      <point x="113" y="220" type="qcurve"/>
      <point x="113" y="292" type="line"/>
      <point x="113" y="373"/>
      <point x="195" y="473"/>
      <point x="273" y="473" type="qcurve"/>
      <point x="371" y="473"/>
      <point x="407" y="387" type="qcurve"/>
      <point x="455" y="411" type="line"/>
      <point x="405" y="524"/>
      <point x="273" y="524" type="qcurve"/>
      <point x="167" y="524"/>
      <point x="52" y="384"/>
      <point x="52" y="256" type="qcurve"/>
      <point x="52" y="128"/>
      <point x="167" y="-12"/>
    </contour>
    <contour>
      <point x="272" y="586" type="line"/>
      <point x="382" y="742" type="line"/>
      <point x="330" y="768" type="line"/>
      <point x="235" y="604" type="line"/>
    </contour>
  </outline>
</glyph>
<glyph name="cdotaccent" format="2">
  <advance width="497"/>
  <unicode hex="010B"/>
  <outline>
    <contour>
      <point x="273" y="-12" type="qcurve"/>
      <point x="409" y="-12"/>
      <point x="462" y="100" type="qcurve"/>
      <point x="420" y="128" type="line"/>
      <point x="375" y="39"/>
      <point x="273" y="39" type="qcurve"/>
      <point x="195" y="39"/>
      <point x="113" y="139"/>
      <point x="113" y="220" type="qcurve"/>
      <point x="113" y="292" type="line"/>
      <point x="113" y="373"/>
      <point x="195" y="473"/>
      <point x="273" y="473" type="qcurve"/>
      <point x="371" y="473"/>
      <point x="407" y="387" type="qcurve"/>
      <point x="455" y="411" type="line"/>
      <point x="405" y="524"/>
      <point x="273" y="524" type="qcurve"/>
      <point x="167" y="524"/>
      <point x="52" y="384"/>
      <point x="52" y="256" type="qcurve"/>
      <point x="52" y="128"/>
      <point x="167" y="-12"/>
    </contour>
    <contour>
      <point x="275" y="626" type="qcurve"/>
      <point x="315" y="626"/>
      <point x="315" y="660" type="qcurve"/>
      <point x="315" y="672" type="line"/>
      <point x="315" y="688"/>
      <point x="295" y="708"/>
      <point x="275" y="708" type="qcurve"/>
      <point x="235" y="708"/>
      <point x="235" y="672" type="qcurve"/>
      <point x="235" y="662" type="line"/>
      <point x="235" y="646"/>
      <point x="255" y="626"/>
    </contour>
  </outline>
</glyph>
<glyph name="ccaron" format="2">
  <advance width="497"/>
  <unicode hex="010D"/>
  <outline>
    <contour>
      <point x="273" y="-12" type="qcurve"/>
      <point x="409" y="-12"/>
      <point x="462" y="100" type="qcurve"/>
      <point x="420" y="128" type="line"/>
      <point x="375" y="39"/>
      <point x="273" y="39" type="qcurve"/>
      <point x="195" y="39"/>
      <point x="113" y="139"/>
      <point x="113" y="220" type="qcurve"/>
      <point x="113" y="292" type="line"/>
      <point x="113" y="373"/>
      <point x="195" y="473"/>
      <point x="273" y="473" type="qcurve"/>
      <point x="371" y="473"/>
      <point x="407" y="387" type="qcurve"/>
      <point x="455" y="411" type="line"/>
      <point x="405" y="524"/>
      <point x="273" y="524" type="qcurve"/>
      <point x="167" y="524"/>
      <point x="52" y="384"/>
      <point x="52" y="256" type="qcurve"/>
      <point x="52" y="128"/>
      <point x="167" y="-12"/>
    </contour>
    <contour>
      <point x="310" y="601" type="line"/>
      <point x="428" y="740" type="line"/>
      <point x="396" y="763" type="line"/>
      <point x="275" y="642" type="line"/>
      <point x="154" y="763" type="line"/>
      <point x="122" y="740" type="line"/>
      <point x="240" y="601" type="line"/>
    </contour>
  </outline>
</glyph>
<glyph name="Dcaron" format="2">
  <advance width="666"/>
  <unicode hex="010E"/>
  <outline>
    <contour>
      <point x="321" y="0" type="line"/>
      <point x="456" y="0"/>
      <point x="603" y="174"/>
      <point x="603" y="349" type="qcurve"/>
      <point x="603" y="524"/>
      <point x="456" y="698"/>
      <point x="321" y="698" type="qcurve"/>
      <point x="99" y="698" type="line"/>
      <point x="99" y="0" type="line"/>
    </contour>
    <contour>
      <point x="322" y="53" type="qcurve"/>
      <point x="159" y="53" type="line"/>
      <point x="159" y="645" type="line"/>
      <point x="322" y="645" type="line"/>
      <point x="425" y="645"/>
      <point x="539" y="512"/>
      <point x="539" y="395" type="qcurve"/>
      <point x="539" y="303" type="line"/>
      <point x="539" y="186"/>
      <point x="425" y="53"/>
    </contour>
    <contour>
      <point x="339" y="774" type="line"/>
      <point x="457" y="914" type="line"/>
      <point x="425" y="937" type="line"/>
      <point x="304" y="816" type="line"/>
      <point x="183" y="937" type="line"/>
      <point x="151" y="914" type="line"/>
      <point x="269" y="774" type="line"/>
    </contour>
  </outline>
</glyph>
<glyph name="Dcroat" format="2">
  <advance width="669"/>
  <unicode hex="0110"/>
  <outline>
    <contour>
      <point x="324" y="0" type="line"/>
      <point x="459" y="0"/>
      <point x="606" y="174"/>
      <point x="606" y="349" type="qcurve"/>
      <point x="606" y="524"/>
      <point x="459" y="698"/>
      <point x="324" y="698" type="qcurve"/>
      <point x="102" y="698" type="line"/>
      <point x="102" y="392" type="line"/>
      <point x="21" y="392" type="line"/>
      <point x="21" y="346" type="line"/>
      <point x="102" y="346" type="line"/>
      <point x="102" y="0" type="line"/>
    </contour>
    <contour>
      <point x="325" y="53" type="qcurve"/>
      <point x="162" y="53" type="line"/>
      <point x="162" y="346" type="line"/>
      <point x="312" y="346" type="line"/>
      <point x="312" y="392" type="line"/>
      <point x="162" y="392" type="line"/>
      <point x="162" y="645" type="line"/>
      <point x="325" y="645" type="line"/>
      <point x="428" y="645"/>
      <point x="542" y="512"/>
      <point x="542" y="395" type="qcurve"/>
      <point x="542" y="303" type="line"/>
      <point x="542" y="186"/>
      <point x="428" y="53"/>
    </contour>
  </outline>
</glyph>
<glyph name="dcroat" format="2">
  <advance width="574"/>
  <unicode hex="0111"/>
  <outline>
    <contour>
      <point x="265" y="-12" type="qcurve"/>
      <point x="377" y="-12"/>
      <point x="421" y="82" type="qcurve"/>
      <point x="424" y="82" type="line"/>
      <point x="424" y="0" type="line"/>
      <point x="481" y="0" type="line"/>
      <point x="481" y="616" type="line"/>
      <point x="546" y="616" type="line"/>
      <point x="546" y="661" type="line"/>
      <point x="481" y="661" type="line"/>
      <point x="481" y="740" type="line"/>
      <point x="424" y="740" type="line"/>
      <point x="424" y="661" type="line"/>
      <point x="269" y="661" type="line"/>
      <point x="269" y="616" type="line"/>
      <point x="424" y="616" type="line"/>
      <point x="424" y="430" type="line"/>
      <point x="421" y="430" type="line"/>
      <point x="402" y="473"/>
      <point x="324" y="524"/>
      <point x="265" y="524" type="qcurve"/>
      <point x="166" y="524"/>
      <point x="54" y="384"/>
      <point x="54" y="256" type="qcurve"/>
      <point x="54" y="128"/>
      <point x="166" y="-12"/>
    </contour>
    <contour>
      <point x="278" y="39" type="qcurve"/>
      <point x="201" y="39"/>
      <point x="115" y="137"/>
      <point x="115" y="220" type="qcurve"/>
      <point x="115" y="292" type="line"/>
      <point x="115" y="375"/>
      <point x="201" y="473"/>
      <point x="278" y="473" type="qcurve"/>
      <point x="338" y="473"/>
      <point x="424" y="409"/>
      <point x="424" y="359" type="qcurve"/>
      <point x="424" y="156" type="line"/>
      <point x="424" y="102"/>
      <point x="338" y="39"/>
    </contour>
  </outline>
</glyph>
<glyph name="edotaccent" format="2">
  <advance width="543"/>
  <unicode hex="0117"/>
  <outline>
    <contour>
      <point x="276" y="-12" type="qcurve"/>
      <point x="349" y="-12"/>
      <point x="452" y="55"/>
      <point x="476" y="113" type="qcurve"/>
      <point x="434" y="141" type="line"/>
      <point x="392" y="38"/>
      <point x="279" y="38" type="qcurve"/>
      <point x="201" y="38"/>
      <point x="112" y="141"/>
      <point x="112" y="220" type="qcurve"/>
      <point x="112" y="245" type="line"/>
      <point x="491" y="245" type="line"/>
      <point x="491" y="272" type="line"/>
      <point x="491" y="385"/>
      <point x="373" y="524"/>
      <point x="275" y="524" type="qcurve"/>
      <point x="173" y="524"/>
      <point x="52" y="382"/>
      <point x="52" y="256" type="qcurve"/>
      <point x="52" y="130"/>
      <point x="174" y="-12"/>
    </contour>
    <contour>
      <point x="429" y="289" type="line"/>
      <point x="112" y="289" type="line"/>
      <point x="112" y="374"/>
      <point x="202" y="476"/>
      <point x="275" y="476" type="qcurve"/>
      <point x="343" y="476"/>
      <point x="387" y="427" type="qcurve"/>
      <point x="429" y="377"/>
      <point x="429" y="297" type="qcurve"/>
    </contour>
    <contour>
      <point x="276" y="626" type="qcurve"/>
      <point x="316" y="626"/>
      <point x="316" y="660" type="qcurve"/>
      <point x="316" y="672" type="line"/>
      <point x="316" y="688"/>
      <point x="296" y="708"/>
      <point x="276" y="708" type="qcurve"/>
      <point x="236" y="708"/>
      <point x="236" y="672" type="qcurve"/>
      <point x="236" y="662" type="line"/>
      <point x="236" y="646"/>
      <point x="256" y="626"/>
    </contour>
  </outline>
</glyph>
<glyph name="Eogonek" format="2">
  <advance width="574"/>
  <unicode hex="0118"/>
  <outline>
    <contour>
      <point x="443" y="-205" type="qcurve" smooth="yes"/>
      <point x="405" y="-205"/>
      <point x="354" y="-170"/>
      <point x="354" y="-133" type="qcurve" smooth="yes"/>
      <point x="354" y="-98"/>
      <point x="408" y="-34"/>
      <point x="459" y="-2" type="qcurve"/>
      <point x="458" y="0" type="line"/>
      <point x="99" y="0" type="line"/>
      <point x="99" y="698" type="line"/>
      <point x="507" y="698" type="line"/>
      <point x="507" y="645" type="line"/>
      <point x="159" y="645" type="line"/>
      <point x="159" y="381" type="line"/>
      <point x="490" y="381" type="line"/>
      <point x="490" y="328" type="line"/>
      <point x="159" y="328" type="line"/>
      <point x="159" y="53" type="line"/>
      <point x="507" y="53" type="line"/>
      <point x="507" y="0" type="line"/>
      <point x="446" y="-48"/>
      <point x="401" y="-103"/>
      <point x="401" y="-127" type="qcurve" smooth="yes"/>
      <point x="401" y="-165"/>
      <point x="443" y="-165" type="qcurve" smooth="yes"/>
      <point x="479" y="-165"/>
      <point x="496" y="-141" type="qcurve"/>
      <point x="526" y="-169" type="line"/>
      <point x="503" y="-205"/>
    </contour>
  </outline>
</glyph>
<glyph name="eogonek" format="2">
  <advance width="543"/>
  <unicode hex="0119"/>
  <outline>
    <contour>
      <point x="339" y="-205" type="qcurve"/>
      <point x="371" y="-205"/>
      <point x="413" y="-184"/>
      <point x="422" y="-169" type="qcurve"/>
      <point x="393" y="-141" type="line"/>
      <point x="376" y="-165"/>
      <point x="340" y="-165" type="qcurve"/>
      <point x="298" y="-165"/>
      <point x="298" y="-125" type="qcurve"/>
      <point x="298" y="-86"/>
      <point x="339" y="-41" type="qcurve"/>
      <point x="365" y="-12"/>
      <point x="421" y="38" type="qcurve"/>
      <point x="456" y="67"/>
      <point x="476" y="113" type="qcurve"/>
      <point x="434" y="141" type="line"/>
      <point x="392" y="38"/>
      <point x="279" y="38" type="qcurve"/>
      <point x="201" y="38"/>
      <point x="112" y="141"/>
      <point x="112" y="220" type="qcurve"/>
      <point x="112" y="245" type="line"/>
      <point x="491" y="245" type="line"/>
      <point x="491" y="272" type="line"/>
      <point x="491" y="385"/>
      <point x="373" y="524"/>
      <point x="275" y="524" type="qcurve"/>
      <point x="173" y="524"/>
      <point x="52" y="382"/>
      <point x="52" y="256" type="qcurve"/>
      <point x="52" y="130"/>
      <point x="174" y="-12"/>
      <point x="276" y="-12" type="qcurve"/>
      <point x="323" y="-12"/>
      <point x="346" y="1" type="qcurve"/>
      <point x="349" y="-3" type="line"/>
      <point x="304" y="-30"/>
      <point x="251" y="-93"/>
      <point x="251" y="-131" type="qcurve"/>
      <point x="251" y="-169"/>
      <point x="302" y="-205"/>
    </contour>
    <contour>
      <point x="429" y="289" type="line"/>
      <point x="112" y="289" type="line"/>
      <point x="112" y="374"/>
      <point x="202" y="476"/>
      <point x="275" y="476" type="qcurve"/>
      <point x="343" y="476"/>
      <point x="387" y="427" type="qcurve"/>
      <point x="429" y="377"/>
      <point x="429" y="297" type="qcurve"/>
    </contour>
  </outline>
</glyph>
<glyph name="Gcircumflex" format="2">
  <advance width="665"/>
  <unicode hex="011C"/>
  <outline>
    <contour>
      <point x="54" y="349" type="qcurve"/>
      <point x="54" y="470"/>
      <point x="121" y="631"/>
      <point x="248" y="710"/>
      <point x="337" y="710" type="qcurve"/>
      <point x="383" y="710"/>
      <point x="460" y="688"/>
      <point x="521" y="648"/>
      <point x="567" y="593"/>
      <point x="582" y="559" type="qcurve"/>
      <point x="529" y="527" type="line"/>
      <point x="513" y="566"/>
      <point x="460" y="622"/>
      <point x="385" y="653"/>
      <point x="337" y="653" type="qcurve"/>
      <point x="271" y="653"/>
      <point x="175" y="592"/>
      <point x="123" y="478"/>
      <point x="123" y="395" type="qcurve"/>
      <point x="123" y="303" type="line"/>
      <point x="123" y="241"/>
      <point x="153" y="145"/>
      <point x="210" y="79"/>
      <point x="290" y="45"/>
      <point x="341" y="45" type="qcurve"/>
      <point x="399" y="45"/>
      <point x="486" y="88"/>
      <point x="534" y="169"/>
      <point x="534" y="225" type="qcurve"/>
      <point x="534" y="291" type="line"/>
      <point x="333" y="291" type="line"/>
      <point x="333" y="350" type="line"/>
      <point x="598" y="350" type="line"/>
      <point x="598" y="239" type="line"/>
      <point x="598" y="169"/>
      <point x="552" y="74"/>
      <point x="474" y="14"/>
      <point x="381" y="-12"/>
      <point x="332" y="-12" type="qcurve"/>
      <point x="285" y="-12"/>
      <point x="200" y="14"/>
      <point x="131" y="68"/>
      <point x="81" y="154"/>
      <point x="54" y="273"/>
    </contour>
    <contour>
      <point x="312" y="931" type="line"/>
      <point x="386" y="931" type="line"/>
      <point x="503" y="791" type="line"/>
      <point x="469" y="767" type="line"/>
      <point x="349" y="887" type="line"/>
      <point x="229" y="767" type="line"/>
      <point x="195" y="791" type="line"/>
    </contour>
  </outline>
</glyph>
<glyph name="Gbreve" format="2">
  <advance width="665"/>
  <unicode hex="011E"/>
  <outline>
    <contour>
      <point x="54" y="349" type="qcurve"/>
      <point x="54" y="470"/>
      <point x="121" y="631"/>
      <point x="248" y="710"/>
      <point x="337" y="710" type="qcurve"/>
      <point x="383" y="710"/>
      <point x="460" y="688"/>
      <point x="521" y="648"/>
      <point x="567" y="593"/>
      <point x="582" y="559" type="qcurve"/>
      <point x="529" y="527" type="line"/>
      <point x="513" y="566"/>
      <point x="460" y="622"/>
      <point x="385" y="653"/>
      <point x="337" y="653" type="qcurve"/>
      <point x="271" y="653"/>
      <point x="175" y="592"/>
      <point x="123" y="478"/>
      <point x="123" y="395" type="qcurve"/>
      <point x="123" y="303" type="line"/>
      <point x="123" y="241"/>
      <point x="153" y="145"/>
      <point x="210" y="79"/>
      <point x="290" y="45"/>
      <point x="341" y="45" type="qcurve"/>
      <point x="399" y="45"/>
      <point x="486" y="88"/>
      <point x="534" y="169"/>
      <point x="534" y="225" type="qcurve"/>
      <point x="534" y="291" type="line"/>
      <point x="333" y="291" type="line"/>
      <point x="333" y="350" type="line"/>
      <point x="598" y="350" type="line"/>
      <point x="598" y="239" type="line"/>
      <point x="598" y="169"/>
      <point x="552" y="74"/>
      <point x="474" y="14"/>
      <point x="381" y="-12"/>
      <point x="332" y="-12" type="qcurve"/>
      <point x="285" y="-12"/>
      <point x="200" y="14"/>
      <point x="131" y="68"/>
      <point x="81" y="154"/>
      <point x="54" y="273"/>
    </contour>
    <contour>
      <point x="349" y="773" type="qcurve"/>
      <point x="314" y="773"/>
      <point x="266" y="793"/>
      <point x="234" y="829"/>
      <point x="213" y="872"/>
      <point x="204" y="895" type="qcurve"/>
      <point x="239" y="912" type="line"/>
      <point x="258" y="881" type="line"/>
      <point x="276" y="851"/>
      <point x="313" y="821"/>
      <point x="349" y="821" type="qcurve"/>
      <point x="385" y="821"/>
      <point x="423" y="851"/>
      <point x="440" y="881" type="qcurve"/>
      <point x="459" y="912" type="line"/>
      <point x="494" y="895" type="line"/>
      <point x="482" y="865"/>
      <point x="451" y="809"/>
      <point x="396" y="773"/>
    </contour>
  </outline>
</glyph>
<glyph name="Gcedilla" format="2">
  <advance width="665"/>
  <unicode hex="0122"/>
  <outline>
    <contour>
      <point x="54" y="349" type="qcurve"/>
      <point x="54" y="470"/>
      <point x="121" y="631"/>
      <point x="248" y="710"/>
      <point x="337" y="710" type="qcurve"/>
      <point x="383" y="710"/>
      <point x="460" y="688"/>
      <point x="521" y="648"/>
      <point x="567" y="593"/>
      <point x="582" y="559" type="qcurve"/>
      <point x="529" y="527" type="line"/>
      <point x="513" y="566"/>
      <point x="460" y="622"/>
      <point x="385" y="653"/>
      <point x="337" y="653" type="qcurve"/>
      <point x="271" y="653"/>
      <point x="175" y="592"/>
      <point x="123" y="478"/>
      <point x="123" y="395" type="qcurve"/>
      <point x="123" y="303" type="line"/>
      <point x="123" y="241"/>
      <point x="153" y="145"/>
      <point x="210" y="79"/>
      <point x="290" y="45"/>
      <point x="341" y="45" type="qcurve"/>
      <point x="399" y="45"/>
      <point x="486" y="88"/>
      <point x="534" y="169"/>
      <point x="534" y="225" type="qcurve"/>
      <point x="534" y="291" type="line"/>
      <point x="333" y="291" type="line"/>
      <point x="333" y="350" type="line"/>
      <point x="598" y="350" type="line"/>
      <point x="598" y="239" type="line"/>
      <point x="598" y="169"/>
      <point x="552" y="74"/>
      <point x="474" y="14"/>
      <point x="381" y="-12"/>
      <point x="332" y="-12" type="qcurve"/>
      <point x="285" y="-12"/>
      <point x="200" y="14"/>
      <point x="131" y="68"/>
      <point x="81" y="154"/>
      <point x="54" y="273"/>
    </contour>
    <contour>
      <point x="344" y="-66" type="qcurve"/>
      <point x="365" y="-66"/>
      <point x="386" y="-87"/>
      <point x="386" y="-105" type="qcurve"/>
      <point x="386" y="-116" type="line"/>
      <point x="386" y="-147"/>
      <point x="353" y="-211"/>
      <point x="331" y="-234" type="qcurve"/>
      <point x="286" y="-234" type="line"/>
      <point x="307" y="-212"/>
      <point x="330" y="-171"/>
      <point x="335" y="-150" type="qcurve"/>
      <point x="318" y="-147"/>
      <point x="302" y="-127"/>
      <point x="302" y="-114" type="qcurve"/>
      <point x="302" y="-105" type="line"/>
      <point x="302" y="-87"/>
      <point x="323" y="-66"/>
    </contour>
  </outline>
</glyph>
<glyph name="uni0122" format="2">
  <advance width="665"/>
  <unicode hex="0122"/>
  <outline>
    <contour>
      <point x="344" y="-66" type="qcurve" smooth="yes"/>
      <point x="365" y="-66"/>
      <point x="386" y="-87"/>
      <point x="386" y="-105" type="qcurve" smooth="yes"/>
      <point x="386" y="-116" type="line" smooth="yes"/>
      <point x="386" y="-147"/>
      <point x="353" y="-211"/>
      <point x="331" y="-234" type="qcurve"/>
      <point x="286" y="-234" type="line"/>
      <point x="307" y="-212"/>
      <point x="330" y="-171"/>
      <point x="335" y="-150" type="qcurve"/>
      <point x="318" y="-147"/>
      <point x="302" y="-127"/>
      <point x="302" y="-114" type="qcurve" smooth="yes"/>
      <point x="302" y="-105" type="line" smooth="yes"/>
      <point x="302" y="-87"/>
      <point x="323" y="-66"/>
    </contour>
    <contour>
      <point x="55" y="349" type="qcurve" smooth="yes"/>
      <point x="55" y="530"/>
      <point x="203" y="710"/>
      <point x="337" y="710" type="qcurve" smooth="yes"/>
      <point x="422" y="710"/>
      <point x="549" y="632"/>
      <point x="581" y="560" type="qcurve"/>
      <point x="530" y="530" type="line"/>
      <point x="506" y="590"/>
      <point x="409" y="655"/>
      <point x="337" y="655" type="qcurve" smooth="yes"/>
      <point x="235" y="655"/>
      <point x="122" y="519"/>
      <point x="122" y="394" type="qcurve" smooth="yes"/>
      <point x="122" y="323" type="line" smooth="yes"/>
      <point x="122" y="261"/>
      <point x="146" y="158"/>
      <point x="198" y="84"/>
      <point x="282" y="43"/>
      <point x="341" y="43" type="qcurve" smooth="yes"/>
      <point x="383" y="43"/>
      <point x="454" y="66"/>
      <point x="506" y="111"/>
      <point x="536" y="179"/>
      <point x="536" y="224" type="qcurve" smooth="yes"/>
      <point x="536" y="293" type="line"/>
      <point x="334" y="293" type="line"/>
      <point x="334" y="349" type="line"/>
      <point x="597" y="349" type="line"/>
      <point x="597" y="261" type="line" smooth="yes"/>
      <point x="597" y="165"/>
      <point x="529" y="37"/>
      <point x="447" y="7" type="qcurve" smooth="yes"/>
      <point x="420" y="-3"/>
      <point x="362" y="-12"/>
      <point x="333" y="-12" type="qcurve" smooth="yes"/>
      <point x="273" y="-12"/>
      <point x="171" y="30"/>
      <point x="97" y="118"/>
      <point x="55" y="254"/>
    </contour>
  </outline>
</glyph>
<glyph name="hcircumflex" format="2">
  <advance width="563"/>
  <unicode hex="0125"/>
  <outline>
    <contour>
      <point x="477" y="0" type="line"/>
      <point x="477" y="329" type="line"/>
      <point x="477" y="423"/>
      <point x="386" y="524"/>
      <point x="304" y="524" type="qcurve"/>
      <point x="191" y="524"/>
      <point x="153" y="431" type="qcurve"/>
      <point x="150" y="431" type="line"/>
      <point x="150" y="740" type="line"/>
      <point x="93" y="740" type="line"/>
      <point x="93" y="0" type="line"/>
      <point x="150" y="0" type="line"/>
      <point x="150" y="360" type="line"/>
      <point x="150" y="416"/>
      <point x="235" y="473"/>
      <point x="289" y="473" type="qcurve"/>
      <point x="420" y="473"/>
      <point x="420" y="319" type="qcurve"/>
      <point x="420" y="0" type="line"/>
    </contour>
    <contour>
      <point x="244" y="752" type="line"/>
      <point x="276" y="775" type="line"/>
      <point x="158" y="914" type="line"/>
      <point x="88" y="914" type="line"/>
      <point x="-30" y="775" type="line"/>
      <point x="2" y="752" type="line"/>
      <point x="123" y="873" type="line"/>
    </contour>
  </outline>
</glyph>
<glyph name="Imacron" format="2">
  <advance width="278"/>
  <unicode hex="012A"/>
  <outline>
    <contour>
      <point x="275" y="819" type="line"/>
      <point x="275" y="868" type="line"/>
      <point x="3" y="868" type="line"/>
      <point x="3" y="819" type="line"/>
    </contour>
    <contour>
      <point x="169" y="0" type="line"/>
      <point x="169" y="698" type="line"/>
      <point x="109" y="698" type="line"/>
      <point x="109" y="0" type="line"/>
    </contour>
  </outline>
</glyph>
<glyph name="imacron" format="2">
  <advance width="243"/>
  <unicode hex="012B"/>
  <outline>
    <contour>
      <point x="150" y="0" type="line"/>
      <point x="150" y="512" type="line"/>
      <point x="93" y="512" type="line"/>
      <point x="93" y="0" type="line"/>
    </contour>
    <contour>
      <point x="258" y="645" type="line"/>
      <point x="258" y="694" type="line"/>
      <point x="-14" y="694" type="line"/>
      <point x="-14" y="645" type="line"/>
    </contour>
  </outline>
</glyph>
<glyph name="Ibreve" format="2">
  <advance width="278"/>
  <unicode hex="012C"/>
  <outline>
    <contour>
      <point x="139" y="774" type="qcurve" smooth="yes"/>
      <point x="76" y="774"/>
      <point x="12" y="848"/>
      <point x="-5" y="896" type="qcurve"/>
      <point x="28" y="912" type="line"/>
      <point x="47" y="881" type="line"/>
      <point x="65" y="849"/>
      <point x="103" y="820"/>
      <point x="139" y="820" type="qcurve" smooth="yes"/>
      <point x="175" y="820"/>
      <point x="213" y="849"/>
      <point x="231" y="881" type="qcurve"/>
      <point x="250" y="912" type="line"/>
      <point x="283" y="896" type="line"/>
      <point x="252" y="808"/>
      <point x="197" y="784" type="qcurve" smooth="yes"/>
      <point x="173" y="774"/>
    </contour>
    <contour>
      <point x="109" y="0" type="line"/>
      <point x="109" y="698" type="line"/>
      <point x="169" y="698" type="line"/>
      <point x="169" y="0" type="line"/>
    </contour>
  </outline>
</glyph>
<glyph name="Iogonek" format="2">
  <advance width="278"/>
  <unicode hex="012E"/>
  <outline>
    <contour>
      <point x="103" y="-205" type="qcurve"/>
      <point x="135" y="-205"/>
      <point x="177" y="-184"/>
      <point x="186" y="-169" type="qcurve"/>
      <point x="156" y="-141" type="line"/>
      <point x="140" y="-165"/>
      <point x="104" y="-165" type="qcurve"/>
      <point x="62" y="-165"/>
      <point x="62" y="-127" type="qcurve"/>
      <point x="62" y="-103"/>
      <point x="107" y="-48"/>
      <point x="168" y="0" type="qcurve"/>
      <point x="168" y="698" type="line"/>
      <point x="108" y="698" type="line"/>
      <point x="108" y="0" type="line"/>
      <point x="119" y="0" type="line"/>
      <point x="120" y="-2" type="line"/>
      <point x="66" y="-37"/>
      <point x="15" y="-98"/>
      <point x="15" y="-133" type="qcurve"/>
      <point x="15" y="-170"/>
      <point x="66" y="-205"/>
    </contour>
  </outline>
</glyph>
<glyph name="iogonek" format="2">
  <advance width="243"/>
  <unicode hex="012F"/>
  <outline>
    <contour>
      <point x="97" y="-205" type="qcurve"/>
      <point x="157" y="-205"/>
      <point x="180" y="-169" type="qcurve"/>
      <point x="150" y="-141" type="line"/>
      <point x="133" y="-165"/>
      <point x="97" y="-165" type="qcurve"/>
      <point x="55" y="-165"/>
      <point x="55" y="-126" type="qcurve"/>
      <point x="55" y="-102"/>
      <point x="95" y="-50"/>
      <point x="150" y="0" type="qcurve"/>
      <point x="150" y="512" type="line"/>
      <point x="93" y="512" type="line"/>
      <point x="93" y="0" type="line"/>
      <point x="104" y="0" type="line"/>
      <point x="105" y="-2" type="line"/>
      <point x="62" y="-34"/>
      <point x="8" y="-95"/>
      <point x="8" y="-132" type="qcurve"/>
      <point x="8" y="-169"/>
      <point x="59" y="-205"/>
    </contour>
    <contour>
      <point x="121" y="651" type="qcurve"/>
      <point x="160" y="651"/>
      <point x="160" y="687" type="qcurve"/>
      <point x="160" y="697" type="line"/>
      <point x="160" y="733"/>
      <point x="121" y="733" type="qcurve"/>
      <point x="83" y="733"/>
      <point x="83" y="697" type="qcurve"/>
      <point x="83" y="687" type="line"/>
      <point x="83" y="651"/>
    </contour>
  </outline>
</glyph>
<glyph name="Idotaccent" format="2">
  <advance width="278"/>
  <unicode hex="0130"/>
  <outline>
    <contour>
      <point x="139" y="796" type="qcurve"/>
      <point x="182" y="796"/>
      <point x="182" y="837" type="qcurve"/>
      <point x="182" y="848" type="line"/>
      <point x="182" y="889"/>
      <point x="139" y="889" type="qcurve"/>
      <point x="96" y="889"/>
      <point x="96" y="848" type="qcurve"/>
      <point x="96" y="837" type="line"/>
      <point x="96" y="796"/>
    </contour>
    <contour>
      <point x="169" y="0" type="line"/>
      <point x="169" y="698" type="line"/>
      <point x="109" y="698" type="line"/>
      <point x="109" y="0" type="line"/>
    </contour>
  </outline>
</glyph>
<glyph name="jcircumflex" format="2">
  <advance width="243"/>
  <unicode hex="0135"/>
  <outline>
    <contour>
      <point x="122" y="715" type="line"/>
      <point x="1" y="594" type="line"/>
      <point x="-31" y="617" type="line"/>
      <point x="87" y="756" type="line"/>
      <point x="157" y="756" type="line"/>
      <point x="275" y="617" type="line"/>
      <point x="243" y="594" type="line"/>
    </contour>
    <contour>
      <point x="8" y="-200" type="line"/>
      <point x="8" y="-150" type="line"/>
      <point x="93" y="-150" type="line"/>
      <point x="93" y="512" type="line"/>
      <point x="150" y="512" type="line"/>
      <point x="150" y="-115" type="line" smooth="yes"/>
      <point x="150" y="-200"/>
      <point x="70" y="-200" type="qcurve" smooth="yes"/>
    </contour>
  </outline>
</glyph>
<glyph name="uni0136" format="2">
  <advance width="610"/>
  <unicode hex="0136"/>
  <outline>
    <contour>
      <point x="515" y="0" type="line"/>
      <point x="272" y="360" type="line"/>
      <point x="159" y="235" type="line"/>
      <point x="159" y="0" type="line"/>
      <point x="99" y="0" type="line"/>
      <point x="99" y="698" type="line"/>
      <point x="159" y="698" type="line"/>
      <point x="159" y="305" type="line"/>
      <point x="161" y="305" type="line"/>
      <point x="503" y="698" type="line"/>
      <point x="576" y="698" type="line"/>
      <point x="313" y="401" type="line"/>
      <point x="589" y="0" type="line"/>
    </contour>
    <contour>
      <point x="271" y="-232" type="line"/>
      <point x="310" y="-190"/>
      <point x="319" y="-147" type="qcurve"/>
      <point x="287" y="-140"/>
      <point x="287" y="-112" type="qcurve" smooth="yes"/>
      <point x="287" y="-103" type="line" smooth="yes"/>
      <point x="287" y="-66"/>
      <point x="329" y="-66" type="qcurve" smooth="yes"/>
      <point x="367" y="-66"/>
      <point x="367" y="-103" type="qcurve" smooth="yes"/>
      <point x="367" y="-114" type="line" smooth="yes"/>
      <point x="367" y="-178"/>
      <point x="313" y="-232" type="qcurve"/>
    </contour>
  </outline>
</glyph>
<glyph name="kgreenlandic" format="2">
  <advance width="513"/>
  <unicode hex="0138"/>
  <outline>
    <contour>
      <point x="425" y="0" type="line"/>
      <point x="231" y="265" type="line"/>
      <point x="150" y="182" type="line"/>
      <point x="150" y="0" type="line"/>
      <point x="93" y="0" type="line"/>
      <point x="93" y="512" type="line"/>
      <point x="150" y="512" type="line"/>
      <point x="150" y="248" type="line"/>
      <point x="153" y="248" type="line"/>
      <point x="280" y="381"/>
      <point x="408" y="512" type="qcurve"/>
      <point x="478" y="512" type="line"/>
      <point x="273" y="302" type="line"/>
      <point x="495" y="0" type="line"/>
    </contour>
  </outline>
</glyph>
<glyph name="Lacute" format="2">
  <advance width="491"/>
  <unicode hex="0139"/>
  <outline>
    <contour>
      <point x="467" y="0" type="line"/>
      <point x="467" y="53" type="line"/>
      <point x="159" y="53" type="line"/>
      <point x="159" y="698" type="line"/>
      <point x="99" y="698" type="line"/>
      <point x="99" y="0" type="line"/>
    </contour>
    <contour>
      <point x="127" y="760" type="line"/>
      <point x="237" y="916" type="line"/>
      <point x="185" y="942" type="line"/>
      <point x="90" y="778" type="line"/>
    </contour>
  </outline>
</glyph>
<glyph name="lacute" format="2">
  <advance width="264"/>
  <unicode hex="013A"/>
  <outline>
    <contour>
      <point x="119" y="786" type="line"/>
      <point x="229" y="942" type="line"/>
      <point x="177" y="968" type="line"/>
      <point x="82" y="804" type="line"/>
    </contour>
    <contour>
      <point x="229" y="0" type="line"/>
      <point x="229" y="50" type="line"/>
      <point x="150" y="50" type="line"/>
      <point x="150" y="740" type="line"/>
      <point x="93" y="740" type="line"/>
      <point x="93" y="62" type="line"/>
      <point x="93" y="34"/>
      <point x="125" y="0"/>
      <point x="156" y="0" type="qcurve"/>
    </contour>
  </outline>
</glyph>
<glyph name="lcedilla" format="2">
  <advance width="264"/>
  <unicode hex="013C"/>
  <outline>
    <contour>
      <point x="229" y="0" type="line"/>
      <point x="229" y="50" type="line"/>
      <point x="150" y="50" type="line"/>
      <point x="150" y="740" type="line"/>
      <point x="93" y="740" type="line"/>
      <point x="93" y="62" type="line"/>
      <point x="93" y="34"/>
      <point x="125" y="0"/>
      <point x="156" y="0" type="qcurve"/>
    </contour>
    <contour>
      <point x="149" y="-232" type="line"/>
      <point x="203" y="-178"/>
      <point x="203" y="-114" type="qcurve"/>
      <point x="203" y="-103" type="line"/>
      <point x="203" y="-66"/>
      <point x="165" y="-66" type="qcurve"/>
      <point x="123" y="-66"/>
      <point x="123" y="-103" type="qcurve"/>
      <point x="123" y="-112" type="line"/>
      <point x="123" y="-140"/>
      <point x="155" y="-147" type="qcurve"/>
      <point x="146" y="-190"/>
      <point x="107" y="-232" type="qcurve"/>
    </contour>
  </outline>
</glyph>
<glyph name="Lcaron" format="2">
  <advance width="491"/>
  <unicode hex="013D"/>
  <outline>
    <contour>
      <point x="467" y="0" type="line"/>
      <point x="467" y="53" type="line"/>
      <point x="159" y="53" type="line"/>
      <point x="159" y="698" type="line"/>
      <point x="99" y="698" type="line"/>
      <point x="99" y="0" type="line"/>
    </contour>
    <contour>
      <point x="285" y="559" type="line"/>
      <point x="326" y="740" type="line"/>
      <point x="260" y="740" type="line"/>
      <point x="246" y="559" type="line"/>
    </contour>
  </outline>
</glyph>
<glyph name="lcaron" format="2">
  <advance width="264"/>
  <unicode hex="013E"/>
  <outline>
    <contour>
      <point x="262" y="559" type="line"/>
      <point x="303" y="740" type="line"/>
      <point x="237" y="740" type="line"/>
      <point x="223" y="559" type="line"/>
    </contour>
    <contour>
      <point x="229" y="0" type="line"/>
      <point x="229" y="50" type="line"/>
      <point x="150" y="50" type="line"/>
      <point x="150" y="740" type="line"/>
      <point x="93" y="740" type="line"/>
      <point x="93" y="62" type="line"/>
      <point x="93" y="34"/>
      <point x="125" y="0"/>
      <point x="156" y="0" type="qcurve"/>
    </contour>
  </outline>
</glyph>
<glyph name="lmiddledot" format="2">
  <advance width="326"/>
  <unicode hex="0140"/>
  <outline>
    <contour>
      <point x="284" y="248" type="qcurve"/>
      <point x="324" y="248"/>
      <point x="324" y="282" type="qcurve"/>
      <point x="324" y="294" type="line"/>
      <point x="324" y="310"/>
      <point x="304" y="330"/>
      <point x="284" y="330" type="qcurve"/>
      <point x="244" y="330"/>
      <point x="244" y="294" type="qcurve"/>
      <point x="244" y="284" type="line"/>
      <point x="244" y="268"/>
      <point x="264" y="248"/>
    </contour>
    <contour>
      <point x="229" y="0" type="line"/>
      <point x="229" y="50" type="line"/>
      <point x="150" y="50" type="line"/>
      <point x="150" y="740" type="line"/>
      <point x="93" y="740" type="line"/>
      <point x="93" y="62" type="line"/>
      <point x="93" y="34"/>
      <point x="125" y="0"/>
      <point x="156" y="0" type="qcurve"/>
    </contour>
  </outline>
</glyph>
<glyph name="Lslash" format="2">
  <advance width="494"/>
  <unicode hex="0141"/>
  <outline>
    <contour>
      <point x="470" y="0" type="line"/>
      <point x="470" y="54" type="line"/>
      <point x="162" y="54" type="line"/>
      <point x="162" y="303" type="line"/>
      <point x="352" y="364" type="line"/>
      <point x="352" y="415" type="line"/>
      <point x="162" y="353" type="line"/>
      <point x="162" y="698" type="line"/>
      <point x="102" y="698" type="line"/>
      <point x="102" y="333" type="line"/>
      <point x="1" y="299" type="line"/>
      <point x="1" y="251" type="line"/>
      <point x="102" y="283" type="line"/>
      <point x="102" y="0" type="line"/>
    </contour>
  </outline>
</glyph>
<glyph name="lslash" format="2">
  <advance width="270"/>
  <unicode hex="0142"/>
  <outline>
    <contour>
      <point x="232" y="0" type="line"/>
      <point x="232" y="50" type="line"/>
      <point x="153" y="50" type="line"/>
      <point x="153" y="354" type="line"/>
      <point x="252" y="387" type="line"/>
      <point x="252" y="436" type="line"/>
      <point x="153" y="404" type="line"/>
      <point x="153" y="740" type="line"/>
      <point x="96" y="740" type="line"/>
      <point x="96" y="384" type="line"/>
      <point x="24" y="361" type="line"/>
      <point x="24" y="312" type="line"/>
      <point x="96" y="335" type="line"/>
      <point x="96" y="62" type="line"/>
      <point x="96" y="34"/>
      <point x="128" y="0"/>
      <point x="159" y="0" type="qcurve"/>
    </contour>
  </outline>
</glyph>
<glyph name="napostrophe" format="2">
  <advance width="823"/>
  <unicode hex="0149"/>
  <outline>
    <contour>
      <point x="96" y="520" type="line"/>
      <point x="136" y="555"/>
      <point x="182" y="649"/>
      <point x="182" y="691" type="qcurve"/>
      <point x="182" y="704" type="line"/>
      <point x="182" y="724"/>
      <point x="159" y="750"/>
      <point x="134" y="750" type="qcurve"/>
      <point x="109" y="750"/>
      <point x="86" y="724"/>
      <point x="86" y="704" type="qcurve"/>
      <point x="86" y="692" type="line"/>
      <point x="86" y="656"/>
      <point x="122" y="651" type="qcurve"/>
      <point x="112" y="586"/>
      <point x="48" y="520" type="qcurve"/>
    </contour>
    <contour>
      <point x="737" y="0" type="line"/>
      <point x="737" y="329" type="line"/>
      <point x="737" y="423"/>
      <point x="646" y="524"/>
      <point x="564" y="524" type="qcurve"/>
      <point x="451" y="524"/>
      <point x="413" y="431" type="qcurve"/>
      <point x="410" y="431" type="line"/>
      <point x="410" y="512" type="line"/>
      <point x="353" y="512" type="line"/>
      <point x="353" y="0" type="line"/>
      <point x="410" y="0" type="line"/>
      <point x="410" y="360" type="line"/>
      <point x="410" y="416"/>
      <point x="495" y="473"/>
      <point x="549" y="473" type="qcurve"/>
      <point x="680" y="473"/>
      <point x="680" y="319" type="qcurve"/>
      <point x="680" y="0" type="line"/>
    </contour>
  </outline>
</glyph>
<glyph name="Eng" format="2">
  <advance width="701"/>
  <unicode hex="014A"/>
  <outline>
    <contour>
      <point x="458" y="-200" type="line"/>
      <point x="458" y="-147" type="line"/>
      <point x="544" y="-147" type="line"/>
      <point x="544" y="0" type="line"/>
      <point x="527" y="0" type="line"/>
      <point x="160" y="616" type="line"/>
      <point x="157" y="616" type="line"/>
      <point x="157" y="0" type="line"/>
      <point x="99" y="0" type="line"/>
      <point x="99" y="698" type="line"/>
      <point x="174" y="698" type="line"/>
      <point x="541" y="82" type="line"/>
      <point x="544" y="82" type="line"/>
      <point x="544" y="698" type="line"/>
      <point x="602" y="698" type="line"/>
      <point x="602" y="-112" type="line" smooth="yes"/>
      <point x="602" y="-152"/>
      <point x="563" y="-200"/>
      <point x="521" y="-200" type="qcurve" smooth="yes"/>
    </contour>
  </outline>
</glyph>
<glyph name="eng" format="2">
  <advance width="563"/>
  <unicode hex="014B"/>
  <outline>
    <contour>
      <point x="398" y="-200" type="line"/>
      <point x="477" y="-200"/>
      <point x="477" y="-117" type="qcurve"/>
      <point x="477" y="329" type="line"/>
      <point x="477" y="423"/>
      <point x="386" y="524"/>
      <point x="304" y="524" type="qcurve"/>
      <point x="191" y="524"/>
      <point x="153" y="431" type="qcurve"/>
      <point x="150" y="431" type="line"/>
      <point x="150" y="512" type="line"/>
      <point x="93" y="512" type="line"/>
      <point x="93" y="0" type="line"/>
      <point x="150" y="0" type="line"/>
      <point x="150" y="360" type="line"/>
      <point x="150" y="416"/>
      <point x="235" y="473"/>
      <point x="289" y="473" type="qcurve"/>
      <point x="420" y="473"/>
      <point x="420" y="319" type="qcurve"/>
      <point x="420" y="-150" type="line"/>
      <point x="336" y="-150" type="line"/>
      <point x="336" y="-200" type="line"/>
    </contour>
  </outline>
</glyph>
<glyph name="Obreve" format="2">
  <advance width="697"/>
  <unicode hex="014E"/>
  <outline>
    <contour>
      <point x="349" y="-12" type="qcurve"/>
      <point x="482" y="-12"/>
      <point x="634" y="172"/>
      <point x="634" y="349" type="qcurve"/>
      <point x="634" y="526"/>
      <point x="482" y="710"/>
      <point x="349" y="710" type="qcurve"/>
      <point x="215" y="710"/>
      <point x="63" y="527"/>
      <point x="63" y="349" type="qcurve"/>
      <point x="63" y="171"/>
      <point x="215" y="-12"/>
    </contour>
    <contour>
      <point x="349" y="42" type="qcurve"/>
      <point x="249" y="42"/>
      <point x="127" y="181"/>
      <point x="127" y="305" type="qcurve"/>
      <point x="127" y="393" type="line"/>
      <point x="127" y="518"/>
      <point x="249" y="656"/>
      <point x="349" y="656" type="qcurve"/>
      <point x="450" y="656"/>
      <point x="570" y="518"/>
      <point x="570" y="393" type="qcurve"/>
      <point x="570" y="305" type="line"/>
      <point x="570" y="181"/>
      <point x="450" y="42"/>
    </contour>
    <contour>
      <point x="349" y="774" type="qcurve"/>
      <point x="383" y="774"/>
      <point x="407" y="784" type="qcurve"/>
      <point x="462" y="808"/>
      <point x="493" y="896" type="qcurve"/>
      <point x="460" y="912" type="line"/>
      <point x="441" y="881" type="line"/>
      <point x="423" y="849"/>
      <point x="385" y="820"/>
      <point x="349" y="820" type="qcurve"/>
      <point x="313" y="820"/>
      <point x="275" y="849"/>
      <point x="257" y="881" type="qcurve"/>
      <point x="238" y="912" type="line"/>
      <point x="205" y="896" type="line"/>
      <point x="222" y="848"/>
      <point x="286" y="774"/>
    </contour>
  </outline>
</glyph>
<glyph name="Odoubleacute" format="2">
  <advance width="697"/>
  <unicode hex="0150"/>
  <outline>
    <contour>
      <point x="349" y="-12" type="qcurve"/>
      <point x="482" y="-12"/>
      <point x="634" y="172"/>
      <point x="634" y="349" type="qcurve"/>
      <point x="634" y="526"/>
      <point x="482" y="710"/>
      <point x="349" y="710" type="qcurve"/>
      <point x="215" y="710"/>
      <point x="63" y="527"/>
      <point x="63" y="349" type="qcurve"/>
      <point x="63" y="171"/>
      <point x="215" y="-12"/>
    </contour>
    <contour>
      <point x="349" y="42" type="qcurve"/>
      <point x="249" y="42"/>
      <point x="127" y="181"/>
      <point x="127" y="305" type="qcurve"/>
      <point x="127" y="393" type="line"/>
      <point x="127" y="518"/>
      <point x="249" y="656"/>
      <point x="349" y="656" type="qcurve"/>
      <point x="450" y="656"/>
      <point x="570" y="518"/>
      <point x="570" y="393" type="qcurve"/>
      <point x="570" y="305" type="line"/>
      <point x="570" y="181"/>
      <point x="450" y="42"/>
    </contour>
    <contour>
      <point x="273" y="760" type="line"/>
      <point x="383" y="917" type="line"/>
      <point x="333" y="941" type="line"/>
      <point x="238" y="778" type="line"/>
    </contour>
    <contour>
      <point x="433" y="760" type="line"/>
      <point x="543" y="917" type="line"/>
      <point x="493" y="941" type="line"/>
      <point x="398" y="778" type="line"/>
    </contour>
  </outline>
</glyph>
<glyph name="OE" format="2">
  <advance width="977"/>
  <unicode hex="0152"/>
  <outline>
    <contour>
      <point x="368" y="-12" type="qcurve"/>
      <point x="439" y="-12"/>
      <point x="502" y="0" type="qcurve"/>
      <point x="911" y="0" type="line"/>
      <point x="911" y="53" type="line"/>
      <point x="562" y="53" type="line"/>
      <point x="562" y="328" type="line"/>
      <point x="894" y="328" type="line"/>
      <point x="894" y="381" type="line"/>
      <point x="562" y="381" type="line"/>
      <point x="562" y="645" type="line"/>
      <point x="911" y="645" type="line"/>
      <point x="911" y="698" type="line"/>
      <point x="502" y="698" type="line"/>
      <point x="439" y="710"/>
      <point x="368" y="710" type="qcurve"/>
      <point x="222" y="710"/>
      <point x="63" y="528"/>
      <point x="63" y="349" type="qcurve"/>
      <point x="63" y="170"/>
      <point x="222" y="-12"/>
    </contour>
    <contour>
      <point x="374" y="42" type="qcurve"/>
      <point x="252" y="42"/>
      <point x="127" y="180"/>
      <point x="127" y="305" type="qcurve"/>
      <point x="127" y="393" type="line"/>
      <point x="127" y="518"/>
      <point x="252" y="656"/>
      <point x="374" y="656" type="qcurve"/>
      <point x="445" y="656"/>
      <point x="502" y="640" type="qcurve"/>
      <point x="502" y="58" type="line"/>
      <point x="445" y="42"/>
    </contour>
  </outline>
</glyph>
<glyph name="oe" format="2">
  <advance width="929"/>
  <unicode hex="0153"/>
  <outline>
    <contour>
      <point x="276" y="39" type="qcurve"/>
      <point x="201" y="39"/>
      <point x="113" y="134"/>
      <point x="113" y="224" type="qcurve"/>
      <point x="113" y="288" type="line"/>
      <point x="113" y="379"/>
      <point x="201" y="473"/>
      <point x="276" y="473" type="qcurve"/>
      <point x="350" y="473"/>
      <point x="438" y="379"/>
      <point x="438" y="288" type="qcurve"/>
      <point x="438" y="224" type="line"/>
      <point x="438" y="134"/>
      <point x="350" y="39"/>
    </contour>
    <contour>
      <point x="815" y="289" type="line"/>
      <point x="498" y="289" type="line"/>
      <point x="498" y="374"/>
      <point x="586" y="476"/>
      <point x="662" y="476" type="qcurve"/>
      <point x="730" y="476"/>
      <point x="773" y="427" type="qcurve"/>
      <point x="815" y="377"/>
      <point x="815" y="297" type="qcurve"/>
    </contour>
    <contour>
      <point x="667" y="-12" type="qcurve"/>
      <point x="739" y="-12"/>
      <point x="840" y="59"/>
      <point x="862" y="113" type="qcurve"/>
      <point x="820" y="141" type="line"/>
      <point x="775" y="38"/>
      <point x="667" y="38" type="qcurve"/>
      <point x="586" y="38"/>
      <point x="498" y="138"/>
      <point x="498" y="220" type="qcurve"/>
      <point x="498" y="245" type="line"/>
      <point x="877" y="245" type="line"/>
      <point x="877" y="272" type="line"/>
      <point x="877" y="385"/>
      <point x="760" y="524"/>
      <point x="662" y="524" type="qcurve"/>
      <point x="520" y="524"/>
      <point x="472" y="393" type="qcurve"/>
      <point x="468" y="393" type="line"/>
      <point x="416" y="524"/>
      <point x="276" y="524" type="qcurve"/>
      <point x="174" y="524"/>
      <point x="52" y="382"/>
      <point x="52" y="256" type="qcurve"/>
      <point x="52" y="130"/>
      <point x="174" y="-12"/>
      <point x="276" y="-12" type="qcurve"/>
      <point x="414" y="-12"/>
      <point x="467" y="120" type="qcurve"/>
      <point x="471" y="120" type="line"/>
      <point x="493" y="57"/>
      <point x="592" y="-12"/>
    </contour>
  </outline>
</glyph>
<glyph name="racute" format="2">
  <advance width="357"/>
  <unicode hex="0155"/>
  <outline>
    <contour>
      <point x="150" y="0" type="line"/>
      <point x="150" y="350" type="line"/>
      <point x="150" y="400"/>
      <point x="232" y="456"/>
      <point x="296" y="456" type="qcurve"/>
      <point x="341" y="456" type="line"/>
      <point x="341" y="512" type="line"/>
      <point x="307" y="512" type="line"/>
      <point x="190" y="512"/>
      <point x="154" y="420" type="qcurve"/>
      <point x="150" y="420" type="line"/>
      <point x="150" y="512" type="line"/>
      <point x="93" y="512" type="line"/>
      <point x="93" y="0" type="line"/>
    </contour>
    <contour>
      <point x="218" y="586" type="line"/>
      <point x="328" y="742" type="line"/>
      <point x="276" y="768" type="line"/>
      <point x="181" y="604" type="line"/>
    </contour>
  </outline>
</glyph>
<glyph name="rcedilla" format="2">
  <advance width="357"/>
  <unicode hex="0157"/>
  <outline>
    <contour>
      <point x="150" y="0" type="line"/>
      <point x="150" y="350" type="line"/>
      <point x="150" y="400"/>
      <point x="232" y="456"/>
      <point x="296" y="456" type="qcurve"/>
      <point x="341" y="456" type="line"/>
      <point x="341" y="512" type="line"/>
      <point x="307" y="512" type="line"/>
      <point x="190" y="512"/>
      <point x="154" y="420" type="qcurve"/>
      <point x="150" y="420" type="line"/>
      <point x="150" y="512" type="line"/>
      <point x="93" y="512" type="line"/>
      <point x="93" y="0" type="line"/>
    </contour>
    <contour>
      <point x="109" y="-232" type="line"/>
      <point x="163" y="-178"/>
      <point x="163" y="-114" type="qcurve"/>
      <point x="163" y="-103" type="line"/>
      <point x="163" y="-66"/>
      <point x="125" y="-66" type="qcurve"/>
      <point x="83" y="-66"/>
      <point x="83" y="-103" type="qcurve"/>
      <point x="83" y="-112" type="line"/>
      <point x="83" y="-140"/>
      <point x="115" y="-147" type="qcurve"/>
      <point x="106" y="-190"/>
      <point x="67" y="-232" type="qcurve"/>
    </contour>
  </outline>
</glyph>
<glyph name="rcaron" format="2">
  <advance width="357"/>
  <unicode hex="0159"/>
  <outline>
    <contour>
      <point x="150" y="0" type="line"/>
      <point x="150" y="350" type="line"/>
      <point x="150" y="400"/>
      <point x="232" y="456"/>
      <point x="296" y="456" type="qcurve"/>
      <point x="341" y="456" type="line"/>
      <point x="341" y="512" type="line"/>
      <point x="307" y="512" type="line"/>
      <point x="190" y="512"/>
      <point x="154" y="420" type="qcurve"/>
      <point x="150" y="420" type="line"/>
      <point x="150" y="512" type="line"/>
      <point x="93" y="512" type="line"/>
      <point x="93" y="0" type="line"/>
    </contour>
    <contour>
      <point x="256" y="601" type="line"/>
      <point x="374" y="740" type="line"/>
      <point x="342" y="763" type="line"/>
      <point x="221" y="642" type="line"/>
      <point x="100" y="763" type="line"/>
      <point x="68" y="740" type="line"/>
      <point x="186" y="601" type="line"/>
    </contour>
  </outline>
</glyph>
<glyph name="sacute" format="2">
  <advance width="477"/>
  <unicode hex="015B"/>
  <outline>
    <contour>
      <point x="238" y="-12" type="qcurve"/>
      <point x="323" y="-12"/>
      <point x="420" y="68"/>
      <point x="420" y="140" type="qcurve"/>
      <point x="420" y="202"/>
      <point x="345" y="271"/>
      <point x="267" y="283" type="qcurve"/>
      <point x="226" y="289" type="line"/>
      <point x="171" y="297"/>
      <point x="116" y="338"/>
      <point x="116" y="383" type="qcurve"/>
      <point x="116" y="472"/>
      <point x="232" y="475" type="qcurve"/>
      <point x="321" y="475"/>
      <point x="372" y="410" type="qcurve"/>
      <point x="410" y="445" type="line"/>
      <point x="381" y="481"/>
      <point x="299" y="524"/>
      <point x="235" y="524" type="qcurve"/>
      <point x="162" y="524"/>
      <point x="61" y="452"/>
      <point x="61" y="380" type="qcurve"/>
      <point x="61" y="257"/>
      <point x="218" y="237" type="qcurve"/>
      <point x="260" y="230" type="line"/>
      <point x="365" y="217"/>
      <point x="365" y="134" type="qcurve"/>
      <point x="365" y="40"/>
      <point x="242" y="37" type="qcurve"/>
      <point x="140" y="37"/>
      <point x="83" y="119" type="qcurve"/>
      <point x="41" y="86" type="line"/>
      <point x="76" y="38"/>
      <point x="171" y="-12"/>
    </contour>
    <contour>
      <point x="230" y="586" type="line"/>
      <point x="340" y="742" type="line"/>
      <point x="288" y="768" type="line"/>
      <point x="193" y="604" type="line"/>
    </contour>
  </outline>
</glyph>
<glyph name="Scedilla" format="2">
  <advance width="568"/>
  <unicode hex="015E"/>
  <outline>
    <contour>
      <point x="293" y="-205" type="qcurve"/>
      <point x="335" y="-205"/>
      <point x="392" y="-164"/>
      <point x="392" y="-127" type="qcurve"/>
      <point x="392" y="-96"/>
      <point x="354" y="-63"/>
      <point x="325" y="-63" type="qcurve"/>
      <point x="309" y="-63"/>
      <point x="289" y="-68" type="qcurve"/>
      <point x="287" y="-66" type="line"/>
      <point x="299" y="-11" type="line"/>
      <point x="400" y="-7"/>
      <point x="513" y="97"/>
      <point x="513" y="190" type="qcurve"/>
      <point x="513" y="262"/>
      <point x="428" y="358"/>
      <point x="325" y="381" type="qcurve"/>
      <point x="263" y="394" type="line"/>
      <point x="197" y="406"/>
      <point x="120" y="465"/>
      <point x="120" y="527" type="qcurve"/>
      <point x="120" y="592"/>
      <point x="207" y="657"/>
      <point x="282" y="657" type="qcurve"/>
      <point x="401" y="657"/>
      <point x="461" y="570" type="qcurve"/>
      <point x="506" y="603" type="line"/>
      <point x="433" y="710"/>
      <point x="285" y="710" type="qcurve"/>
      <point x="185" y="710"/>
      <point x="61" y="617"/>
      <point x="61" y="525" type="qcurve"/>
      <point x="61" y="452"/>
      <point x="152" y="358"/>
      <point x="251" y="338" type="qcurve"/>
      <point x="313" y="325" type="line"/>
      <point x="380" y="311"/>
      <point x="454" y="252"/>
      <point x="454" y="187" type="qcurve"/>
      <point x="454" y="118"/>
      <point x="367" y="41"/>
      <point x="286" y="41" type="qcurve"/>
      <point x="217" y="41"/>
      <point x="123" y="95"/>
      <point x="87" y="144" type="qcurve"/>
      <point x="42" y="107" type="line"/>
      <point x="123" y="-3"/>
      <point x="261" y="-11" type="qcurve"/>
      <point x="247" y="-80" type="line"/>
      <point x="278" y="-83" type="line"/>
      <point x="317" y="-88"/>
      <point x="343" y="-109"/>
      <point x="343" y="-126" type="qcurve"/>
      <point x="343" y="-146"/>
      <point x="315" y="-165"/>
      <point x="293" y="-165" type="qcurve"/>
      <point x="251" y="-165"/>
      <point x="229" y="-137" type="qcurve"/>
      <point x="201" y="-168" type="line"/>
      <point x="211" y="-183"/>
      <point x="257" y="-205"/>
    </contour>
  </outline>
</glyph>
<glyph name="scedilla" format="2">
  <advance width="477"/>
  <unicode hex="015F"/>
  <outline>
    <contour>
      <point x="250" y="-205" type="qcurve" smooth="yes"/>
      <point x="214" y="-205"/>
      <point x="168" y="-183"/>
      <point x="158" y="-168" type="qcurve"/>
      <point x="186" y="-137" type="line"/>
      <point x="208" y="-165"/>
      <point x="250" y="-165" type="qcurve" smooth="yes"/>
      <point x="272" y="-165"/>
      <point x="300" y="-146"/>
      <point x="300" y="-126" type="qcurve" smooth="yes"/>
      <point x="300" y="-109"/>
      <point x="274" y="-88"/>
      <point x="235" y="-83" type="qcurve"/>
      <point x="204" y="-80" type="line"/>
      <point x="218" y="-11" type="line"/>
      <point x="103" y="-3"/>
      <point x="41" y="86" type="qcurve"/>
      <point x="83" y="119" type="line"/>
      <point x="140" y="37"/>
      <point x="242" y="37" type="qcurve"/>
      <point x="365" y="40"/>
      <point x="365" y="134" type="qcurve" smooth="yes"/>
      <point x="365" y="217"/>
      <point x="260" y="230" type="qcurve"/>
      <point x="218" y="237" type="line"/>
      <point x="61" y="257"/>
      <point x="61" y="380" type="qcurve" smooth="yes"/>
      <point x="61" y="452"/>
      <point x="162" y="524"/>
      <point x="235" y="524" type="qcurve" smooth="yes"/>
      <point x="299" y="524"/>
      <point x="381" y="481"/>
      <point x="410" y="445" type="qcurve"/>
      <point x="372" y="410" type="line"/>
      <point x="321" y="475"/>
      <point x="232" y="475" type="qcurve"/>
      <point x="116" y="472"/>
      <point x="116" y="383" type="qcurve" smooth="yes"/>
      <point x="116" y="338"/>
      <point x="171" y="296"/>
      <point x="226" y="289" type="qcurve" smooth="yes"/>
      <point x="267" y="283" type="line" smooth="yes"/>
      <point x="345" y="271"/>
      <point x="420" y="202"/>
      <point x="420" y="140" type="qcurve" smooth="yes"/>
      <point x="420" y="72"/>
      <point x="333" y="-7"/>
      <point x="256" y="-11" type="qcurve"/>
      <point x="244" y="-66" type="line"/>
      <point x="246" y="-68" type="line"/>
      <point x="266" y="-63"/>
      <point x="282" y="-63" type="qcurve" smooth="yes"/>
      <point x="311" y="-63"/>
      <point x="349" y="-96"/>
      <point x="349" y="-127" type="qcurve" smooth="yes"/>
      <point x="349" y="-164"/>
      <point x="292" y="-205"/>
    </contour>
  </outline>
</glyph>
<glyph name="Tbar" format="2">
  <advance width="574"/>
  <unicode hex="0166"/>
  <outline>
    <contour>
      <point x="317" y="0" type="line"/>
      <point x="317" y="349" type="line"/>
      <point x="491" y="349" type="line"/>
      <point x="491" y="395" type="line"/>
      <point x="317" y="395" type="line"/>
      <point x="317" y="645" type="line"/>
      <point x="551" y="645" type="line"/>
      <point x="551" y="698" type="line"/>
      <point x="23" y="698" type="line"/>
      <point x="23" y="645" type="line"/>
      <point x="257" y="645" type="line"/>
      <point x="257" y="395" type="line"/>
      <point x="83" y="395" type="line"/>
      <point x="83" y="349" type="line"/>
      <point x="257" y="349" type="line"/>
      <point x="257" y="0" type="line"/>
    </contour>
  </outline>
</glyph>
<glyph name="tbar" format="2">
  <advance width="341"/>
  <unicode hex="0167"/>
  <outline>
    <contour>
      <point x="286" y="0" type="line"/>
      <point x="286" y="50" type="line"/>
      <point x="178" y="50" type="line"/>
      <point x="178" y="260" type="line"/>
      <point x="273" y="260" type="line"/>
      <point x="273" y="305" type="line"/>
      <point x="178" y="305" type="line"/>
      <point x="178" y="462" type="line"/>
      <point x="294" y="462" type="line"/>
      <point x="294" y="512" type="line"/>
      <point x="178" y="512" type="line"/>
      <point x="178" y="655" type="line"/>
      <point x="126" y="655" type="line"/>
      <point x="126" y="551" type="line"/>
      <point x="126" y="529"/>
      <point x="111" y="512"/>
      <point x="90" y="512" type="qcurve"/>
      <point x="32" y="512" type="line"/>
      <point x="32" y="462" type="line"/>
      <point x="121" y="462" type="line"/>
      <point x="121" y="305" type="line"/>
      <point x="55" y="305" type="line"/>
      <point x="55" y="260" type="line"/>
      <point x="121" y="260" type="line"/>
      <point x="121" y="63" type="line"/>
      <point x="121" y="34"/>
      <point x="153" y="0"/>
      <point x="184" y="0" type="qcurve"/>
    </contour>
  </outline>
</glyph>
<glyph name="utilde" format="2">
  <advance width="563"/>
  <unicode hex="0169"/>
  <outline>
    <contour>
      <point x="260" y="-12" type="qcurve"/>
      <point x="320" y="-12"/>
      <point x="360" y="17" type="qcurve"/>
      <point x="396" y="43"/>
      <point x="409" y="81" type="qcurve"/>
      <point x="413" y="81" type="line"/>
      <point x="413" y="0" type="line"/>
      <point x="470" y="0" type="line"/>
      <point x="470" y="512" type="line"/>
      <point x="413" y="512" type="line"/>
      <point x="413" y="153" type="line"/>
      <point x="413" y="95"/>
      <point x="329" y="39"/>
      <point x="275" y="39" type="qcurve"/>
      <point x="143" y="39"/>
      <point x="143" y="194" type="qcurve"/>
      <point x="143" y="512" type="line"/>
      <point x="86" y="512" type="line"/>
      <point x="86" y="183" type="line"/>
      <point x="86" y="89"/>
      <point x="178" y="-12"/>
    </contour>
    <contour>
      <point x="351" y="618" type="qcurve"/>
      <point x="404" y="618"/>
      <point x="440" y="666" type="qcurve"/>
      <point x="415" y="695" type="line"/>
      <point x="400" y="681"/>
      <point x="371" y="665"/>
      <point x="354" y="665" type="qcurve"/>
      <point x="340" y="665"/>
      <point x="309" y="676"/>
      <point x="266" y="702"/>
      <point x="230" y="718"/>
      <point x="207" y="718" type="qcurve"/>
      <point x="154" y="718"/>
      <point x="118" y="670" type="qcurve"/>
      <point x="143" y="641" type="line"/>
      <point x="158" y="655"/>
      <point x="187" y="671"/>
      <point x="204" y="671" type="qcurve"/>
      <point x="218" y="671"/>
      <point x="249" y="660"/>
      <point x="292" y="634"/>
      <point x="328" y="618"/>
    </contour>
  </outline>
</glyph>
<glyph name="Umacron" format="2">
  <advance width="668"/>
  <unicode hex="016A"/>
  <outline>
    <contour>
      <point x="332" y="-12" type="qcurve"/>
      <point x="466" y="-12"/>
      <point x="575" y="126"/>
      <point x="575" y="280" type="qcurve"/>
      <point x="575" y="698" type="line"/>
      <point x="515" y="698" type="line"/>
      <point x="515" y="267" type="line"/>
      <point x="515" y="152"/>
      <point x="436" y="42"/>
      <point x="334" y="42" type="qcurve"/>
      <point x="232" y="42"/>
      <point x="153" y="152"/>
      <point x="153" y="267" type="qcurve"/>
      <point x="153" y="698" type="line"/>
      <point x="93" y="698" type="line"/>
      <point x="93" y="280" type="line"/>
      <point x="93" y="126"/>
      <point x="199" y="-12"/>
    </contour>
    <contour>
      <point x="468" y="819" type="line"/>
      <point x="468" y="868" type="line"/>
      <point x="196" y="868" type="line"/>
      <point x="196" y="819" type="line"/>
    </contour>
  </outline>
</glyph>
<glyph name="Ubreve" format="2">
  <advance width="668"/>
  <unicode hex="016C"/>
  <outline>
    <contour>
      <point x="332" y="-12" type="qcurve"/>
      <point x="466" y="-12"/>
      <point x="575" y="126"/>
      <point x="575" y="280" type="qcurve"/>
      <point x="575" y="698" type="line"/>
      <point x="515" y="698" type="line"/>
      <point x="515" y="267" type="line"/>
      <point x="515" y="152"/>
      <point x="436" y="42"/>
      <point x="334" y="42" type="qcurve"/>
      <point x="232" y="42"/>
      <point x="153" y="152"/>
      <point x="153" y="267" type="qcurve"/>
      <point x="153" y="698" type="line"/>
      <point x="93" y="698" type="line"/>
      <point x="93" y="280" type="line"/>
      <point x="93" y="126"/>
      <point x="199" y="-12"/>
    </contour>
    <contour>
      <point x="332" y="774" type="qcurve"/>
      <point x="366" y="774"/>
      <point x="390" y="784" type="qcurve"/>
      <point x="445" y="808"/>
      <point x="476" y="896" type="qcurve"/>
      <point x="443" y="912" type="line"/>
      <point x="424" y="881" type="line"/>
      <point x="406" y="849"/>
      <point x="368" y="820"/>
      <point x="332" y="820" type="qcurve"/>
      <point x="296" y="820"/>
      <point x="258" y="849"/>
      <point x="240" y="881" type="qcurve"/>
      <point x="221" y="912" type="line"/>
      <point x="188" y="896" type="line"/>
      <point x="205" y="848"/>
      <point x="269" y="774"/>
    </contour>
  </outline>
</glyph>
<glyph name="Uring" format="2">
  <advance width="668"/>
  <unicode hex="016E"/>
  <outline>
    <contour>
      <point x="332" y="-12" type="qcurve"/>
      <point x="466" y="-12"/>
      <point x="575" y="126"/>
      <point x="575" y="280" type="qcurve"/>
      <point x="575" y="698" type="line"/>
      <point x="515" y="698" type="line"/>
      <point x="515" y="267" type="line"/>
      <point x="515" y="152"/>
      <point x="436" y="42"/>
      <point x="334" y="42" type="qcurve"/>
      <point x="232" y="42"/>
      <point x="153" y="152"/>
      <point x="153" y="267" type="qcurve"/>
      <point x="153" y="698" type="line"/>
      <point x="93" y="698" type="line"/>
      <point x="93" y="280" type="line"/>
      <point x="93" y="126"/>
      <point x="199" y="-12"/>
    </contour>
    <contour>
      <point x="332" y="755" type="qcurve"/>
      <point x="378" y="755"/>
      <point x="438" y="814"/>
      <point x="438" y="861" type="qcurve"/>
      <point x="438" y="907"/>
      <point x="378" y="966"/>
      <point x="332" y="966" type="qcurve"/>
      <point x="286" y="966"/>
      <point x="226" y="907"/>
      <point x="226" y="861" type="qcurve"/>
      <point x="226" y="814"/>
      <point x="286" y="755"/>
    </contour>
    <contour>
      <point x="332" y="792" type="qcurve"/>
      <point x="274" y="792"/>
      <point x="269" y="852" type="qcurve"/>
      <point x="269" y="869" type="line"/>
      <point x="269" y="928"/>
      <point x="332" y="929" type="qcurve"/>
      <point x="391" y="929"/>
      <point x="395" y="869" type="qcurve"/>
      <point x="395" y="852" type="line"/>
      <point x="395" y="797"/>
    </contour>
  </outline>
</glyph>
<glyph name="Udoubleacute" format="2">
  <advance width="668"/>
  <unicode hex="0170"/>
  <outline>
    <contour>
      <point x="332" y="-12" type="qcurve"/>
      <point x="466" y="-12"/>
      <point x="575" y="126"/>
      <point x="575" y="280" type="qcurve"/>
      <point x="575" y="698" type="line"/>
      <point x="515" y="698" type="line"/>
      <point x="515" y="267" type="line"/>
      <point x="515" y="152"/>
      <point x="436" y="42"/>
      <point x="334" y="42" type="qcurve"/>
      <point x="232" y="42"/>
      <point x="153" y="152"/>
      <point x="153" y="267" type="qcurve"/>
      <point x="153" y="698" type="line"/>
      <point x="93" y="698" type="line"/>
      <point x="93" y="280" type="line"/>
      <point x="93" y="126"/>
      <point x="199" y="-12"/>
    </contour>
    <contour>
      <point x="256" y="760" type="line"/>
      <point x="366" y="917" type="line"/>
      <point x="316" y="941" type="line"/>
      <point x="221" y="778" type="line"/>
    </contour>
    <contour>
      <point x="416" y="760" type="line"/>
      <point x="526" y="917" type="line"/>
      <point x="476" y="941" type="line"/>
      <point x="381" y="778" type="line"/>
    </contour>
  </outline>
</glyph>
<glyph name="udoubleacute" format="2">
  <advance width="563"/>
  <unicode hex="0171"/>
  <outline>
    <contour>
      <point x="260" y="-12" type="qcurve"/>
      <point x="320" y="-12"/>
      <point x="360" y="17" type="qcurve"/>
      <point x="396" y="43"/>
      <point x="409" y="81" type="qcurve"/>
      <point x="413" y="81" type="line"/>
      <point x="413" y="0" type="line"/>
      <point x="470" y="0" type="line"/>
      <point x="470" y="512" type="line"/>
      <point x="413" y="512" type="line"/>
      <point x="413" y="153" type="line"/>
      <point x="413" y="95"/>
      <point x="329" y="39"/>
      <point x="275" y="39" type="qcurve"/>
      <point x="143" y="39"/>
      <point x="143" y="194" type="qcurve"/>
      <point x="143" y="512" type="line"/>
      <point x="86" y="512" type="line"/>
      <point x="86" y="183" type="line"/>
      <point x="86" y="89"/>
      <point x="178" y="-12"/>
    </contour>
    <contour>
      <point x="203" y="586" type="line"/>
      <point x="313" y="743" type="line"/>
      <point x="263" y="767" type="line"/>
      <point x="168" y="604" type="line"/>
    </contour>
    <contour>
      <point x="363" y="586" type="line"/>
      <point x="473" y="743" type="line"/>
      <point x="423" y="767" type="line"/>
      <point x="328" y="604" type="line"/>
    </contour>
  </outline>
</glyph>
<glyph name="uhungarumlaut" format="2">
  <advance width="563"/>
  <unicode hex="0171"/>
  <outline>
    <contour>
      <point x="168" y="604" type="line"/>
      <point x="263" y="767" type="line"/>
      <point x="313" y="743" type="line"/>
      <point x="203" y="586" type="line"/>
    </contour>
    <contour>
      <point x="328" y="604" type="line"/>
      <point x="423" y="767" type="line"/>
      <point x="473" y="743" type="line"/>
      <point x="363" y="586" type="line"/>
    </contour>
    <contour>
      <point x="260" y="-12" type="qcurve" smooth="yes"/>
      <point x="178" y="-12"/>
      <point x="86" y="89"/>
      <point x="86" y="183" type="qcurve" smooth="yes"/>
      <point x="86" y="512" type="line"/>
      <point x="143" y="512" type="line"/>
      <point x="143" y="194" type="line" smooth="yes"/>
      <point x="143" y="39"/>
      <point x="275" y="39" type="qcurve" smooth="yes"/>
      <point x="329" y="39"/>
      <point x="413" y="95"/>
      <point x="413" y="153" type="qcurve" smooth="yes"/>
      <point x="413" y="512" type="line"/>
      <point x="470" y="512" type="line"/>
      <point x="470" y="0" type="line"/>
      <point x="413" y="0" type="line"/>
      <point x="413" y="81" type="line"/>
      <point x="409" y="81" type="line"/>
      <point x="396" y="43"/>
      <point x="360" y="17" type="qcurve" smooth="yes"/>
      <point x="320" y="-12"/>
    </contour>
  </outline>
</glyph>
<glyph name="Uogonek" format="2">
  <advance width="668"/>
  <unicode hex="0172"/>
  <outline>
    <contour>
      <point x="402" y="-205" type="qcurve"/>
      <point x="434" y="-205"/>
      <point x="476" y="-184"/>
      <point x="485" y="-169" type="qcurve"/>
      <point x="456" y="-141" type="line"/>
      <point x="439" y="-165"/>
      <point x="403" y="-165" type="qcurve"/>
      <point x="361" y="-165"/>
      <point x="361" y="-126" type="qcurve"/>
      <point x="361" y="-99"/>
      <point x="409" y="-46"/>
      <point x="464" y="-3" type="qcurve"/>
      <point x="528" y="46"/>
      <point x="575" y="178"/>
      <point x="575" y="280" type="qcurve"/>
      <point x="575" y="698" type="line"/>
      <point x="515" y="698" type="line"/>
      <point x="515" y="267" type="line"/>
      <point x="515" y="152"/>
      <point x="436" y="42"/>
      <point x="334" y="42" type="qcurve"/>
      <point x="232" y="42"/>
      <point x="153" y="152"/>
      <point x="153" y="267" type="qcurve"/>
      <point x="153" y="698" type="line"/>
      <point x="93" y="698" type="line"/>
      <point x="93" y="280" type="line"/>
      <point x="93" y="126"/>
      <point x="199" y="-12"/>
      <point x="332" y="-12" type="qcurve"/>
      <point x="383" y="-12"/>
      <point x="422" y="1" type="qcurve"/>
      <point x="423" y="-1" type="line"/>
      <point x="369" y="-34"/>
      <point x="314" y="-97"/>
      <point x="314" y="-133" type="qcurve"/>
      <point x="314" y="-169"/>
      <point x="366" y="-205"/>
    </contour>
  </outline>
</glyph>
<glyph name="uogonek" format="2">
  <advance width="563"/>
  <unicode hex="0173"/>
  <outline>
    <contour>
      <point x="413" y="-205" type="qcurve"/>
      <point x="473" y="-205"/>
      <point x="496" y="-169" type="qcurve"/>
      <point x="466" y="-141" type="line"/>
      <point x="449" y="-165"/>
      <point x="413" y="-165" type="qcurve"/>
      <point x="371" y="-165"/>
      <point x="371" y="-125" type="qcurve"/>
      <point x="371" y="-101"/>
      <point x="391" y="-76" type="qcurve"/>
      <point x="407" y="-57"/>
      <point x="470" y="0" type="qcurve"/>
      <point x="470" y="512" type="line"/>
      <point x="413" y="512" type="line"/>
      <point x="413" y="153" type="line"/>
      <point x="413" y="95"/>
      <point x="329" y="39"/>
      <point x="275" y="39" type="qcurve"/>
      <point x="143" y="39"/>
      <point x="143" y="194" type="qcurve"/>
      <point x="143" y="512" type="line"/>
      <point x="86" y="512" type="line"/>
      <point x="86" y="183" type="line"/>
      <point x="86" y="89"/>
      <point x="178" y="-12"/>
      <point x="260" y="-12" type="qcurve"/>
      <point x="320" y="-12"/>
      <point x="360" y="17" type="qcurve"/>
      <point x="396" y="43"/>
      <point x="409" y="81" type="qcurve"/>
      <point x="413" y="81" type="line"/>
      <point x="413" y="0" type="line"/>
      <point x="424" y="0" type="line"/>
      <point x="425" y="-2" type="line"/>
      <point x="377" y="-35"/>
      <point x="324" y="-96"/>
      <point x="324" y="-131" type="qcurve"/>
      <point x="324" y="-169"/>
      <point x="375" y="-205"/>
    </contour>
  </outline>
</glyph>
<glyph name="Ycircumflex" format="2">
  <advance width="575"/>
  <unicode hex="0176"/>
  <outline>
    <contour>
      <point x="288" y="888" type="line"/>
      <point x="167" y="768" type="line"/>
      <point x="135" y="791" type="line"/>
      <point x="253" y="930" type="line"/>
      <point x="323" y="930" type="line"/>
      <point x="441" y="791" type="line"/>
      <point x="409" y="768" type="line"/>
    </contour>
    <contour>
      <point x="257" y="0" type="line"/>
      <point x="257" y="283" type="line"/>
      <point x="16" y="698" type="line"/>
      <point x="84" y="698" type="line"/>
      <point x="286" y="346" type="line"/>
      <point x="289" y="346" type="line"/>
      <point x="491" y="698" type="line"/>
      <point x="559" y="698" type="line"/>
      <point x="317" y="286" type="line"/>
      <point x="317" y="0" type="line"/>
    </contour>
  </outline>
</glyph>
<glyph name="Zacute" format="2">
  <advance width="570"/>
  <unicode hex="0179"/>
  <outline>
    <contour>
      <point x="537" y="0" type="line"/>
      <point x="537" y="53" type="line"/>
      <point x="101" y="53" type="line"/>
      <point x="521" y="643" type="line"/>
      <point x="521" y="698" type="line"/>
      <point x="59" y="698" type="line"/>
      <point x="59" y="645" type="line"/>
      <point x="456" y="645" type="line"/>
      <point x="37" y="55" type="line"/>
      <point x="37" y="0" type="line"/>
    </contour>
    <contour>
      <point x="289" y="760" type="line"/>
      <point x="399" y="916" type="line"/>
      <point x="347" y="942" type="line"/>
      <point x="252" y="778" type="line"/>
    </contour>
  </outline>
</glyph>
<glyph name="Zdotaccent" format="2">
  <advance width="570"/>
  <unicode hex="017B"/>
  <outline>
    <contour>
      <point x="537" y="0" type="line"/>
      <point x="537" y="53" type="line"/>
      <point x="101" y="53" type="line"/>
      <point x="521" y="643" type="line"/>
      <point x="521" y="698" type="line"/>
      <point x="59" y="698" type="line"/>
      <point x="59" y="645" type="line"/>
      <point x="456" y="645" type="line"/>
      <point x="37" y="55" type="line"/>
      <point x="37" y="0" type="line"/>
    </contour>
    <contour>
      <point x="292" y="796" type="qcurve"/>
      <point x="335" y="796"/>
      <point x="335" y="837" type="qcurve"/>
      <point x="335" y="848" type="line"/>
      <point x="335" y="889"/>
      <point x="292" y="889" type="qcurve"/>
      <point x="249" y="889"/>
      <point x="249" y="848" type="qcurve"/>
      <point x="249" y="837" type="line"/>
      <point x="249" y="796"/>
    </contour>
  </outline>
</glyph>
<glyph name="fhook" format="2">
  <advance width="486"/>
  <unicode hex="0192"/>
  <outline>
    <contour>
      <point x="131" y="-134" type="line"/>
      <point x="173" y="-134"/>
      <point x="217" y="-90"/>
      <point x="221" y="-51" type="qcurve"/>
      <point x="256" y="305" type="line"/>
      <point x="441" y="305" type="line"/>
      <point x="447" y="357" type="line"/>
      <point x="262" y="357" type="line"/>
      <point x="291" y="648" type="line"/>
      <point x="457" y="648" type="line"/>
      <point x="462" y="698" type="line"/>
      <point x="320" y="698" type="line"/>
      <point x="278" y="698"/>
      <point x="234" y="654"/>
      <point x="230" y="615" type="qcurve"/>
      <point x="204" y="357" type="line"/>
      <point x="50" y="357" type="line"/>
      <point x="44" y="305" type="line"/>
      <point x="199" y="305" type="line"/>
      <point x="160" y="-84" type="line"/>
      <point x="2" y="-84" type="line"/>
      <point x="-3" y="-134" type="line"/>
    </contour>
  </outline>
</glyph>
<glyph name="florin" format="2">
  <advance width="486"/>
  <unicode hex="0192"/>
  <outline>
    <contour>
      <point x="-3" y="-134" type="line"/>
      <point x="2" y="-84" type="line"/>
      <point x="160" y="-84" type="line"/>
      <point x="199" y="305" type="line"/>
      <point x="44" y="305" type="line"/>
      <point x="50" y="357" type="line"/>
      <point x="204" y="357" type="line"/>
      <point x="230" y="615" type="line" smooth="yes"/>
      <point x="234" y="654"/>
      <point x="278" y="698"/>
      <point x="320" y="698" type="qcurve" smooth="yes"/>
      <point x="462" y="698" type="line"/>
      <point x="457" y="648" type="line"/>
      <point x="291" y="648" type="line"/>
      <point x="262" y="357" type="line"/>
      <point x="447" y="357" type="line"/>
      <point x="441" y="305" type="line"/>
      <point x="256" y="305" type="line"/>
      <point x="221" y="-51" type="line" smooth="yes"/>
      <point x="217" y="-90"/>
      <point x="173" y="-134"/>
      <point x="131" y="-134" type="qcurve" smooth="yes"/>
    </contour>
  </outline>
</glyph>
<glyph name="ohorn" format="2">
  <advance width="550"/>
  <unicode hex="01A1"/>
  <outline>
    <contour>
      <point x="275" y="-12" type="qcurve"/>
      <point x="377" y="-12"/>
      <point x="498" y="130"/>
      <point x="498" y="256" type="qcurve"/>
      <point x="498" y="404"/>
      <point x="415" y="475" type="qcurve"/>
      <point x="448" y="475" type="line"/>
      <point x="477" y="475"/>
      <point x="497" y="502"/>
      <point x="497" y="525" type="qcurve"/>
      <point x="497" y="620" type="line"/>
      <point x="446" y="620" type="line"/>
      <point x="446" y="512" type="line"/>
      <point x="351" y="512" type="line"/>
      <point x="316" y="524"/>
      <point x="275" y="524" type="qcurve"/>
      <point x="173" y="524"/>
      <point x="52" y="382"/>
      <point x="52" y="256" type="qcurve"/>
      <point x="52" y="130"/>
      <point x="173" y="-12"/>
    </contour>
    <contour>
      <point x="275" y="39" type="qcurve"/>
      <point x="200" y="39"/>
      <point x="113" y="134"/>
      <point x="113" y="224" type="qcurve"/>
      <point x="113" y="288" type="line"/>
      <point x="113" y="379"/>
      <point x="200" y="473"/>
      <point x="275" y="473" type="qcurve"/>
      <point x="350" y="473"/>
      <point x="437" y="378"/>
      <point x="437" y="288" type="qcurve"/>
      <point x="437" y="224" type="line"/>
      <point x="437" y="133"/>
      <point x="350" y="39"/>
    </contour>
  </outline>
</glyph>
<glyph name="Uhorn" format="2">
  <advance width="668"/>
  <unicode hex="01AF"/>
  <outline>
    <contour>
      <point x="332" y="-12" type="qcurve"/>
      <point x="466" y="-12"/>
      <point x="575" y="126"/>
      <point x="575" y="280" type="qcurve"/>
      <point x="575" y="659" type="line"/>
      <point x="603" y="659" type="line"/>
      <point x="632" y="659"/>
      <point x="653" y="686"/>
      <point x="653" y="708" type="qcurve"/>
      <point x="653" y="810" type="line"/>
      <point x="602" y="810" type="line"/>
      <point x="602" y="698" type="line"/>
      <point x="515" y="698" type="line"/>
      <point x="515" y="267" type="line"/>
      <point x="515" y="152"/>
      <point x="436" y="42"/>
      <point x="334" y="42" type="qcurve"/>
      <point x="232" y="42"/>
      <point x="153" y="152"/>
      <point x="153" y="267" type="qcurve"/>
      <point x="153" y="698" type="line"/>
      <point x="93" y="698" type="line"/>
      <point x="93" y="280" type="line"/>
      <point x="93" y="126"/>
      <point x="199" y="-12"/>
    </contour>
  </outline>
</glyph>
<glyph name="Aringacute" format="2">
  <advance width="625"/>
  <unicode hex="01FA"/>
  <outline>
    <contour>
      <point x="313" y="749" type="qcurve" smooth="yes"/>
      <point x="267" y="749"/>
      <point x="207" y="808"/>
      <point x="207" y="855" type="qcurve" smooth="yes"/>
      <point x="207" y="901"/>
      <point x="237" y="931" type="qcurve" smooth="yes"/>
      <point x="264" y="957"/>
      <point x="303" y="960" type="qcurve"/>
      <point x="363" y="1046" type="line"/>
      <point x="413" y="1026" type="line"/>
      <point x="350" y="954" type="line"/>
      <point x="372" y="947"/>
      <point x="389" y="931" type="qcurve" smooth="yes"/>
      <point x="419" y="901"/>
      <point x="419" y="855" type="qcurve" smooth="yes"/>
      <point x="419" y="808"/>
      <point x="359" y="749"/>
    </contour>
    <contour>
      <point x="313" y="786" type="qcurve"/>
      <point x="376" y="791"/>
      <point x="376" y="846" type="qcurve" smooth="yes"/>
      <point x="376" y="863" type="line"/>
      <point x="372" y="918"/>
      <point x="323" y="923" type="qcurve"/>
      <point x="320" y="923" type="line" smooth="yes"/>
      <point x="317" y="923"/>
      <point x="313" y="923" type="qcurve"/>
      <point x="250" y="922"/>
      <point x="250" y="863" type="qcurve" smooth="yes"/>
      <point x="250" y="846" type="line"/>
      <point x="255" y="786"/>
    </contour>
    <contour>
      <point x="536" y="0" type="line"/>
      <point x="460" y="217" type="line"/>
      <point x="163" y="217" type="line"/>
      <point x="87" y="0" type="line"/>
      <point x="27" y="0" type="line"/>
      <point x="274" y="698" type="line"/>
      <point x="351" y="698" type="line"/>
      <point x="599" y="0" type="line"/>
    </contour>
    <contour>
      <point x="313" y="641" type="line"/>
      <point x="309" y="641" type="line"/>
      <point x="178" y="269" type="line"/>
      <point x="444" y="269" type="line"/>
    </contour>
  </outline>
</glyph>
